<?xml version="1.0" standalone="no"?>
<!DOCTYPE svg PUBLIC "-//W3C//DTD SVG 1.1//EN" "http://www.w3.org/Graphics/SVG/1.1/DTD/svg11.dtd">
<svg xmlns="http://www.w3.org/2000/svg">
<defs >
<font id="Vazirmatn" horiz-adv-x="1159" ><font-face
    font-family="Vazirmatn Light"
    units-per-em="2048"
    panose-1="0 0 0 0 0 0 0 0 0 0"
    ascent="2100"
    descent="-1100"
    alphabetic="0" />
<glyph unicode=" " horiz-adv-x="550" />
<glyph unicode="!" horiz-adv-x="541" d="M153 118Q153 68 187 35T271 1Q319 1 353 35T388 118Q388 167 354 202T271 237Q222 237 188 202T153 118ZM191 1366L214 423H332L355 1366H191Z" />
<glyph unicode="&quot;" horiz-adv-x="622" d="M261 1536V1398L236 1063H140L142 1391V1536H261ZM514 1536V1398L489 1063H393L395 1396V1536H514Z" />
<glyph unicode="#" horiz-adv-x="1226" d="M271 0L550 1456H672L393 0H271ZM681 0L961 1456H1082L803 0H681ZM1218 922H178V1040H1218V922ZM1143 410H102V527H1143V410Z" />
<glyph unicode="$" horiz-adv-x="1144" d="M658 1685V1400H532V1685H658ZM647 49V-208H522V49H647ZM879 367Q879 434 851 485T755 579T575 659Q449 699 358 753T217 888T167 1088Q167 1208 219 1295T367 1429T593 1477Q727 1477 822 1424T969 1269T1020 1018H869Q869
1159 798 1250T593 1342Q499 1342 439 1309T349 1219T320 1090Q320 1022 346 971T439 878T628 795Q755 754 845 701T984 568T1032 369Q1032 244 976 157T817 25T578 -21Q493 -21 410 2T260 76T153 213T113 424H266Q266 333 293 274T367 179T468 129T578 114Q674
114 741 146T843 236T879 367Z" />
<glyph unicode="%" horiz-adv-x="1507" d="M107 1099V1176Q107 1259 142 1327T244 1436T399 1477Q490 1477 555 1436T655 1327T691 1176V1099Q691 1018 656 950T556 841T401 800Q311 800 245 841T143 950T107 1099ZM225 1176V1099Q225 1050 244 1005T302 932T401
904Q460 904 498 932T554 1004T573 1099V1176Q573 1227 554 1272T497 1345T399 1373Q341 1373 303 1345T245 1272T225 1176ZM828 279V357Q828 439 863 507T964 616T1119 657Q1210 657 1275 616T1376 507T1412 357V279Q1412 197 1377 129T1277 20T1121 -21Q1031
-21 966 20T864 129T828 279ZM946 357V279Q946 229 965 184T1023 111T1121 83Q1180 83 1218 111T1275 184T1294 279V357Q1294 436 1251 494T1119 553Q1033 553 990 495T946 357ZM1152 1254L441 116L352 173L1063 1311L1152 1254Z" />
<glyph unicode="&amp;" horiz-adv-x="1267" d="M400 797L626 962Q690 1007 728 1056T766 1180Q766 1245 718 1297T579 1350Q482 1350 433 1287T383 1139Q383 1069 428 992T551 826L1249 0H1066L482 688Q370 819 300 920T229 1134Q229 1242 272 1318T394 1435T579
1476Q682 1476 755 1436T868 1328T908 1180Q908 1112 881 1057T810 955T711 869L434 659Q355 597 318 545T269 451T258 382Q258 308 291 246T393 146T566 108Q655 108 739 147T889 260T994 436T1033 662H1171Q1171 517 1129 398T1001 188Q993 179 989 170T976 152Q899
69 791 25T566 -20Q424 -20 321 31T161 173T105 382Q105 472 143 542T249 674T400 797Z" />
<glyph unicode="&apos;" horiz-adv-x="354" d="M241 1536V1411L221 1074H112L115 1398V1536H241Z" />
<glyph unicode="(" horiz-adv-x="685" d="M288 591Q288 780 328 961T447 1289T641 1525L609 1626Q502 1565 416 1459T269 1215T175 918T142 591Q142 424 175 265T269 -33T416 -277T609 -444L641 -343Q525 -254 447 -107T329 221T288 591Z" />
<glyph unicode=")" horiz-adv-x="685" d="M397 591Q397 402 357 221T239 -107T45 -343L76 -444Q183 -383 269 -277T416 -33T510 264T543 591Q543 758 511 917T417 1215T269 1459T76 1626L45 1525Q160 1437 238 1290T357 961T397 591Z" />
<glyph unicode="*" horiz-adv-x="876" d="M137 704L346 992L29 1091L68 1217L385 1100L379 1457H507L498 1096L809 1215L849 1087L528 984L738 702L634 624L434 920L242 628L137 704Z" />
<glyph unicode="+" horiz-adv-x="1085" d="M605 457H938V583H605V927H479V583H146V457H479V85H605V457Z" />
<glyph unicode="," horiz-adv-x="398" d="M291 205V60Q291 -31 249 -124T133 -282L45 -219Q76 -176 97 -133T130 -43T141 57V205H291Z" />
<glyph unicode="-" horiz-adv-x="942" d="M795 456V581H146V456H795Z" />
<glyph unicode="." horiz-adv-x="541" d="M153 117Q153 67 187 34T271 0Q319 0 353 34T388 117Q388 166 354 201T271 236Q222 236 188 201T153 117Z" />
<glyph unicode="/" horiz-adv-x="829" d="M157 -125L764 1456H632L24 -125H157Z" />
<glyph unicode="0" horiz-adv-x="1144" d="M1025 849V615Q1025 389 971 249T816 45T573 -20Q434 -20 332 44T174 249T118 615V849Q118 1075 173 1213T329 1413T571 1476Q712 1476 813 1414T970 1213T1025 849ZM872 593V872Q872 1037 839 1142T738 1299T571 1350Q473
1350 406 1299T305 1143T271 872V593Q271 430 305 322T407 161T573 108Q673 108 739 161T839 322T872 593Z" />
<glyph unicode="1" horiz-adv-x="1144" d="M712 1463V0H559V1272L175 1131V1271L687 1463H712Z" />
<glyph unicode="2" horiz-adv-x="1144" d="M1062 128V0H130V113L607 649Q696 749 746 821T818 952T840 1070Q840 1189 768 1269T561 1349Q462 1349 393 1309T288 1197T252 1032H100Q100 1154 153 1255T310 1416T561 1476Q762 1476 877 1371T993 1087Q993 1000
954 912T852 737T713 568L315 128H1062Z" />
<glyph unicode="3" horiz-adv-x="1144" d="M398 807H524Q629 807 698 842T803 938T838 1072Q838 1158 808 1220T716 1315T558 1349Q473 1349 408 1316T304 1221T266 1075H114Q114 1189 170 1280T327 1423T558 1476Q688 1476 785 1430T937 1292T991 1068Q991 1008
964 945T882 829T743 743T545 710H398V807ZM398 679V774H545Q677 774 767 744T912 660T991 540T1015 401Q1015 267 956 173T795 30T561 -20Q469 -20 386 6T238 84T135 213T97 390H249Q249 306 288 243T397 144T561 108Q703 108 782 181T862 397Q862 495 820 557T702
649T524 679H398Z" />
<glyph unicode="4" horiz-adv-x="1144" d="M1102 480V353H60V442L723 1456H849L697 1186L239 480H1102ZM887 1456V0H735V1456H887Z" />
<glyph unicode="5" horiz-adv-x="1144" d="M334 706L213 739L285 1456H1023V1315H415L367 872Q406 897 473 920T626 943Q758 943 855 885T1005 719T1059 464Q1059 325 1011 216T863 43T610 -20Q523 -20 446 4T308 79T209 205T161 383H307Q324 248 402 178T610
108Q706 108 771 150T871 271T905 462Q905 560 869 637T764 759T594 805Q495 805 441 779T334 706Z" />
<glyph unicode="6" horiz-adv-x="1144" d="M829 1463H845V1331H829Q686 1331 583 1285T414 1157T317 966T285 731V523Q285 392 328 299T444 157T601 108Q693 108 758 156T857 285T892 470Q892 564 861 646T764 777T600 827Q516 827 443 788T323 683T272 540L188
542Q203 679 263 771T418 909T624 956Q767 956 859 888T997 711T1043 476Q1043 338 992 226T842 47T601 -20Q488 -20 400 25T253 148T163 323T132 527V635Q132 805 169 954T287 1218T501 1398T829 1463Z" />
<glyph unicode="7" horiz-adv-x="1144" d="M1048 1456V1370L436 0H276L886 1329H78V1456H1048Z" />
<glyph unicode="8" horiz-adv-x="1144" d="M1036 390Q1036 258 975 166T809 27T573 -20Q442 -20 337 27T171 166T110 390Q110 506 169 595T333 735T571 786Q704 786 809 735T975 595T1036 390ZM883 392Q883 479 843 545T733 648T571 685Q479 685 410 648T301 545T262
392Q262 302 300 238T409 141T573 108Q666 108 736 141T844 238T883 392ZM1000 1079Q1000 973 944 889T792 757T573 708Q449 708 352 756T200 889T145 1079Q145 1206 200 1294T352 1429T572 1476Q695 1476 791 1430T944 1295T1000 1079ZM848 1078Q848 1157 813
1218T715 1314T572 1349Q491 1349 430 1316T333 1223T298 1078Q298 997 333 938T430 845T573 812Q653 812 715 845T812 937T848 1078Z" />
<glyph unicode="9" horiz-adv-x="1144" d="M304 125H326Q485 125 589 170T752 295T835 478T859 696V910Q859 1053 818 1150T706 1298T548 1348Q454 1348 388 1298T286 1164T251 977Q251 884 283 801T380 664T540 611Q614 611 675 640T781 716T852 821T881 938H955Q955
851 922 770T829 624T691 521T518 482Q378 482 286 553T147 735T101 969Q101 1109 152 1224T304 1407T547 1476Q668 1476 755 1430T899 1303T983 1116T1010 891V800Q1010 679 993 562T933 342T812 161T615 39T326 -6H303L304 125Z" />
<glyph unicode=":" horiz-adv-x="541" d="M153 691Q153 641 187 608T270 574Q319 574 353 608T388 691Q388 740 354 774T271 809Q222 809 188 775T153 691ZM153 118Q153 68 187 35T270 1Q319 1 353 35T388 118Q388 167 354 201T271 236Q222 236 188 202T153 118Z" />
<glyph unicode=";" horiz-adv-x="416" d="M122 1020Q122 970 156 937T240 903Q288 903 322 937T357 1020Q357 1069 323 1104T240 1139Q191 1139 157 1104T122 1020ZM297 205V60Q297 -31 255 -124T139 -282L51 -219Q82 -176 103 -133T136 -43T147 57V205H297Z" />
<glyph unicode="&lt;" horiz-adv-x="1044" d="M179 675L897 374V213L75 592V688L179 675ZM897 929L180 626L75 615V713L897 1091V929Z" />
<glyph unicode="=" horiz-adv-x="1109" d="M966 266V390H155V266H966ZM966 644V769H155V644H966Z" />
<glyph unicode="&gt;" horiz-adv-x="1067" d="M863 637L130 935V1093L979 715V617L863 637ZM130 372L865 675L979 691V593L130 214V372Z" />
<glyph unicode="?" horiz-adv-x="949" d="M520 408H367Q368 498 384 558T437 669T536 782Q586 832 625 875T689 971T713 1096Q713 1208 654 1274T480 1341Q378 1341 306 1284T232 1115H80Q82 1229 135 1310T278 1433T480 1476Q665 1476 765 1374T866 1100Q866
1010 833 937T744 799T622 672Q563 619 542 552T520 408ZM355 82Q355 122 380 149T450 176Q496 176 521 149T547 82Q547 44 522 17T450 -10Q405 -10 380 17T355 82Z" />
<glyph unicode="@" horiz-adv-x="1855" d="M1744 508Q1740 415 1716 322T1645 151T1524 26T1345 -21Q1211 -21 1146 72T1095 321L1146 883H1270L1219 321Q1213 244 1224 197T1259 125T1309 91T1361 82Q1446 82 1504 139T1595 292T1633 508Q1645 759 1579 939T1363
1217T973 1314Q761 1314 600 1209T346 917T242 478Q233 291 272 140T396 -120T608 -287T900 -345Q988 -345 1078 -324T1230 -267L1265 -364Q1196 -408 1092 -430T896 -453Q643 -453 465 -340T197 -18T119 478Q128 686 192 859T369 1159T634 1356T977 1426Q1239
1426 1413 1314T1672 996T1744 508ZM690 423Q680 324 696 252T752 141T856 101Q901 101 950 127T1042 215T1114 385L1171 318Q1124 152 1029 66T822 -21Q725 -21 662 34T572 190T557 423Q573 597 636 724T792 920T991 990Q1096 990 1155 958T1270 883L1193 800Q1163
831 1116 855T1002 879Q926 879 860 829T750 677T690 423Z" />
<glyph unicode="A" horiz-adv-x="1308" d="M686 1348L193 0H30L583 1456H691L686 1348ZM1117 0L623 1348L618 1456H726L1280 0H1117ZM1059 527V395H264V527H1059Z" />
<glyph unicode="B" horiz-adv-x="1266" d="M687 691H298L296 820H640Q783 820 865 886T947 1074Q947 1204 869 1264T630 1324H335V0H177V1456H630Q854 1456 980 1364T1106 1072Q1106 982 1063 910T943 792T760 733L687 691ZM678 0H240L326 131H678Q827 131 910
207T994 413Q994 495 962 557T861 655T687 691H422L424 820H792L824 774Q926 764 999 714T1111 586T1151 415Q1151 214 1021 107T678 0Z" />
<glyph unicode="C" horiz-adv-x="1332" d="M1070 459H1228Q1213 316 1148 209T968 41T684 -20Q516 -20 391 63T196 296T126 646V809Q126 1010 195 1160T393 1393T697 1476Q857 1476 970 1417T1148 1250T1228 995H1070Q1048 1159 962 1251T697 1344Q565 1344 473
1278T332 1092T284 811V646Q284 495 328 374T462 182T684 111Q810 111 889 151T1011 269T1070 459Z" />
<glyph unicode="D" horiz-adv-x="1343" d="M573 0H256L258 131H573Q729 131 838 199T1004 389T1062 673V785Q1062 953 1004 1073T840 1259T587 1324H250V1456H587Q773 1456 915 1373T1138 1139T1218 783V673Q1218 467 1138 317T913 83T573 0ZM335 1456V0H177V1456H335Z" />
<glyph unicode="E" horiz-adv-x="1165" d="M1092 131V0H297V131H1092ZM335 1456V0H177V1456H335ZM990 817V685H297V817H990ZM1085 1456V1324H297V1456H1085Z" />
<glyph unicode="F" horiz-adv-x="1142" d="M335 1456V0H177V1456H335ZM979 794V661H294V794H979ZM1079 1456V1324H294V1456H1079Z" />
<glyph unicode="G" horiz-adv-x="1398" d="M1240 709V183Q1214 145 1154 98T991 15T730 -20Q556 -20 421 62T210 296T134 659V803Q134 1012 202 1162T399 1394T709 1476Q874 1476 985 1419T1160 1263T1240 1038H1082Q1068 1121 1027 1190T908 1302T709 1344Q571
1344 479 1278T340 1090T293 805V659Q293 490 347 368T500 178T731 111Q838 111 908 130T1021 177T1083 228V578H719V709H1240Z" />
<glyph unicode="H" horiz-adv-x="1455" d="M1142 817V685H306V817H1142ZM335 1456V0H177V1456H335ZM1276 1456V0H1118V1456H1276Z" />
<glyph unicode="I" horiz-adv-x="551" d="M356 1456V0H197V1456H356Z" />
<glyph unicode="J" horiz-adv-x="1129" d="M804 429V1456H962V429Q962 284 904 184T744 32T512 -20Q380 -20 279 26T120 166T62 403H221Q221 255 299 183T512 111Q594 111 660 147T765 254T804 429Z" />
<glyph unicode="K" horiz-adv-x="1289" d="M335 1456V0H177V1456H335ZM1225 1456L608 783L280 451L258 623L513 896L1031 1456H1225ZM1080 0L505 729L599 855L1270 0H1080Z" />
<glyph unicode="L" horiz-adv-x="1092" d="M1040 131V0H298V131H1040ZM335 1456V0H177V1456H335Z" />
<glyph unicode="M" horiz-adv-x="1780" d="M227 1456H382L890 222L1397 1456H1553L949 0H829L227 1456ZM177 1456H314L334 602V0H177V1456ZM1465 1456H1603V0H1445V602L1465 1456Z" />
<glyph unicode="N" horiz-adv-x="1458" d="M1279 1456V0H1120L335 1183V0H177V1456H335L1122 271V1456H1279Z" />
<glyph unicode="O" horiz-adv-x="1398" d="M1275 790V666Q1275 455 1204 301T1004 64T700 -20Q530 -20 400 63T196 301T123 666V790Q123 1001 195 1155T398 1392T698 1476Q873 1476 1003 1393T1204 1155T1275 790ZM1119 666V792Q1119 964 1069 1086T925 1274T698
1340Q570 1340 476 1275T331 1087T280 792V666Q280 492 331 369T477 181T700 116Q834 116 927 181T1070 369T1119 666Z" />
<glyph unicode="P" horiz-adv-x="1277" d="M693 582H291V713H693Q815 713 890 752T1001 860T1036 1015Q1036 1097 1001 1167T891 1281T693 1324H335V0H177V1456H693Q856 1456 967 1400T1136 1245T1194 1017Q1194 880 1137 783T968 634T693 582Z" />
<glyph unicode="Q" horiz-adv-x="1398" d="M911 141L1262 -151L1155 -250L807 39L911 141ZM1269 790V666Q1269 455 1198 301T998 64T694 -20Q523 -20 393 63T189 301T116 666V790Q116 1001 188 1155T391 1392T692 1476Q867 1476 996 1393T1197 1155T1269 790ZM1112
666V792Q1112 964 1063 1086T919 1274T692 1340Q563 1340 470 1275T325 1087T273 792V666Q273 492 325 369T471 181T694 116Q827 116 920 181T1063 369T1112 666Z" />
<glyph unicode="R" horiz-adv-x="1282" d="M176 1456H653Q811 1456 923 1407T1095 1261T1155 1023Q1155 922 1113 839T996 699T817 617L769 598H290L288 730H670Q779 730 851 770T961 877T998 1023Q998 1161 913 1242T653 1324H334V0H176V1456ZM1050 0L685 656L852
657L1219 13V0H1050Z" />
<glyph unicode="S" horiz-adv-x="1215" d="M977 363Q977 437 945 489T831 584T605 667Q460 709 354 763T189 897T131 1090Q131 1203 193 1290T366 1426T623 1476Q782 1476 895 1416T1068 1256T1129 1039H972Q972 1127 932 1196T815 1304T623 1344Q512 1344 438
1311T326 1220T289 1092Q289 1027 325 976T442 884T655 806Q815 762 922 704T1082 563T1136 365Q1136 247 1072 161T895 27T632 -20Q533 -20 436 6T260 87T133 224T85 419H242Q242 336 275 278T364 182T489 128T632 111Q739 111 816 142T935 230T977 363Z" />
<glyph unicode="T" horiz-adv-x="1223" d="M690 1456V0H534V1456H690ZM1174 1456V1324H51V1456H1174Z" />
<glyph unicode="U" horiz-adv-x="1337" d="M1033 1456H1191V471Q1191 307 1120 198T931 35T670 -20Q524 -20 406 34T220 198T151 471V1456H308V471Q308 350 354 270T482 151T670 111Q778 111 859 150T987 270T1033 471V1456Z" />
<glyph unicode="V" horiz-adv-x="1284" d="M640 201L1084 1456H1255L715 0H590L640 201ZM202 1456L643 201L695 0H570L31 1456H202Z" />
<glyph unicode="W" horiz-adv-x="1827" d="M553 413L856 1456H975L895 1099L571 0H454L553 413ZM220 1456L468 428L543 0H424L61 1456H220ZM1375 428L1619 1456H1778L1416 0H1298L1375 428ZM991 1456L1288 413L1387 0H1270L954 1099L873 1456H991Z" />
<glyph unicode="X" horiz-adv-x="1269" d="M256 1456L636 870L1016 1456H1202L731 737L1215 0H1028L636 602L244 0H57L541 737L70 1456H256Z" />
<glyph unicode="Y" horiz-adv-x="1228" d="M203 1456L613 694L1025 1456H1205L692 546V0H533V546L20 1456H203Z" />
<glyph unicode="Z" horiz-adv-x="1226" d="M1142 131V0H148V131H1142ZM1110 1342L187 0H89V119L1010 1456H1110V1342ZM1042 1456V1324H109V1456H1042Z" />
<glyph unicode="[" horiz-adv-x="517" d="M508 1537V1663H164V-311H508V-184H308V1537H508Z" />
<glyph unicode="\" horiz-adv-x="824" d="M653 -125L45 1456H192L800 -125H653Z" />
<glyph unicode="]" horiz-adv-x="517" d="M5 1663V1537H207V-184H5V-311H350V1663H5Z" />
<glyph unicode="^" horiz-adv-x="854" d="M437 1286L215 729H71L370 1456H466L437 1286ZM633 729L412 1286L382 1456H479L777 729H633Z" />
<glyph unicode="_" horiz-adv-x="904" d="M902 0V-127H3V0H902Z" />
<glyph unicode="`" horiz-adv-x="609" d="M265 1536L456 1249H322L80 1536H265Z" />
<glyph unicode="a" horiz-adv-x="1106" d="M797 190V747Q797 853 733 915T544 977Q467 977 408 951T316 880T282 783H129Q129 863 182 936T330 1055T552 1102Q669 1102 758 1063T898 944T949 745V232Q949 177 958 117T985 14V0H825Q812 34 805 88T797 190ZM827
643L829 532H618Q447 532 353 476T258 312Q258 230 316 173T483 115Q575 115 646 151T761 244T815 360L880 280Q870 235 838 183T752 85T627 10T463 -20Q355 -20 275 21T150 134T105 294Q105 461 237 552T595 643H827Z" />
<glyph unicode="b" horiz-adv-x="1143" d="M148 1536H301V210L289 0H148V1536ZM1043 551V530Q1043 370 994 246T851 51T625 -20Q492 -20 401 38T259 202T191 447V626Q209 771 260 878T402 1043T623 1102Q758 1102 851 1034T994 841T1043 551ZM889 530V551Q889
668 860 763T764 915T589 972Q511 972 455 946T362 876T301 779T267 672V396Q284 323 323 258T428 152T591 111Q696 111 761 167T858 318T889 530Z" />
<glyph unicode="c" horiz-adv-x="1064" d="M565 108Q636 108 697 135T798 215T843 339H989Q984 239 926 158T773 28T565 -20Q408 -20 304 53T147 249T94 520V562Q94 711 146 833T304 1029T565 1102Q686 1102 780 1053T929 917T989 714H843Q838 791 802 849T704
941T565 975Q446 975 377 915T277 761T246 562V520Q246 415 276 321T376 167T565 108Z" />
<glyph unicode="d" horiz-adv-x="1147" d="M842 210V1536H995V0H854L842 210ZM102 530V551Q102 717 154 841T301 1033T525 1102Q656 1102 745 1044T887 878T956 626V447Q941 307 890 202T747 39T523 -20Q396 -20 301 51T154 246T102 530ZM255 551V530Q255 413
287 318T386 167T557 111Q655 111 719 150T823 254T881 396V672Q870 725 847 778T787 875T693 945T559 972Q454 972 387 916T287 764T255 551Z" />
<glyph unicode="e" horiz-adv-x="1073" d="M583 -20Q437 -20 327 47T154 234T92 507V549Q92 722 158 845T331 1035T560 1102Q706 1102 803 1036T948 854T996 589V511H183V638H844V652Q841 733 811 807T720 928T560 975Q467 975 396 923T285 776T245 549V507Q245
397 287 306T407 161T590 107Q687 107 758 144T884 254L978 181Q925 101 831 41T583 -20Z" />
<glyph unicode="f" horiz-adv-x="695" d="M390 0H238V1206Q238 1376 327 1466T575 1557Q606 1557 639 1553T703 1541L693 1415Q670 1420 644 1422T588 1425Q495 1425 443 1368T390 1206V0ZM634 1082V962H62V1082H634Z" />
<glyph unicode="g" horiz-adv-x="1143" d="M855 1082H995V21Q995 -121 940 -222T784 -376T549 -429Q488 -429 415 -410T275 -350T160 -243L242 -151Q309 -232 384 -267T538 -302Q681 -302 762 -220T843 14V844L855 1082ZM103 530V551Q103 717 154 841T299 1033T525
1102Q624 1102 698 1069T826 973T911 823T957 626V447Q941 307 890 202T748 39T523 -20Q394 -20 300 51T154 246T103 530ZM256 551V530Q256 413 287 318T385 167T557 111Q654 111 719 150T822 254T880 396V672Q869 725 847 778T787 875T693 945T559 972Q453 972
386 916T288 764T256 551Z" />
<glyph unicode="h" horiz-adv-x="1126" d="M301 1536V0H149V1536H301ZM266 595L201 612Q206 750 261 861T412 1037T636 1102Q744 1102 821 1063T941 936T983 707V0H830V708Q830 807 802 864T721 947T594 972Q517 972 457 939T354 851T290 729T266 595Z" />
<glyph unicode="i" horiz-adv-x="479" d="M316 1082V0H163V1082H316ZM146 1382Q146 1421 170 1448T241 1476Q287 1476 312 1449T338 1382Q338 1344 313 1317T241 1290Q195 1290 171 1317T146 1382Z" />
<glyph unicode="j" horiz-adv-x="479" d="M156 1082H309V-129Q309 -278 238 -357T26 -437Q1 -437 -30 -432T-85 -419L-84 -294Q-65 -299 -41 -302T4 -306Q77 -306 116 -264T156 -129V1082ZM136 1382Q136 1421 161 1448T232 1476Q278 1476 303 1449T328 1382Q328
1344 303 1317T232 1290Q186 1290 161 1317T136 1382Z" />
<glyph unicode="k" horiz-adv-x="1021" d="M302 1536V0H149V1536H302ZM972 1082L483 579L243 337L227 495L408 701L783 1082H972ZM835 0L416 539L497 673L1016 0H835Z" />
<glyph unicode="l" horiz-adv-x="479" d="M316 1536V0H163V1536H316Z" />
<glyph unicode="m" horiz-adv-x="1806" d="M298 863V0H145V1082H290L298 863ZM268 595L196 612Q200 750 251 861T397 1037T630 1102Q785 1102 882 1013T979 721V0H827V714Q827 810 796 866T710 947T580 972Q493 972 434 939T338 851T285 729T268 595ZM978 693L875
673Q880 785 931 883T1076 1041T1304 1102Q1418 1102 1498 1061T1621 934T1663 708V0H1510V710Q1510 813 1479 869T1393 949T1263 972Q1193 972 1140 948T1052 883T998 793T978 693Z" />
<glyph unicode="n" horiz-adv-x="1129" d="M301 851V0H149V1082H294L301 851ZM266 595L201 612Q206 750 261 861T412 1037T636 1102Q744 1102 821 1063T941 936T983 707V0H830V708Q830 807 802 864T721 947T594 972Q517 972 457 939T354 851T290 729T266 595Z" />
<glyph unicode="o" horiz-adv-x="1158" d="M92 527V555Q92 712 152 835T321 1030T578 1102Q728 1102 837 1031T1007 836T1067 555V527Q1067 370 1007 247T838 52T580 -20Q431 -20 322 51T152 246T92 527ZM244 555V527Q244 414 282 319T395 166T580 108Q690 108
764 165T876 318T914 527V555Q914 666 876 761T763 916T578 975Q469 975 395 916T282 762T244 555Z" />
<glyph unicode="p" horiz-adv-x="1143" d="M301 874V-416H148V1082H289L301 874ZM1041 551V530Q1041 370 993 246T851 51T625 -20Q491 -20 398 36T252 194T183 432V626Q201 771 254 878T399 1043T622 1102Q757 1102 850 1034T992 841T1041 551ZM888 530V551Q888
668 856 763T755 915T582 972Q504 972 448 946T354 876T293 779T259 672V383Q279 310 318 247T422 146T584 108Q688 108 755 165T855 317T888 530Z" />
<glyph unicode="q" horiz-adv-x="1153" d="M841 -416V874L853 1082H994V-416H841ZM102 530V551Q102 717 152 841T298 1033T527 1102Q659 1102 749 1044T893 878T964 626V447Q949 307 897 202T752 39T525 -20Q393 -20 298 51T153 246T102 530ZM255 551V530Q255
413 287 318T387 165T559 108Q657 108 723 148T829 253T888 396V672Q877 725 854 778T792 876T696 948T561 975Q456 975 388 918T288 764T255 551Z" />
<glyph unicode="r" horiz-adv-x="692" d="M301 908V0H149V1082H297L301 908ZM662 1089L660 948Q638 952 619 953T575 955Q480 955 416 913T318 799T277 636L229 612Q229 748 266 859T382 1036T581 1102Q603 1102 627 1098T662 1089Z" />
<glyph unicode="s" horiz-adv-x="1048" d="M788 282Q788 324 768 362T691 433T519 489Q399 514 313 552T181 649T135 797Q135 880 183 949T319 1060T526 1102Q654 1102 744 1058T883 939T932 771H779Q779 847 714 911T526 975Q441 975 389 949T312 884T288 801Q288
757 309 724T387 665T557 613Q689 583 773 542T899 439T940 292Q940 200 890 130T748 20T532 -20Q392 -20 295 28T148 154T98 319H251Q256 239 299 193T406 127T532 108Q616 108 672 131T758 194T788 282Z" />
<glyph unicode="t" horiz-adv-x="665" d="M580 1082V962H16V1082H580ZM215 1352H367V266Q367 201 385 168T433 124T497 113Q522 113 547 117T589 124L592 -2Q570 -9 535 -14T457 -20Q389 -20 334 6T247 96T215 267V1352Z" />
<glyph unicode="u" horiz-adv-x="1127" d="M827 250V1082H980V0H833L827 250ZM855 464L924 466Q924 326 882 217T747 44T500 -20Q341 -20 243 74T145 387V1082H297V385Q297 279 328 219T410 135T521 111Q646 111 719 159T823 288T855 464Z" />
<glyph unicode="v" horiz-adv-x="989" d="M473 141L794 1082H951L554 0H448L473 141ZM193 1082L521 137L541 0H435L36 1082H193Z" />
<glyph unicode="w" horiz-adv-x="1542" d="M436 222L705 1082H809L772 882L494 0H392L436 222ZM207 1082L440 215L473 0H367L53 1082H207ZM1104 220L1329 1082H1482L1168 0H1063L1104 220ZM831 1082L1095 234L1143 0H1042L757 884L721 1082H831Z" />
<glyph unicode="x" horiz-adv-x="1007" d="M235 1082L500 667L766 1082H946L585 550L959 0H782L502 432L223 0H45L418 550L59 1082H235Z" />
<glyph unicode="y" horiz-adv-x="971" d="M461 110L781 1082H944L498 -170Q484 -209 461 -254T402 -342T313 -410T186 -437Q166 -437 134 -432T88 -422L87 -297Q97 -299 116 -300T143 -302Q240 -302 292 -258T378 -116L461 110ZM194 1082L507 198L547 38L436 -21L27
1082H194Z" />
<glyph unicode="z" horiz-adv-x="1007" d="M943 128V0H146V128H943ZM906 972L182 0H89V113L810 1082H906V972ZM839 1082V954H102V1082H839Z" />
<glyph unicode="{" horiz-adv-x="685" d="M635 1597L668 1500Q541 1461 491 1362T441 1132V915Q441 818 403 739T283 613T66 566V668Q184 668 236 735T288 915V1132Q288 1237 319 1328T426 1489T635 1597ZM669 -287L635 -385Q502 -346 427 -277T320 -117T288 79V295Q288
409 236 476T66 543V645Q200 645 282 599T403 473T441 295V79Q441 -51 492 -148T669 -287Z" />
<glyph unicode="|" horiz-adv-x="477" d="M303 1456V-270H177V1456H303Z" />
<glyph unicode="}" horiz-adv-x="685" d="M16 1500L49 1597Q183 1559 258 1490T365 1329T396 1132V915Q396 802 448 735T617 668V573Q484 573 402 617T281 740T243 915V1132Q243 1262 193 1361T16 1500ZM49 -385L15 -287Q141 -246 192 -149T243 79V295Q243 393
281 470T401 593T617 638V543Q500 543 448 476T396 295V79Q396 -26 365 -117T259 -277T49 -385Z" />
<glyph unicode="~" horiz-adv-x="1398" d="M1131 771L1259 772Q1259 674 1221 593T1113 462T949 413Q861 413 795 449T651 554Q594 606 549 633T448 660Q366 660 320 604T273 444L138 443Q138 543 176 622T283 749T448 796Q536 796 604 758T746 654Q806 599 851
574T949 548Q1032 548 1081 609T1131 771Z" />
<glyph unicode="&#xa0;" horiz-adv-x="550" />
<glyph unicode="&#xa1;" horiz-adv-x="477" d="M163 -360L173 687H312L322 -360H163ZM332 1009Q332 970 308 943T236 916Q191 916 166 943T140 1009Q140 1048 165 1075T236 1102Q283 1102 307 1075T332 1009Z" />
<glyph unicode="&#xa2;" horiz-adv-x="1118" d="M654 1318V1040H500V1318H654ZM654 32V-245H500V32H654ZM584 108Q655 108 716 135T817 215T862 339H1008Q1003 239 944 158T791 28T584 -20Q427 -20 322 53T165 249T112 520V562Q112 711 165 833T323 1029T584 1102Q705
1102 799 1053T948 917T1008 714H862Q857 791 821 849T723 941T584 975Q465 975 396 915T296 761T265 562V520Q265 415 295 321T395 167T584 108Z" />
<glyph unicode="&#xa3;" horiz-adv-x="1181" d="M1111 0H96V131H1111V0ZM754 634H92V765H754V634ZM414 1039L435 386Q437 287 410 207T330 86L184 131Q219 141 240 183T269 281T278 385L256 1039Q256 1177 311 1274T462 1424T681 1476Q873 1476 978 1369T1084
1088H926Q926 1180 890 1236T796 1319T669 1345Q558 1345 486 1266T414 1039Z" />
<glyph unicode="&#xa4;" horiz-adv-x="1471" d="M285 608Q285 508 320 420T418 265T562 160T738 122Q831 122 913 160T1057 264T1154 419T1189 608Q1189 709 1154 796T1057 950T913 1054T738 1092Q644 1092 562 1055T418 951T321 797T285 608ZM142 608Q142 741
188 855T317 1054T507 1186T738 1234Q861 1234 968 1187T1158 1054T1286 855T1332 608Q1332 475 1286 361T1158 162T969 28T738 -20Q615 -20 507 28T317 161T189 361T142 608ZM1373 1152L1171 946L1062 1059L1264 1265L1373 1152ZM418 180L216 -26L107 86L309 291L418
180ZM1264 -27L1062 179L1171 291L1373 86L1264 -27ZM309 946L107 1152L216 1264L418 1058L309 946Z" />
<glyph unicode="&#xa5;" horiz-adv-x="1067" d="M950 722V614H115V722H950ZM950 430V323H115V430H950ZM497 684L870 1456H1045L606 610H501L497 684ZM198 1456L573 679L564 610H460L20 1456H198ZM608 752V0H451V752H608Z" />
<glyph unicode="&#xa6;" horiz-adv-x="469" d="M306 -270H154V512H306V-270ZM306 1456V698H154V1456H306Z" />
<glyph unicode="&#xa7;" horiz-adv-x="1248" d="M696 120V219Q831 219 905 278T980 428Q980 496 946 542T829 628T600 710Q458 748 357 796T202 920T148 1116Q148 1225 207 1306T374 1432T628 1477Q853 1477 981 1366T1110 1046H957Q957 1130 919 1199T808 1308T628
1349Q459 1349 380 1281T300 1118Q300 1047 329 1001T437 919T661 842Q810 802 915 753T1076 629T1132 431Q1132 286 1013 203T696 120ZM522 863V764Q385 764 320 704T255 553Q255 481 286 435T399 351T634 271Q779 231 880 184T1034 62T1088 -134Q1088 -305 958
-400T610 -495Q515 -495 424 -473T259 -401T141 -268T97 -64L249 -62Q249 -148 281 -207T367 -301T483 -351T610 -367Q765 -367 850 -301T935 -136Q935 -70 904 -25T794 58T575 136Q429 175 323 225T160 352T103 551Q103 694 216 778T522 863Z" />
<glyph unicode="&#xa8;" horiz-adv-x="869" d="M119 1383Q119 1423 144 1450T215 1478Q261 1478 286 1451T311 1383Q311 1346 286 1319T215 1292Q169 1292 144 1319T119 1383ZM554 1382Q554 1422 578 1449T649 1476Q695 1476 720 1449T746 1382Q746 1344 721 1317T649
1290Q603 1290 579 1317T554 1382Z" />
<glyph unicode="&#xa9;" horiz-adv-x="1623" d="M999 603H1121Q1121 446 1034 368T798 289Q643 289 551 396T458 676V782Q458 954 550 1061T798 1169Q946 1169 1034 1091T1122 856H1000Q1000 963 948 1011T798 1059Q727 1059 679 1024T605 925T580 783V676Q580
555 636 477T798 398Q896 398 947 446T999 603ZM200 729Q200 593 247 475T379 269T573 132T810 82Q936 82 1046 131T1240 269T1371 475T1418 729Q1418 866 1371 983T1240 1187T1046 1324T810 1373Q684 1373 574 1324T379 1188T248 983T200 729ZM100 729Q100 888
155 1024T308 1261T534 1419T810 1476Q957 1476 1085 1420T1311 1262T1464 1024T1519 729Q1519 570 1464 434T1312 196T1086 36T810 -21Q663 -21 535 36T308 195T155 434T100 729Z" />
<glyph unicode="&#xaa;" horiz-adv-x="912" d="M611 862V1202Q611 1277 575 1317T468 1358Q389 1358 344 1327T298 1234L163 1244Q163 1345 246 1411T468 1477Q593 1477 670 1408T747 1201V887Q747 838 753 794T773 706H634Q611 780 611 862ZM645 1145L646 1048H487Q387
1048 338 1012T288 918Q288 868 322 838T431 808Q478 808 524 830T602 883T633 944L652 847Q637 813 604 777T520 716T401 692Q281 692 217 752T152 914Q152 1023 236 1084T486 1145H645Z" />
<glyph unicode="&#xab;" horiz-adv-x="903" d="M436 48Q343 173 296 263T248 437Q248 520 295 610T436 825L357 901Q239 760 179 651T119 437Q119 334 179 224T357 -28L436 48ZM779 48Q686 173 639 263T591 437Q591 520 638 610T779 825L700 901Q582 761 523 651T463
437Q463 334 522 224T700 -28L779 48Z" />
<glyph unicode="&#xac;" horiz-adv-x="1126" d="M947 789V654H126V789H947ZM947 721V381H795V721H947Z" />
<glyph unicode="&#xad;" horiz-adv-x="576" d="M795 456V581H146V456H795Z" />
<glyph unicode="&#xae;" horiz-adv-x="1626" d="M838 661H610L608 771H821Q890 772 942 806T994 907Q994 986 952 1020T800 1054H652V319H532V1163H800Q947 1163 1030 1100T1113 912Q1113 830 1059 775T906 692Q903 692 900 687T893 682Q876 672 872 668T863 662T838
661ZM828 661L846 740Q995 740 1049 675T1104 512V462Q1104 425 1108 392T1121 335V319H997Q987 345 986 393T984 463V511Q984 589 949 625T828 661ZM197 729Q197 593 244 475T376 269T570 132T807 82Q933 82 1043 131T1237 269T1368 475T1415 729Q1415 866 1368
983T1237 1187T1043 1324T807 1373Q681 1373 571 1324T376 1188T245 983T197 729ZM97 729Q97 888 152 1024T305 1261T531 1419T807 1476Q954 1476 1082 1420T1308 1262T1461 1024T1516 729Q1516 570 1461 434T1309 196T1083 36T807 -21Q660 -21 532 36T305 195T152
434T97 729Z" />
<glyph unicode="&#xaf;" horiz-adv-x="907" d="M785 1443V1323H140V1443H785Z" />
<glyph unicode="&#xb0;" horiz-adv-x="770" d="M137 1222Q137 1292 171 1349T263 1442T387 1477Q455 1477 511 1442T600 1350T634 1222Q634 1152 601 1095T511 1004T388 970Q320 970 263 1003T172 1094T137 1222ZM244 1222Q244 1161 286 1121T388 1080Q447 1080
487 1120T527 1222Q527 1284 487 1325T388 1367Q328 1367 286 1326T244 1222Z" />
<glyph unicode="&#xb1;" horiz-adv-x="1091" d="M1007 843V715H91V843H1007ZM630 1267V289H491V1267H630ZM968 127V1H133V127H968Z" />
<glyph unicode="&#xb2;" horiz-adv-x="745" d="M675 775V666H91V758L379 1035Q451 1102 479 1149T508 1234Q508 1289 472 1323T367 1358Q284 1358 244 1316T203 1211H71Q71 1281 106 1339T206 1431T364 1466Q492 1466 566 1405T640 1235Q640 1157 588 1091T452
946L258 775H675Z" />
<glyph unicode="&#xb3;" horiz-adv-x="745" d="M267 1117H348Q430 1117 471 1151T513 1239Q513 1289 477 1323T363 1358Q298 1358 255 1328T211 1246H80Q80 1314 117 1363T218 1439T361 1466Q488 1466 566 1409T644 1244Q644 1191 612 1147T519 1076T370 1049H267V1117ZM267
1019V1087H370Q469 1087 533 1063T628 993T660 884Q660 775 575 715T363 655Q289 655 221 679T110 756T67 888H199Q199 834 245 799T366 763Q445 763 486 798T528 890Q528 959 479 989T348 1019H267Z" />
<glyph unicode="&#xb4;" horiz-adv-x="609" d="M124 1249L317 1536H500L251 1249H124Z" />
<glyph unicode="&#xb5;" horiz-adv-x="1151" d="M841 1082H993V0H855L841 250V1082ZM866 503L931 505Q931 354 893 235T774 48T561 -21Q482 -21 418 2T309 79T239 221L213 455H310Q310 312 343 237T432 135T552 107Q680 107 748 158T841 300T866 503ZM159 1082H310V-416H159V1082Z"
/>
<glyph unicode="&#xb6;" horiz-adv-x="988" d="M817 0H664V520H568Q409 520 299 580T133 747T76 988Q76 1122 132 1228T299 1395T568 1456H817V0Z" />
<glyph unicode="&#xb7;" horiz-adv-x="519" d="M156 723Q156 764 181 792T255 821Q303 821 329 793T355 723Q355 683 329 656T255 628Q207 628 182 655T156 723Z" />
<glyph unicode="&#xb8;" horiz-adv-x="504" d="M153 0H266L254 -59Q314 -68 363 -105T413 -231Q413 -322 336 -378T114 -435L107 -342Q155 -342 197 -331T265 -296T291 -233Q291 -179 250 -159T123 -131L153 0Z" />
<glyph unicode="&#xb9;" horiz-adv-x="745" d="M480 1456V666H349V1298L125 1235V1345L464 1456H480Z" />
<glyph unicode="&#xba;" horiz-adv-x="928" d="M129 1038V1128Q129 1281 219 1379T462 1477Q617 1477 706 1379T795 1128V1038Q795 886 707 789T464 691Q309 691 219 788T129 1038ZM265 1128V1038Q265 941 313 875T464 809Q562 809 611 875T660 1038V1128Q660
1224 611 1291T462 1358Q362 1358 314 1291T265 1128Z" />
<glyph unicode="&#xbb;" horiz-adv-x="903" d="M468 48L546 -28Q665 114 724 224T784 437Q784 541 725 650T546 901L468 825Q561 700 607 610T654 437Q654 354 608 264T468 48ZM125 48L203 -28Q322 113 381 223T440 437Q440 541 381 651T203 901L125 825Q218 700
264 610T311 437Q311 354 265 264T125 48Z" />
<glyph unicode="&#xbc;" horiz-adv-x="1492" d="M455 1454V664H324V1295L100 1232V1342L439 1454H455ZM1141 1262L430 124L340 181L1051 1319L1141 1262ZM1412 288V179H777L772 263L1160 789H1264L1141 584L908 288H1412ZM1295 789V0H1164V789H1295Z" />
<glyph unicode="&#xbd;" horiz-adv-x="1569" d="M1097 1262L386 124L296 181L1007 1319L1097 1262ZM445 1454V664H314V1295L90 1232V1342L429 1454H445ZM1459 108V0H875V92L1163 369Q1235 436 1263 483T1292 567Q1292 623 1256 657T1151 692Q1068 692 1028 650T987
545H855Q855 615 890 673T990 765T1148 800Q1276 800 1350 738T1424 569Q1424 491 1372 425T1236 280L1042 108H1459Z" />
<glyph unicode="&#xbe;" horiz-adv-x="1591" d="M1277 1262L566 124L476 181L1187 1319L1277 1262ZM1516 288V179H881L876 263L1264 789H1368L1245 584L1012 288H1516ZM1399 789V0H1268V789H1399ZM315 1117H396Q478 1117 519 1151T561 1238Q561 1289 525 1323T411
1358Q346 1358 303 1328T259 1246H128Q128 1313 165 1362T266 1439T409 1466Q536 1466 614 1409T692 1244Q692 1191 660 1147T567 1076T418 1049H315V1117ZM315 1018V1087H418Q517 1087 581 1063T676 993T708 884Q708 775 623 715T411 655Q337 655 269 679T158
755T115 888H247Q247 834 293 799T414 763Q493 763 534 798T576 890Q576 959 527 988T396 1018H315Z" />
<glyph unicode="&#xbf;" horiz-adv-x="956" d="M417 684H570Q569 593 555 538T508 435T412 324Q366 276 325 231T257 130T231 -4Q231 -122 294 -186T474 -250Q576 -250 646 -191T719 -20H871Q870 -135 817 -217T675 -342T474 -385Q286 -385 182 -285T78 -8Q78
85 113 163T205 307T325 435Q365 471 384 508T410 589T417 684ZM582 1009Q582 971 557 944T487 916Q441 916 416 943T390 1009Q390 1048 415 1075T487 1102Q532 1102 557 1075T582 1009Z" />
<glyph unicode="&#xc0;" horiz-adv-x="1308" d="M686 1348L193 0H30L583 1456H691L686 1348ZM1117 0L623 1348L618 1456H726L1280 0H1117ZM1059 527V395H264V527H1059ZM555 1849L746 1562H612L370 1849H555Z" />
<glyph unicode="&#xc1;" horiz-adv-x="1308" d="M686 1348L193 0H30L583 1456H691L686 1348ZM1117 0L623 1348L618 1456H726L1280 0H1117ZM1059 527V395H264V527H1059ZM571 1562L764 1849H947L698 1562H571Z" />
<glyph unicode="&#xc2;" horiz-adv-x="1308" d="M686 1348L193 0H30L583 1456H691L686 1348ZM1117 0L623 1348L618 1456H726L1280 0H1117ZM1059 527V395H264V527H1059ZM704 1844L948 1579V1569H816L657 1745L499 1569H369V1581L610 1844H704Z" />
<glyph unicode="&#xc3;" horiz-adv-x="1308" d="M686 1348L193 0H30L583 1456H691L686 1348ZM1117 0L623 1348L618 1456H726L1280 0H1117ZM1059 527V395H264V527H1059ZM898 1822L1006 1814Q1006 1745 978 1694T904 1614T800 1585Q748 1585 715 1600T655 1636T599
1672T527 1688Q483 1688 453 1656T422 1573L315 1578Q315 1646 342 1697T416 1778T520 1808Q565 1808 598 1793T661 1757T721 1721T793 1705Q837 1705 867 1738T898 1822Z" />
<glyph unicode="&#xc4;" horiz-adv-x="1308" d="M686 1348L193 0H30L583 1456H691L686 1348ZM1117 0L623 1348L618 1456H726L1280 0H1117ZM1059 527V395H264V527H1059ZM346 1696Q346 1736 371 1763T442 1791Q488 1791 513 1764T538 1696Q538 1659 513 1632T442
1605Q396 1605 371 1632T346 1696ZM781 1695Q781 1735 805 1762T876 1789Q922 1789 947 1762T973 1695Q973 1657 948 1630T876 1603Q830 1603 806 1630T781 1695Z" />
<glyph unicode="&#xc5;" horiz-adv-x="1308" d="M686 1348L193 0H30L583 1456H691L686 1348ZM1117 0L623 1348L618 1456H726L1280 0H1117ZM1059 527V395H264V527H1059ZM453 1723Q453 1806 512 1864T657 1923Q743 1923 802 1865T861 1723Q861 1639 802 1584T657
1528Q571 1528 512 1583T453 1723ZM541 1723Q541 1677 573 1643T657 1608Q708 1608 741 1642T774 1723Q774 1772 741 1807T657 1842Q606 1842 574 1807T541 1723Z" />
<glyph unicode="&#xc6;" horiz-adv-x="1890" d="M968 1332L188 0H1L882 1456H984L968 1332ZM1087 516V371H368V516H1087ZM1852 128V0H1119V128H1852ZM1093 1456L1154 0H1001L940 1456H1093ZM1709 822V695H1079V822H1709ZM1790 1456V1329H1058V1456H1790Z" />
<glyph unicode="&#xc7;" horiz-adv-x="1332" d="M1070 459H1228Q1213 316 1148 209T968 41T684 -20Q516 -20 391 63T196 296T126 646V809Q126 1010 195 1160T393 1393T697 1476Q857 1476 970 1417T1148 1250T1228 995H1070Q1048 1159 962 1251T697 1344Q565 1344
473 1278T332 1092T284 811V646Q284 495 328 374T462 182T684 111Q810 111 889 151T1011 269T1070 459ZM628 -10H741L729 -69Q789 -78 838 -115T888 -241Q888 -332 811 -388T589 -445L582 -352Q630 -352 672 -341T740 -306T766 -243Q766 -189 725 -169T598 -141L628
-10Z" />
<glyph unicode="&#xc8;" horiz-adv-x="1165" d="M1092 131V0H297V131H1092ZM335 1456V0H177V1456H335ZM990 817V685H297V817H990ZM1085 1456V1324H297V1456H1085ZM517 1857L708 1570H574L332 1857H517Z" />
<glyph unicode="&#xc9;" horiz-adv-x="1165" d="M1092 131V0H297V131H1092ZM335 1456V0H177V1456H335ZM990 817V685H297V817H990ZM1085 1456V1324H297V1456H1085ZM533 1570L726 1857H909L660 1570H533Z" />
<glyph unicode="&#xca;" horiz-adv-x="1165" d="M1092 131V0H297V131H1092ZM335 1456V0H177V1456H335ZM990 817V685H297V817H990ZM1085 1456V1324H297V1456H1085ZM666 1852L910 1587V1577H778L619 1753L461 1577H331V1589L572 1852H666Z" />
<glyph unicode="&#xcb;" horiz-adv-x="1165" d="M1092 131V0H297V131H1092ZM335 1456V0H177V1456H335ZM990 817V685H297V817H990ZM1085 1456V1324H297V1456H1085ZM308 1704Q308 1744 333 1771T404 1799Q450 1799 475 1772T500 1704Q500 1667 475 1640T404 1613Q358
1613 333 1640T308 1704ZM743 1703Q743 1743 767 1770T838 1797Q884 1797 909 1770T935 1703Q935 1665 910 1638T838 1611Q792 1611 768 1638T743 1703Z" />
<glyph unicode="&#xcc;" horiz-adv-x="551" d="M356 1456V0H197V1456H356ZM175 1857L366 1570H232L-10 1857H175Z" />
<glyph unicode="&#xcd;" horiz-adv-x="551" d="M356 1456V0H197V1456H356ZM190 1570L383 1857H566L317 1570H190Z" />
<glyph unicode="&#xce;" horiz-adv-x="551" d="M356 1456V0H197V1456H356ZM324 1852L568 1587V1577H436L277 1753L119 1577H-11V1589L230 1852H324Z" />
<glyph unicode="&#xcf;" horiz-adv-x="551" d="M356 1456V0H197V1456H356ZM-34 1704Q-34 1744 -9 1771T62 1799Q108 1799 133 1772T158 1704Q158 1667 133 1640T62 1613Q16 1613 -9 1640T-34 1704ZM401 1703Q401 1743 425 1770T496 1797Q542 1797 567 1770T593
1703Q593 1665 568 1638T496 1611Q450 1611 426 1638T401 1703Z" />
<glyph unicode="&#xd0;" horiz-adv-x="1373" d="M603 0H286L288 131H603Q759 131 868 199T1034 389T1092 673V785Q1092 953 1034 1073T870 1259T617 1324H280V1456H617Q803 1456 945 1373T1168 1139T1248 783V673Q1248 467 1168 317T943 83T603 0ZM365 1456V0H207V1456H365ZM675
805V677H50V805H675Z" />
<glyph unicode="&#xd1;" horiz-adv-x="1458" d="M1279 1456V0H1120L335 1183V0H177V1456H335L1122 271V1456H1279ZM967 1822L1075 1814Q1075 1745 1047 1694T973 1614T869 1585Q817 1585 784 1600T724 1636T668 1672T596 1688Q552 1688 522 1656T491 1573L384
1578Q384 1646 411 1697T485 1778T589 1808Q634 1808 667 1793T730 1757T790 1721T862 1705Q906 1705 936 1738T967 1822Z" />
<glyph unicode="&#xd2;" horiz-adv-x="1398" d="M1275 790V666Q1275 455 1204 301T1004 64T700 -20Q530 -20 400 63T196 301T123 666V790Q123 1001 195 1155T398 1392T698 1476Q873 1476 1003 1393T1204 1155T1275 790ZM1119 666V792Q1119 964 1069 1086T925 1274T698
1340Q570 1340 476 1275T331 1087T280 792V666Q280 492 331 369T477 181T700 116Q834 116 927 181T1070 369T1119 666ZM598 1856L789 1569H655L413 1856H598Z" />
<glyph unicode="&#xd3;" horiz-adv-x="1398" d="M1275 790V666Q1275 455 1204 301T1004 64T700 -20Q530 -20 400 63T196 301T123 666V790Q123 1001 195 1155T398 1392T698 1476Q873 1476 1003 1393T1204 1155T1275 790ZM1119 666V792Q1119 964 1069 1086T925 1274T698
1340Q570 1340 476 1275T331 1087T280 792V666Q280 492 331 369T477 181T700 116Q834 116 927 181T1070 369T1119 666ZM613 1569L806 1856H989L740 1569H613Z" />
<glyph unicode="&#xd4;" horiz-adv-x="1398" d="M1275 790V666Q1275 455 1204 301T1004 64T700 -20Q530 -20 400 63T196 301T123 666V790Q123 1001 195 1155T398 1392T698 1476Q873 1476 1003 1393T1204 1155T1275 790ZM1119 666V792Q1119 964 1069 1086T925 1274T698
1340Q570 1340 476 1275T331 1087T280 792V666Q280 492 331 369T477 181T700 116Q834 116 927 181T1070 369T1119 666ZM747 1851L991 1586V1576H859L700 1752L542 1576H412V1588L653 1851H747Z" />
<glyph unicode="&#xd5;" horiz-adv-x="1398" d="M1275 790V666Q1275 455 1204 301T1004 64T700 -20Q530 -20 400 63T196 301T123 666V790Q123 1001 195 1155T398 1392T698 1476Q873 1476 1003 1393T1204 1155T1275 790ZM1119 666V792Q1119 964 1069 1086T925 1274T698
1340Q570 1340 476 1275T331 1087T280 792V666Q280 492 331 369T477 181T700 116Q834 116 927 181T1070 369T1119 666ZM940 1829L1048 1821Q1048 1752 1020 1701T946 1621T842 1592Q790 1592 757 1607T697 1643T641 1679T569 1695Q525 1695 495 1663T464 1580L357
1585Q357 1653 384 1704T458 1785T562 1815Q607 1815 640 1800T703 1764T763 1728T835 1712Q879 1712 909 1745T940 1829Z" />
<glyph unicode="&#xd6;" horiz-adv-x="1398" d="M1275 790V666Q1275 455 1204 301T1004 64T700 -20Q530 -20 400 63T196 301T123 666V790Q123 1001 195 1155T398 1392T698 1476Q873 1476 1003 1393T1204 1155T1275 790ZM1119 666V792Q1119 964 1069 1086T925 1274T698
1340Q570 1340 476 1275T331 1087T280 792V666Q280 492 331 369T477 181T700 116Q834 116 927 181T1070 369T1119 666ZM389 1703Q389 1743 414 1770T485 1798Q531 1798 556 1771T581 1703Q581 1666 556 1639T485 1612Q439 1612 414 1639T389 1703ZM824 1702Q824
1742 848 1769T919 1796Q965 1796 990 1769T1016 1702Q1016 1664 991 1637T919 1610Q873 1610 849 1637T824 1702Z" />
<glyph unicode="&#xd7;" horiz-adv-x="1004" d="M413 515L146 243L234 152L502 425L770 152L858 243L591 515L856 786L769 877L502 606L235 877L148 786L413 515Z" />
<glyph unicode="&#xd8;" horiz-adv-x="1398" d="M1292 1511L291 -88H167L1170 1511H1292ZM1275 790V666Q1275 455 1204 301T1004 64T700 -20Q530 -20 400 63T196 301T123 666V790Q123 1001 195 1155T398 1392T698 1476Q873 1476 1003 1393T1204 1155T1275 790ZM1119
666V792Q1119 964 1069 1086T925 1274T698 1340Q570 1340 476 1275T331 1087T280 792V666Q280 492 331 369T477 181T700 116Q834 116 927 181T1070 369T1119 666Z" />
<glyph unicode="&#xd9;" horiz-adv-x="1337" d="M1033 1456H1191V471Q1191 307 1120 198T931 35T670 -20Q524 -20 406 34T220 198T151 471V1456H308V471Q308 350 354 270T482 151T670 111Q778 111 859 150T987 270T1033 471V1456ZM573 1849L764 1562H630L388 1849H573Z" />
<glyph unicode="&#xda;" horiz-adv-x="1337" d="M1033 1456H1191V471Q1191 307 1120 198T931 35T670 -20Q524 -20 406 34T220 198T151 471V1456H308V471Q308 350 354 270T482 151T670 111Q778 111 859 150T987 270T1033 471V1456ZM588 1562L781 1849H964L715 1562H588Z" />
<glyph unicode="&#xdb;" horiz-adv-x="1337" d="M1033 1456H1191V471Q1191 307 1120 198T931 35T670 -20Q524 -20 406 34T220 198T151 471V1456H308V471Q308 350 354 270T482 151T670 111Q778 111 859 150T987 270T1033 471V1456ZM722 1844L966 1579V1569H834L675
1745L517 1569H387V1581L628 1844H722Z" />
<glyph unicode="&#xdc;" horiz-adv-x="1337" d="M1033 1456H1191V471Q1191 307 1120 198T931 35T670 -20Q524 -20 406 34T220 198T151 471V1456H308V471Q308 350 354 270T482 151T670 111Q778 111 859 150T987 270T1033 471V1456ZM364 1696Q364 1736 389 1763T460
1791Q506 1791 531 1764T556 1696Q556 1659 531 1632T460 1605Q414 1605 389 1632T364 1696ZM799 1695Q799 1735 823 1762T894 1789Q940 1789 965 1762T991 1695Q991 1657 966 1630T894 1603Q848 1603 824 1630T799 1695Z" />
<glyph unicode="&#xdd;" horiz-adv-x="1228" d="M203 1456L613 694L1025 1456H1205L692 546V0H533V546L20 1456H203ZM529 1559L722 1846H905L656 1559H529Z" />
<glyph unicode="&#xde;" horiz-adv-x="1212" d="M175 1456H328V0H175V1456ZM250 1158H629Q784 1158 890 1104T1052 954T1107 738Q1107 618 1052 523T891 374T629 319H287V446H629Q745 446 816 488T921 598T954 736Q954 810 921 877T817 988T629 1031H321L250 1158Z" />
<glyph unicode="&#xdf;" horiz-adv-x="1209" d="M298 1120V0H146V1120Q146 1332 249 1440T523 1549Q625 1549 706 1514T835 1407T883 1227Q883 1149 864 1097T820 1005T776 922T757 822Q757 766 793 722T882 637T988 551T1077 448T1113 312Q1113 201 1062 127T924
17T733 -20Q678 -20 618 -9T507 19T430 56L468 185Q504 160 574 133T716 106Q798 106 852 133T934 207T961 308Q961 368 925 413T836 499T730 585T641 687T605 824Q605 889 625 936T671 1025T717 1111T737 1216Q737 1282 710 1327T636 1398T533 1423Q424 1423 361
1351T298 1120Z" />
<glyph unicode="&#xe0;" horiz-adv-x="1106" d="M797 190V747Q797 853 733 915T544 977Q467 977 408 951T316 880T282 783H129Q129 863 182 936T330 1055T552 1102Q669 1102 758 1063T898 944T949 745V232Q949 177 958 117T985 14V0H825Q812 34 805 88T797 190ZM827
643L829 532H618Q447 532 353 476T258 312Q258 230 316 173T483 115Q575 115 646 151T761 244T815 360L880 280Q870 235 838 183T752 85T627 10T463 -20Q355 -20 275 21T150 134T105 294Q105 461 237 552T595 643H827ZM479 1536L670 1249H536L294 1536H479Z" />
<glyph unicode="&#xe1;" horiz-adv-x="1106" d="M797 190V747Q797 853 733 915T544 977Q467 977 408 951T316 880T282 783H129Q129 863 182 936T330 1055T552 1102Q669 1102 758 1063T898 944T949 745V232Q949 177 958 117T985 14V0H825Q812 34 805 88T797 190ZM827
643L829 532H618Q447 532 353 476T258 312Q258 230 316 173T483 115Q575 115 646 151T761 244T815 360L880 280Q870 235 838 183T752 85T627 10T463 -20Q355 -20 275 21T150 134T105 294Q105 461 237 552T595 643H827ZM495 1249L688 1536H871L622 1249H495Z" />
<glyph unicode="&#xe2;" horiz-adv-x="1106" d="M797 190V747Q797 853 733 915T544 977Q467 977 408 951T316 880T282 783H129Q129 863 182 936T330 1055T552 1102Q669 1102 758 1063T898 944T949 745V232Q949 177 958 117T985 14V0H825Q812 34 805 88T797 190ZM827
643L829 532H618Q447 532 353 476T258 312Q258 230 316 173T483 115Q575 115 646 151T761 244T815 360L880 280Q870 235 838 183T752 85T627 10T463 -20Q355 -20 275 21T150 134T105 294Q105 461 237 552T595 643H827ZM628 1531L872 1266V1256H740L581 1432L423
1256H293V1268L534 1531H628Z" />
<glyph unicode="&#xe3;" horiz-adv-x="1106" d="M797 190V747Q797 853 733 915T544 977Q467 977 408 951T316 880T282 783H129Q129 863 182 936T330 1055T552 1102Q669 1102 758 1063T898 944T949 745V232Q949 177 958 117T985 14V0H825Q812 34 805 88T797 190ZM827
643L829 532H618Q447 532 353 476T258 312Q258 230 316 173T483 115Q575 115 646 151T761 244T815 360L880 280Q870 235 838 183T752 85T627 10T463 -20Q355 -20 275 21T150 134T105 294Q105 461 237 552T595 643H827ZM822 1509L930 1501Q930 1432 902 1381T828
1301T724 1272Q672 1272 639 1287T579 1323T523 1359T451 1375Q407 1375 377 1343T346 1260L239 1265Q239 1333 266 1384T340 1465T444 1495Q489 1495 522 1480T585 1444T645 1408T717 1392Q761 1392 791 1425T822 1509Z" />
<glyph unicode="&#xe4;" horiz-adv-x="1106" d="M797 190V747Q797 853 733 915T544 977Q467 977 408 951T316 880T282 783H129Q129 863 182 936T330 1055T552 1102Q669 1102 758 1063T898 944T949 745V232Q949 177 958 117T985 14V0H825Q812 34 805 88T797 190ZM827
643L829 532H618Q447 532 353 476T258 312Q258 230 316 173T483 115Q575 115 646 151T761 244T815 360L880 280Q870 235 838 183T752 85T627 10T463 -20Q355 -20 275 21T150 134T105 294Q105 461 237 552T595 643H827ZM270 1383Q270 1423 295 1450T366 1478Q412
1478 437 1451T462 1383Q462 1346 437 1319T366 1292Q320 1292 295 1319T270 1383ZM705 1382Q705 1422 729 1449T800 1476Q846 1476 871 1449T897 1382Q897 1344 872 1317T800 1290Q754 1290 730 1317T705 1382Z" />
<glyph unicode="&#xe5;" horiz-adv-x="1106" d="M797 190V747Q797 853 733 915T544 977Q467 977 408 951T316 880T282 783H129Q129 863 182 936T330 1055T552 1102Q669 1102 758 1063T898 944T949 745V232Q949 177 958 117T985 14V0H825Q812 34 805 88T797 190ZM827
643L829 532H618Q447 532 353 476T258 312Q258 230 316 173T483 115Q575 115 646 151T761 244T815 360L880 280Q870 235 838 183T752 85T627 10T463 -20Q355 -20 275 21T150 134T105 294Q105 461 237 552T595 643H827ZM377 1410Q377 1493 436 1551T581 1610Q667
1610 726 1552T785 1410Q785 1326 726 1271T581 1215Q495 1215 436 1270T377 1410ZM465 1410Q465 1364 497 1330T581 1295Q632 1295 665 1329T698 1410Q698 1459 665 1494T581 1529Q530 1529 498 1494T465 1410Z" />
<glyph unicode="&#xe6;" horiz-adv-x="1731" d="M765 183V720Q765 839 706 907T532 975Q406 975 334 913T262 763L111 778Q111 872 163 945T311 1060T532 1102Q703 1102 808 1006T914 718V218L765 183ZM802 635V516H528Q431 516 366 485T268 404T235 295Q235 213
292 160T464 106Q523 106 581 126T687 179T765 246T798 312L883 201Q857 151 800 100T652 14T438 -21Q266 -21 175 66T83 299Q83 456 195 545T526 635H802ZM1264 -21Q1106 -21 996 48T829 238T772 515V564Q772 722 832 844T994 1034T1228 1102Q1436 1102 1548 975T1660
627V518H855V638H1507V669Q1507 753 1479 822T1389 933T1228 975Q1130 975 1061 920T954 771T917 564V515Q917 403 953 310T1066 162T1264 107Q1380 107 1456 143T1584 220L1640 107Q1615 85 1567 55T1444 2T1264 -21Z" />
<glyph unicode="&#xe7;" horiz-adv-x="1064" d="M565 108Q636 108 697 135T798 215T843 339H989Q984 239 926 158T773 28T565 -20Q408 -20 304 53T147 249T94 520V562Q94 711 146 833T304 1029T565 1102Q686 1102 780 1053T929 917T989 714H843Q838 791 802 849T704
941T565 975Q446 975 377 915T277 761T246 562V520Q246 415 276 321T376 167T565 108ZM485 -10H598L586 -69Q646 -78 695 -115T745 -241Q745 -332 668 -388T446 -445L439 -352Q487 -352 529 -341T597 -306T623 -243Q623 -189 582 -169T455 -141L485 -10Z" />
<glyph unicode="&#xe8;" horiz-adv-x="1073" d="M583 -20Q437 -20 327 47T154 234T92 507V549Q92 722 158 845T331 1035T560 1102Q706 1102 803 1036T948 854T996 589V511H183V638H844V652Q841 733 811 807T720 928T560 975Q467 975 396 923T285 776T245 549V507Q245
397 287 306T407 161T590 107Q687 107 758 144T884 254L978 181Q925 101 831 41T583 -20ZM464 1536L655 1249H521L279 1536H464Z" />
<glyph unicode="&#xe9;" horiz-adv-x="1073" d="M583 -20Q437 -20 327 47T154 234T92 507V549Q92 722 158 845T331 1035T560 1102Q706 1102 803 1036T948 854T996 589V511H183V638H844V652Q841 733 811 807T720 928T560 975Q467 975 396 923T285 776T245 549V507Q245
397 287 306T407 161T590 107Q687 107 758 144T884 254L978 181Q925 101 831 41T583 -20ZM479 1249L672 1536H855L606 1249H479Z" />
<glyph unicode="&#xea;" horiz-adv-x="1073" d="M583 -20Q437 -20 327 47T154 234T92 507V549Q92 722 158 845T331 1035T560 1102Q706 1102 803 1036T948 854T996 589V511H183V638H844V652Q841 733 811 807T720 928T560 975Q467 975 396 923T285 776T245 549V507Q245
397 287 306T407 161T590 107Q687 107 758 144T884 254L978 181Q925 101 831 41T583 -20ZM613 1531L857 1266V1256H725L566 1432L408 1256H278V1268L519 1531H613Z" />
<glyph unicode="&#xeb;" horiz-adv-x="1073" d="M583 -20Q437 -20 327 47T154 234T92 507V549Q92 722 158 845T331 1035T560 1102Q706 1102 803 1036T948 854T996 589V511H183V638H844V652Q841 733 811 807T720 928T560 975Q467 975 396 923T285 776T245 549V507Q245
397 287 306T407 161T590 107Q687 107 758 144T884 254L978 181Q925 101 831 41T583 -20ZM255 1383Q255 1423 280 1450T351 1478Q397 1478 422 1451T447 1383Q447 1346 422 1319T351 1292Q305 1292 280 1319T255 1383ZM690 1382Q690 1422 714 1449T785 1476Q831
1476 856 1449T882 1382Q882 1344 857 1317T785 1290Q739 1290 715 1317T690 1382Z" />
<glyph unicode="&#xec;" horiz-adv-x="482" d="M315 1082V0H162V1082H315ZM396 1785L587 1498H453L211 1785H396Z" />
<glyph unicode="&#xed;" horiz-adv-x="482" d="M315 1082V0H162V1082H315ZM155 1498L348 1785H531L282 1498H155Z" />
<glyph unicode="&#xee;" horiz-adv-x="482" d="M315 1082V0H162V1082H315ZM289 1524L533 1259V1249H401L242 1425L84 1249H-46V1261L195 1524H289Z" />
<glyph unicode="&#xef;" horiz-adv-x="482" d="M315 1082V0H162V1082H315ZM-69 1376Q-69 1416 -44 1443T27 1471Q73 1471 98 1444T123 1376Q123 1339 98 1312T27 1285Q-19 1285 -44 1312T-69 1376ZM366 1375Q366 1415 390 1442T461 1469Q507 1469 532 1442T558
1375Q558 1337 533 1310T461 1283Q415 1283 391 1310T366 1375Z" />
<glyph unicode="&#xf0;" horiz-adv-x="1197" d="M276 1448L324 1580Q550 1522 716 1394T972 1074T1063 629V535Q1063 371 1005 246T844 50T609 -20Q470 -20 364 45T198 221T138 467Q138 622 194 735T350 910T581 972Q694 972 786 921T934 787T990 606L931 604Q931
641 912 682T853 760T754 820T614 843Q508 843 436 796T328 665T291 467Q291 379 328 297T438 162T613 109Q705 109 771 164T874 316T910 535V631Q910 814 861 950T724 1184T521 1346T276 1448ZM989 1416L468 1076L406 1163L927 1502L989 1416Z" />
<glyph unicode="&#xf1;" horiz-adv-x="1129" d="M301 851V0H149V1082H294L301 851ZM266 595L201 612Q206 750 261 861T412 1037T636 1102Q744 1102 821 1063T941 936T983 707V0H830V708Q830 807 802 864T721 947T594 972Q517 972 457 939T354 851T290 729T266
595ZM815 1508L923 1500Q923 1431 895 1380T821 1300T717 1271Q665 1271 632 1286T572 1322T516 1358T444 1374Q400 1374 370 1342T339 1259L232 1264Q232 1332 259 1383T333 1464T437 1494Q482 1494 515 1479T578 1443T638 1407T710 1391Q754 1391 784 1424T815
1508Z" />
<glyph unicode="&#xf2;" horiz-adv-x="1158" d="M92 527V555Q92 712 152 835T321 1030T578 1102Q728 1102 837 1031T1007 836T1067 555V527Q1067 370 1007 247T838 52T580 -20Q431 -20 322 51T152 246T92 527ZM244 555V527Q244 414 282 319T395 166T580 108Q690
108 764 165T876 318T914 527V555Q914 666 876 761T763 916T578 975Q469 975 395 916T282 762T244 555ZM471 1535L662 1248H528L286 1535H471Z" />
<glyph unicode="&#xf3;" horiz-adv-x="1158" d="M92 527V555Q92 712 152 835T321 1030T578 1102Q728 1102 837 1031T1007 836T1067 555V527Q1067 370 1007 247T838 52T580 -20Q431 -20 322 51T152 246T92 527ZM244 555V527Q244 414 282 319T395 166T580 108Q690
108 764 165T876 318T914 527V555Q914 666 876 761T763 916T578 975Q469 975 395 916T282 762T244 555ZM487 1248L680 1535H863L614 1248H487Z" />
<glyph unicode="&#xf4;" horiz-adv-x="1158" d="M92 527V555Q92 712 152 835T321 1030T578 1102Q728 1102 837 1031T1007 836T1067 555V527Q1067 370 1007 247T838 52T580 -20Q431 -20 322 51T152 246T92 527ZM244 555V527Q244 414 282 319T395 166T580 108Q690
108 764 165T876 318T914 527V555Q914 666 876 761T763 916T578 975Q469 975 395 916T282 762T244 555ZM620 1786L864 1521V1511H732L573 1687L415 1511H285V1523L526 1786H620Z" />
<glyph unicode="&#xf5;" horiz-adv-x="1158" d="M92 527V555Q92 712 152 835T321 1030T578 1102Q728 1102 837 1031T1007 836T1067 555V527Q1067 370 1007 247T838 52T580 -20Q431 -20 322 51T152 246T92 527ZM244 555V527Q244 414 282 319T395 166T580 108Q690
108 764 165T876 318T914 527V555Q914 666 876 761T763 916T578 975Q469 975 395 916T282 762T244 555ZM814 1508L922 1500Q922 1431 894 1380T820 1300T716 1271Q664 1271 631 1286T571 1322T515 1358T443 1374Q399 1374 369 1342T338 1259L231 1264Q231 1332
258 1383T332 1464T436 1494Q481 1494 514 1479T577 1443T637 1407T709 1391Q753 1391 783 1424T814 1508Z" />
<glyph unicode="&#xf6;" horiz-adv-x="1158" d="M92 527V555Q92 712 152 835T321 1030T578 1102Q728 1102 837 1031T1007 836T1067 555V527Q1067 370 1007 247T838 52T580 -20Q431 -20 322 51T152 246T92 527ZM244 555V527Q244 414 282 319T395 166T580 108Q690
108 764 165T876 318T914 527V555Q914 666 876 761T763 916T578 975Q469 975 395 916T282 762T244 555ZM262 1382Q262 1422 287 1449T358 1477Q404 1477 429 1450T454 1382Q454 1345 429 1318T358 1291Q312 1291 287 1318T262 1382ZM697 1381Q697 1421 721 1448T792
1475Q838 1475 863 1448T889 1381Q889 1343 864 1316T792 1289Q746 1289 722 1316T697 1381Z" />
<glyph unicode="&#xf7;" horiz-adv-x="1151" d="M477 202Q477 158 507 129T579 99Q621 99 651 129T682 201Q682 244 652 274T579 305Q538 305 508 275T477 202ZM477 839Q477 795 507 766T579 736Q621 736 651 766T682 838Q682 881 652 911T579 942Q538 942 508
912T477 839ZM146 460H1004V585H146V460Z" />
<glyph unicode="&#xf8;" horiz-adv-x="1151" d="M970 1212L307 -137H199L862 1212H970ZM91 527V555Q91 712 151 835T320 1030T577 1102Q728 1102 837 1031T1006 836T1066 555V527Q1066 370 1007 247T838 52T579 -20Q430 -20 321 51T151 246T91 527ZM243 555V527Q243
414 281 319T394 166T579 108Q689 108 763 165T875 318T913 527V555Q913 666 875 761T763 916T577 975Q468 975 394 916T281 762T243 555Z" />
<glyph unicode="&#xf9;" horiz-adv-x="1127" d="M827 250V1082H980V0H833L827 250ZM855 464L924 466Q924 326 882 217T747 44T500 -20Q341 -20 243 74T145 387V1082H297V385Q297 279 328 219T410 135T521 111Q646 111 719 159T823 288T855 464ZM469 1536L660 1249H526L284
1536H469Z" />
<glyph unicode="&#xfa;" horiz-adv-x="1127" d="M827 250V1082H980V0H833L827 250ZM855 464L924 466Q924 326 882 217T747 44T500 -20Q341 -20 243 74T145 387V1082H297V385Q297 279 328 219T410 135T521 111Q646 111 719 159T823 288T855 464ZM484 1249L677 1536H860L611
1249H484Z" />
<glyph unicode="&#xfb;" horiz-adv-x="1127" d="M827 250V1082H980V0H833L827 250ZM855 464L924 466Q924 326 882 217T747 44T500 -20Q341 -20 243 74T145 387V1082H297V385Q297 279 328 219T410 135T521 111Q646 111 719 159T823 288T855 464ZM618 1531L862 1266V1256H730L571
1432L413 1256H283V1268L524 1531H618Z" />
<glyph unicode="&#xfc;" horiz-adv-x="1127" d="M827 250V1082H980V0H833L827 250ZM855 464L924 466Q924 326 882 217T747 44T500 -20Q341 -20 243 74T145 387V1082H297V385Q297 279 328 219T410 135T521 111Q646 111 719 159T823 288T855 464ZM260 1383Q260 1423
285 1450T356 1478Q402 1478 427 1451T452 1383Q452 1346 427 1319T356 1292Q310 1292 285 1319T260 1383ZM695 1382Q695 1422 719 1449T790 1476Q836 1476 861 1449T887 1382Q887 1344 862 1317T790 1290Q744 1290 720 1317T695 1382Z" />
<glyph unicode="&#xfd;" horiz-adv-x="971" d="M461 110L781 1082H944L498 -170Q484 -209 461 -254T402 -342T313 -410T186 -437Q166 -437 134 -432T88 -422L87 -297Q97 -299 116 -300T143 -302Q240 -302 292 -258T378 -116L461 110ZM194 1082L507 198L547 38L436
-21L27 1082H194ZM425 1249L618 1536H801L552 1249H425Z" />
<glyph unicode="&#xfe;" horiz-adv-x="1165" d="M307 1536V-416H154V1536H307ZM1048 551V530Q1048 370 999 246T857 51T631 -20Q497 -20 405 36T259 194T190 432V626Q208 771 261 878T406 1043T629 1102Q764 1102 857 1034T999 841T1048 551ZM895 530V551Q895
668 863 763T762 915T588 972Q510 972 454 946T361 876T300 779T266 672V383Q286 310 325 247T429 146T590 108Q695 108 762 165T862 317T895 530Z" />
<glyph unicode="&#xff;" horiz-adv-x="971" d="M461 110L781 1082H944L498 -170Q484 -209 461 -254T402 -342T313 -410T186 -437Q166 -437 134 -432T88 -422L87 -297Q97 -299 116 -300T143 -302Q240 -302 292 -258T378 -116L461 110ZM194 1082L507 198L547 38L436
-21L27 1082H194ZM200 1383Q200 1423 225 1450T296 1478Q342 1478 367 1451T392 1383Q392 1346 367 1319T296 1292Q250 1292 225 1319T200 1383ZM635 1382Q635 1422 659 1449T730 1476Q776 1476 801 1449T827 1382Q827 1344 802 1317T730 1290Q684 1290 660 1317T635
1382Z" />
<glyph unicode="&#x2013;" horiz-adv-x="1345" d="M1199 456V581H146V456H1199Z" />
<glyph unicode="&#x2014;" horiz-adv-x="1600" d="M1454 456V581H146V456H1454Z" />
<glyph unicode="&#x2018;" horiz-adv-x="388" d="M98 1097V1214Q98 1275 117 1337T171 1457T255 1556L343 1493Q297 1429 273 1363T249 1216V1097H98Z" />
<glyph unicode="&#x2019;" horiz-adv-x="388" d="M301 1536V1414Q301 1354 283 1292T229 1172T144 1072L55 1135Q102 1199 126 1265T150 1412V1536H301Z" />
<glyph unicode="&#x201a;" horiz-adv-x="381" d="M285 194V84Q285 24 266 -38T212 -158T128 -258L39 -196Q85 -131 108 -65T132 82V194H285Z" />
<glyph unicode="&#x201c;" horiz-adv-x="668" d="M103 1097V1214Q103 1275 122 1337T176 1457T260 1556L348 1493Q302 1429 278 1363T254 1216V1097H103ZM385 1097V1214Q385 1275 404 1337T458 1457T542 1556L630 1493Q584 1429 560 1363T536 1216V1097H385Z" />
<glyph unicode="&#x201d;" horiz-adv-x="675" d="M310 1536V1414Q310 1354 292 1292T238 1172T153 1072L64 1135Q111 1199 135 1265T159 1412V1536H310ZM586 1536V1414Q586 1354 568 1292T514 1172T429 1072L340 1135Q387 1199 411 1265T435 1412V1536H586Z" />
<glyph unicode="&#x201e;" horiz-adv-x="650" d="M285 242V84Q285 21 266 -44T212 -168T128 -272L39 -209Q85 -141 108 -72T132 82V242H285ZM549 242V84Q549 21 531 -44T477 -168T392 -272L304 -209Q350 -141 373 -72T397 82V242H549Z" />
<glyph unicode="&#x2022;" horiz-adv-x="677" d="M143 725V763Q143 845 195 898T337 952Q428 952 480 899T533 763V725Q533 644 481 591T338 538Q248 538 196 591T143 725Z" />
<glyph unicode="&#x2039;" horiz-adv-x="612" d="M527 947L257 549L108 550V563L403 947H527ZM257 558L527 160H403L108 544V557L257 558Z" />
<glyph unicode="&#x203a;" horiz-adv-x="612" d="M94 158L364 555L513 554V541L218 158H94ZM94 947H218L513 560V547L364 546L94 947Z" />
</font>
</defs>
</svg>
