<?xml version="1.0" standalone="no"?>
<!DOCTYPE svg PUBLIC "-//W3C//DTD SVG 1.1//EN" "http://www.w3.org/Graphics/SVG/1.1/DTD/svg11.dtd">
<svg xmlns="http://www.w3.org/2000/svg">
<defs >
<font id="Vazirmatn" horiz-adv-x="1159" ><font-face
    font-family="Vazirmatn"
    units-per-em="2048"
    panose-1="0 0 0 0 0 0 0 0 0 0"
    ascent="2100"
    descent="-1100"
    alphabetic="0" />
<glyph unicode=" " horiz-adv-x="516" />
<glyph unicode="!" horiz-adv-x="597" d="M125 169Q125 97 175 49T299 1Q371 1 422 49T473 169Q473 240 422 288T299 336Q227 336 176 288T125 169ZM162 1401L182 479H421L441 1401H162Z" />
<glyph unicode="&quot;" horiz-adv-x="652" d="M263 1537V1399L224 993H62V1386V1537H263ZM588 1537V1399L549 993H387V1395V1537H588Z" />
<glyph unicode="#" horiz-adv-x="1213" d="M215 0L469 1456H650L396 0H215ZM590 0L845 1456H1026L771 0H590ZM1175 871H134V1040H1175V871ZM1099 410H59V578H1099V410Z" />
<glyph unicode="$" horiz-adv-x="1175" d="M701 1687V1392H545V1687H701ZM682 54V-215H526V54H682ZM792 382Q792 439 772 479T706 550T583 610Q453 660 355 716T201 857T146 1072Q146 1196 205 1287T368 1427T612 1477Q753 1477 858 1422T1022 1261T1080 1007H793Q793
1128 743 1190T609 1252Q548 1252 509 1228T453 1164T435 1071Q435 1020 453 982T518 913T644 848Q774 798 872 740T1025 598T1080 384Q1080 255 1020 165T852 27T602 -21Q510 -21 419 3T254 83T136 229T92 455H380Q380 382 398 334T449 257T521 216T602 204Q666
204 707 227T770 290T792 382Z" />
<glyph unicode="%" horiz-adv-x="1514" d="M96 1099V1176Q96 1259 132 1327T238 1436T411 1477Q515 1477 585 1436T691 1327T727 1176V1099Q727 1018 692 950T586 841T413 800Q309 800 239 841T132 950T96 1099ZM287 1176V1099Q287 1064 300 1033T342 982T413
962Q455 962 482 981T522 1032T535 1099V1176Q535 1213 522 1244T481 1295T411 1315Q369 1315 342 1296T301 1245T287 1176ZM792 279V357Q792 439 828 507T935 616T1109 657Q1213 657 1283 616T1389 507T1425 357V279Q1425 197 1390 130T1284 21T1111 -20Q1007
-20 936 21T829 130T792 279ZM984 357V280Q984 244 1000 212T1044 161T1111 142Q1159 142 1186 161T1223 212T1234 280V357Q1234 411 1203 453T1109 495Q1046 495 1015 453T984 357ZM1180 1248L469 110L329 184L1040 1322L1180 1248Z" />
<glyph unicode="&amp;" horiz-adv-x="1346" d="M341 779L621 960Q683 1001 704 1039T725 1124Q725 1171 690 1211T592 1252Q524 1252 489 1208T454 1101Q454 1034 506 962T634 800L1321 0H994L434 648Q328 779 263 882T197 1097Q197 1211 246 1296T384 1429T593
1477Q706 1477 789 1431T917 1308T963 1141Q963 1073 938 1016T869 910T768 820L449 593Q412 559 393 526T367 464T360 407Q360 349 385 303T455 231T560 204Q642 204 719 240T857 344T954 505T990 710H1234Q1234 542 1184 401T1011 160Q1005 155 995 146T977 131Q881
54 777 17T545 -21Q399 -21 293 32T129 178T71 391Q71 479 105 544T201 666T341 779Z" />
<glyph unicode="&apos;" horiz-adv-x="330" d="M274 1536V1391L245 992H63L64 1376V1536H274Z" />
<glyph unicode="(" horiz-adv-x="720" d="M371 592Q371 769 405 940T509 1250T683 1466L627 1618Q513 1565 421 1463T265 1222T166 921T131 588Q131 416 165 255T264 -42T421 -280T627 -435L683 -283Q578 -205 509 -67T406 243T371 592Z" />
<glyph unicode=")" horiz-adv-x="720" d="M349 592Q349 415 315 243T212 -67T38 -283L93 -435Q208 -381 299 -280T456 -41T555 258T589 592Q589 763 555 924T456 1223T300 1463T93 1618L38 1466Q142 1389 211 1251T315 941T349 592Z" />
<glyph unicode="*" horiz-adv-x="930" d="M126 692L345 965L27 1055L87 1231L399 1107L380 1456H574L553 1100L859 1223L918 1044L595 954L807 687L650 577L466 869L283 586L126 692Z" />
<glyph unicode="+" horiz-adv-x="1125" d="M672 410H1005V630H672V974H453V630H120V410H453V38H672V410Z" />
<glyph unicode="," horiz-adv-x="504" d="M385 243L384 50Q384 -61 329 -174T188 -359L38 -282Q63 -236 87 -190T127 -89T143 36V243H385Z" />
<glyph unicode="-" horiz-adv-x="982" d="M862 409V628H120V409H862Z" />
<glyph unicode="." horiz-adv-x="611" d="M131 168Q131 96 181 48T306 0Q378 0 428 48T479 168Q479 239 429 287T306 335Q234 335 183 287T131 168Z" />
<glyph unicode="/" horiz-adv-x="759" d="M199 -125L733 1456H519L-14 -125H199Z" />
<glyph unicode="0" horiz-adv-x="1175" d="M1080 856V604Q1080 385 1019 247T847 45T589 -20Q442 -20 331 44T158 247T95 604V856Q95 1075 157 1212T329 1412T587 1476Q734 1476 845 1413T1018 1212T1080 856ZM791 566V895Q791 1026 768 1104T698 1217T587 1251Q523
1251 478 1217T408 1105T384 895V566Q384 434 408 355T478 240T589 205Q653 205 698 240T767 354T791 566Z" />
<glyph unicode="1" horiz-adv-x="1175" d="M801 1459V0H514V1127L168 1017V1244L771 1459H801Z" />
<glyph unicode="2" horiz-adv-x="1175" d="M1096 225V0H100V192L571 697Q642 776 683 836T742 945T761 1038Q761 1136 712 1194T570 1252Q504 1252 457 1220T385 1130T360 1001H71Q71 1131 133 1239T308 1412T576 1477Q806 1477 927 1367T1049 1065Q1049 969 1009
879T896 699T725 509L472 225H1096Z" />
<glyph unicode="3" horiz-adv-x="1175" d="M395 853H549Q623 853 671 878T742 950T766 1059Q766 1115 745 1158T679 1227T568 1252Q515 1252 470 1231T398 1171T371 1079H82Q82 1199 146 1288T320 1427T560 1477Q708 1477 819 1430T992 1290T1054 1062Q1054 993
1022 929T931 813T786 731T595 700H395V853ZM395 634V783H595Q714 783 804 756T955 679T1047 560T1078 408Q1078 272 1010 177T825 31T560 -20Q468 -20 380 5T220 82T106 212T63 399H352Q352 343 380 299T457 230T568 205Q672 205 730 261T789 411Q789 491 760
539T677 611T549 634H395Z" />
<glyph unicode="4" horiz-adv-x="1175" d="M1120 544V318H71L57 493L664 1456H893L645 1041L343 544H1120ZM955 1456V0H667V1456H955Z" />
<glyph unicode="5" horiz-adv-x="1175" d="M371 663L141 718L224 1456H1042V1223H461L425 900Q454 917 513 936T645 956Q786 956 885 898T1037 731T1090 467Q1090 338 1037 227T875 48T598 -20Q504 -20 417 8T260 91T149 224T105 404H391Q400 310 454 258T597
205Q671 205 715 241T780 341T801 482Q801 561 776 619T699 711T567 745Q487 745 444 720T371 663Z" />
<glyph unicode="6" horiz-adv-x="1175" d="M843 1471H885V1241H868Q754 1241 665 1207T515 1111T421 960T388 763V521Q388 417 415 347T492 241T608 205Q671 205 718 241T790 338T816 477Q816 556 791 617T717 714T601 749Q533 749 482 718T401 637T370 534L283
590Q288 692 338 779T478 920T691 973Q828 973 920 906T1058 726T1104 480Q1104 339 1044 226T873 46T614 -20Q498 -20 404 22T241 142T137 325T100 557V669Q100 845 151 991T300 1245T534 1412T843 1471Z" />
<glyph unicode="7" horiz-adv-x="1175" d="M1089 1456V1301L526 0H222L785 1231H60V1456H1089Z" />
<glyph unicode="8" horiz-adv-x="1175" d="M1081 399Q1081 262 1017 169T842 28T589 -20Q448 -20 336 27T159 168T94 399Q94 522 158 613T334 754T587 804Q729 804 841 754T1017 613T1081 399ZM791 418Q791 485 766 533T694 608T587 634Q526 634 480 608T409 534T383
418Q383 352 408 304T480 231T589 205Q651 205 696 230T766 304T791 418ZM1050 1070Q1050 959 991 874T828 740T589 692Q454 692 349 740T185 873T126 1070Q126 1202 185 1292T349 1430T587 1477Q722 1477 826 1430T990 1293T1050 1070ZM762 1057Q762 1116 741
1159T682 1227T587 1252Q533 1252 495 1229T436 1162T415 1057Q415 998 435 954T495 884T589 859Q644 859 682 884T741 953T762 1057Z" />
<glyph unicode="9" horiz-adv-x="1175" d="M304 219H323Q443 219 529 248T672 334T755 471T782 657V933Q782 1040 755 1110T681 1216T574 1251Q510 1251 466 1211T398 1105T374 965Q374 890 397 827T466 725T583 686Q634 686 674 705T743 757T787 828T803 907L898
855Q898 785 868 717T785 594T661 505T511 472Q375 472 280 537T136 713T86 962Q86 1103 146 1220T317 1407T576 1477Q687 1477 778 1434T934 1313T1034 1125T1070 883V783Q1070 641 1040 519T949 299T799 130T591 23T327 -14H304V219Z" />
<glyph unicode=":" horiz-adv-x="611" d="M131 758Q131 686 181 638T306 590Q378 590 428 638T479 758Q479 830 429 878T306 926Q234 926 183 878T131 758ZM131 169Q131 97 181 49T306 1Q378 1 428 49T479 169Q479 240 429 288T306 336Q234 336 183 288T131 169Z" />
<glyph unicode=";" horiz-adv-x="539" d="M113 993Q113 921 163 873T288 825Q360 825 410 873T461 993Q461 1064 411 1112T288 1160Q216 1160 165 1112T113 993ZM406 243L405 50Q405 -61 350 -174T209 -359L59 -282Q84 -236 108 -190T148 -89T164 36V243H406Z" />
<glyph unicode="&lt;" horiz-adv-x="1044" d="M282 644L918 414V143L54 509V701L282 644ZM918 832L281 598L54 544V736L918 1102V832Z" />
<glyph unicode="=" horiz-adv-x="1151" d="M1025 208V419H137V208H1025ZM1025 610V822H137V610H1025Z" />
<glyph unicode="&gt;" horiz-adv-x="1057" d="M760 604L119 833V1102L990 736V543L760 604ZM119 412L761 646L990 701V509L119 143V412Z" />
<glyph unicode="?" horiz-adv-x="1019" d="M603 445H348Q349 535 362 600T409 719T499 824Q546 866 581 904T636 982T656 1073Q656 1159 617 1203T500 1248Q436 1248 386 1207T335 1073H45Q48 1210 108 1299T271 1432T500 1476Q710 1476 828 1375T946 1085Q946
998 912 931T823 805T702 685Q645 634 625 578T603 445ZM318 136Q318 200 362 242T480 285Q553 285 597 243T642 136Q642 74 598 31T480 -12Q406 -12 362 31T318 136Z" />
<glyph unicode="@" horiz-adv-x="1836" d="M1749 535Q1745 433 1719 334T1641 155T1507 27T1311 -21Q1181 -21 1106 67T1041 305L1092 881H1292L1242 305Q1236 253 1243 220T1267 169T1305 144T1348 136Q1413 136 1461 188T1538 329T1570 528Q1581 750 1519 914T1319
1168T962 1258Q757 1258 608 1155T374 873T279 464Q270 282 307 143T424 -92T623 -235T896 -284Q983 -284 1073 -265T1226 -215L1264 -364Q1194 -409 1090 -431T892 -453Q627 -453 442 -347T165 -36T83 464Q92 670 157 843T338 1146T611 1346T966 1417Q1227 1417
1405 1307T1672 999T1749 535ZM739 430Q733 342 745 281T790 189T873 157Q901 157 936 176T1004 244T1059 385L1144 284Q1098 135 1010 59T805 -18Q708 -18 640 37T539 194T519 430Q538 601 604 726T769 921T986 990Q1101 990 1167 957T1292 881L1190 744Q1161
770 1115 794T1004 819Q927 819 873 775T786 644T739 430Z" />
<glyph unicode="A" horiz-adv-x="1376" d="M722 1207L326 0H7L548 1456H751L722 1207ZM1051 0L654 1207L622 1456H827L1371 0H1051ZM1033 542V307H264V542H1033Z" />
<glyph unicode="B" horiz-adv-x="1307" d="M700 639H326L324 845H638Q761 845 820 892T880 1031Q880 1132 822 1176T638 1221H430V0H130V1456H638Q892 1456 1036 1359T1180 1059Q1180 969 1140 893T1013 769T787 716L700 639ZM687 0H244L361 234H687Q804 234 859
289T914 430Q914 494 893 541T824 613T700 639H411L413 845H773L842 764Q975 766 1056 718T1175 592T1213 427Q1213 217 1077 109T687 0Z" />
<glyph unicode="C" horiz-adv-x="1340" d="M974 483H1273Q1264 336 1193 222T994 44T687 -20Q501 -20 366 65T159 306T86 677V778Q86 992 160 1149T371 1391T689 1477Q871 1477 996 1411T1191 1229T1275 965H976Q966 1097 903 1168T689 1239Q590 1239 523 1189T423
1037T389 780V677Q389 527 419 425T515 270T687 217Q781 217 842 247T935 336T974 483Z" />
<glyph unicode="D" horiz-adv-x="1331" d="M577 0H260L262 234H577Q695 234 776 287T898 444T940 693V764Q940 913 898 1015T776 1169T580 1221H254V1456H580Q775 1456 925 1369T1159 1126T1244 762V693Q1244 485 1160 330T925 87T577 0ZM430 1456V0H130V1456H430Z" />
<glyph unicode="E" horiz-adv-x="1152" d="M1107 234V0H332V234H1107ZM430 1456V0H130V1456H430ZM1006 863V635H332V863H1006ZM1106 1456V1221H332V1456H1106Z" />
<glyph unicode="F" horiz-adv-x="1124" d="M430 1456V0H130V1456H430ZM1010 834V600H348V834H1010ZM1080 1456V1221H348V1456H1080Z" />
<glyph unicode="G" horiz-adv-x="1396" d="M1284 761V184Q1250 143 1179 96T996 14T725 -20Q537 -20 395 62T174 302T95 682V773Q95 997 171 1154T384 1394T705 1477Q895 1477 1017 1416T1203 1246T1283 997H992Q981 1071 950 1126T862 1212T713 1243Q613 1243
543 1190T436 1032T399 775V682Q399 530 438 426T553 268T743 214Q814 214 861 226T938 255T984 289V547H710V761H1284Z" />
<glyph unicode="H" horiz-adv-x="1446" d="M1101 863V629H341V863H1101ZM430 1456V0H130V1456H430ZM1315 1456V0H1016V1456H1315Z" />
<glyph unicode="I" horiz-adv-x="599" d="M449 1456V0H150V1456H449Z" />
<glyph unicode="J" horiz-adv-x="1144" d="M719 447V1456H1018V447Q1018 301 954 197T780 36T531 -20Q388 -20 278 28T105 175T42 428H343Q343 308 393 261T531 214Q588 214 630 241T695 320T719 447Z" />
<glyph unicode="K" horiz-adv-x="1302" d="M430 1456V0H130V1456H430ZM1302 1456L725 737L392 379L338 663L563 971L934 1456H1302ZM961 0L532 673L754 859L1316 0H961Z" />
<glyph unicode="L" horiz-adv-x="1108" d="M1066 234V0H333V234H1066ZM430 1456V0H130V1456H430Z" />
<glyph unicode="M" horiz-adv-x="1793" d="M267 1456H521L895 387L1269 1456H1523L997 0H793L267 1456ZM130 1456H383L429 414V0H130V1456ZM1407 1456H1661V0H1361V414L1407 1456Z" />
<glyph unicode="N" horiz-adv-x="1445" d="M1315 1456V0H1015L430 976V0H130V1456H430L1016 479V1456H1315Z" />
<glyph unicode="O" horiz-adv-x="1412" d="M1326 762V693Q1326 471 1248 312T1030 66T707 -20Q525 -20 385 66T166 311T86 693V762Q86 984 165 1144T383 1390T705 1476Q888 1476 1028 1390T1247 1144T1326 762ZM1023 693V764Q1023 918 986 1023T878 1182T705 1237Q604
1237 534 1183T426 1023T389 764V693Q389 540 426 434T535 273T707 218Q809 218 879 273T986 434T1023 693Z" />
<glyph unicode="P" horiz-adv-x="1320" d="M697 519H326V753H697Q783 753 837 781T916 861T941 976Q941 1041 916 1097T837 1187T697 1221H430V0H130V1456H697Q868 1456 990 1395T1178 1225T1243 978Q1243 837 1178 734T991 575T697 519Z" />
<glyph unicode="Q" horiz-adv-x="1412" d="M921 216L1315 -96L1126 -260L738 52L921 216ZM1325 762V693Q1325 471 1247 312T1029 66T706 -20Q524 -20 384 66T164 311T84 693V762Q84 984 163 1144T382 1390T704 1476Q887 1476 1027 1390T1246 1144T1325 762ZM1022
693V764Q1022 918 985 1023T876 1182T704 1237Q602 1237 532 1183T425 1023T388 764V693Q388 540 425 434T533 273T706 218Q807 218 877 273T985 434T1022 693Z" />
<glyph unicode="R" horiz-adv-x="1312" d="M130 1456H673Q840 1456 960 1406T1146 1258T1211 1017Q1211 900 1172 817T1061 678T893 589L798 539H326L324 773H675Q754 773 806 801T884 879T911 995Q911 1100 853 1160T673 1221H430V0H130V1456ZM944 0L612 649L929
651L1265 14V0H944Z" />
<glyph unicode="S" horiz-adv-x="1261" d="M888 381Q888 434 866 472T783 545T602 616Q469 659 358 717T181 860T114 1071Q114 1192 183 1283T374 1425T653 1476Q814 1476 934 1418T1120 1259T1187 1028H889Q889 1092 863 1140T783 1217T648 1246Q570 1246 518
1222T440 1159T414 1070Q414 1021 447 983T544 914T704 853Q863 805 970 741T1133 590T1188 383Q1188 256 1123 166T939 28T660 -20Q552 -20 447 8T257 95T120 243T69 456H370Q370 388 391 341T450 265T542 223T660 209Q738 209 788 231T863 293T888 381Z" />
<glyph unicode="T" horiz-adv-x="1269" d="M781 1456V0H482V1456H781ZM1229 1456V1221H41V1456H1229Z" />
<glyph unicode="U" horiz-adv-x="1350" d="M934 1456H1233V494Q1233 326 1162 211T965 38T676 -20Q513 -20 387 38T189 211T117 494V1456H417V494Q417 396 448 334T537 243T676 214Q758 214 815 243T903 334T934 494V1456Z" />
<glyph unicode="V" horiz-adv-x="1338" d="M655 304L998 1456H1332L825 0H605L655 304ZM339 1456L681 304L733 0H511L7 1456H339Z" />
<glyph unicode="W" horiz-adv-x="1792" d="M481 231L771 1456H933L970 1252L661 0H487L481 231ZM332 1456L572 231L552 0H358L35 1456H332ZM1225 236L1462 1456H1759L1437 0H1243L1225 236ZM1024 1456L1316 226L1308 0H1134L823 1253L863 1456H1024Z" />
<glyph unicode="X" horiz-adv-x="1300" d="M377 1456L651 948L925 1456H1268L845 734L1279 0H933L651 518L369 0H21L457 734L32 1456H377Z" />
<glyph unicode="Y" horiz-adv-x="1268" d="M330 1456L634 792L938 1456H1265L786 530V0H482V530L2 1456H330Z" />
<glyph unicode="Z" horiz-adv-x="1243" d="M1183 234V0H151V234H1183ZM1168 1289L284 0H73V172L964 1456H1168V1289ZM1065 1456V1221H74V1456H1065Z" />
<glyph unicode="[" horiz-adv-x="566" d="M551 1477V1692H144V-337H551V-122H409V1477H551Z" />
<glyph unicode="\" horiz-adv-x="863" d="M606 -125L-1 1456H295L903 -125H606Z" />
<glyph unicode="]" horiz-adv-x="566" d="M12 1692V1477H155V-122H12V-337H420V1692H12Z" />
<glyph unicode="^" horiz-adv-x="897" d="M458 1214L273 729H45L344 1456H508L458 1214ZM626 729L441 1214L391 1456H555L853 729H626Z" />
<glyph unicode="_" horiz-adv-x="911" d="M909 0V-219H1V0H909Z" />
<glyph unicode="`" horiz-adv-x="676" d="M369 1536L566 1228H330L56 1536H369Z" />
<glyph unicode="a" horiz-adv-x="1096" d="M696 244V726Q696 803 658 849T535 895Q487 895 452 879T398 832T379 760H91Q91 853 147 930T307 1055T551 1102Q677 1102 775 1060T929 934T986 724V261Q986 172 997 116T1029 17V0H738Q717 44 707 110T696 244ZM734
659L736 496H575Q460 496 408 448T355 324Q355 268 393 232T496 195Q561 195 609 221T683 285T711 357L787 235Q771 194 744 150T674 68T573 5T433 -20Q330 -20 247 21T115 136T66 304Q66 473 192 566T567 659H734Z" />
<glyph unicode="b" horiz-adv-x="1152" d="M112 1536H400V248L371 0H112V1536ZM1085 552V531Q1085 370 1039 246T900 51T665 -20Q533 -20 448 50T315 242T248 518V564Q268 718 315 839T447 1031T663 1102Q805 1102 899 1032T1039 837T1085 552ZM797 531V552Q797
640 780 713T718 831T591 876Q532 876 491 856T424 800T384 715T368 606V475Q371 396 394 336T466 241T593 206Q675 206 719 248T780 364T797 531Z" />
<glyph unicode="c" horiz-adv-x="1067" d="M559 205Q612 205 653 225T717 283T742 372H1013Q1012 258 952 170T791 31T565 -20Q397 -20 287 53T121 250T66 526V555Q66 708 121 832T286 1029T563 1102Q696 1102 796 1051T954 906T1013 682H742Q741 736 720 780T658
850T558 877Q474 877 430 831T370 712T354 555V526Q354 441 370 368T430 250T559 205Z" />
<glyph unicode="d" horiz-adv-x="1153" d="M751 236V1536H1041V0H780L751 236ZM67 528V549Q67 714 116 838T260 1032T490 1102Q617 1102 702 1032T836 839T905 558V512Q886 362 837 242T702 51T488 -20Q354 -20 260 51T116 247T67 528ZM355 549V528Q355 439 375
366T440 250T561 207Q635 207 683 240T756 333T786 469V600Q783 663 769 713T727 800T659 856T563 876Q488 876 443 833T376 715T355 549Z" />
<glyph unicode="e" horiz-adv-x="1106" d="M610 -20Q442 -20 321 50T136 240T71 504V544Q71 708 132 833T307 1030T578 1102Q732 1102 838 1036T999 850T1054 572V452H194V644H771V666Q771 726 750 773T685 849T575 877Q499 877 451 834T382 716T360 544V504Q360
417 392 350T484 244T628 205Q706 205 773 235T890 328L1030 176Q979 102 873 41T610 -20Z" />
<glyph unicode="f" horiz-adv-x="733" d="M479 0H189V1178Q189 1362 296 1459T585 1557Q625 1557 662 1552T734 1538L731 1321Q712 1326 691 1328T642 1330Q564 1330 522 1291T479 1178V0ZM695 1082V878H28V1082H695Z" />
<glyph unicode="g" horiz-adv-x="1170" d="M797 1082H1058V36Q1058 -112 993 -215T810 -372T538 -426Q470 -426 395 -408T251 -352T136 -256L263 -86Q313 -144 379 -176T525 -209Q641 -209 705 -146T769 34V832L797 1082ZM69 528V549Q69 714 122 838T273 1032T507
1102Q615 1102 688 1062T808 949T881 776T923 558V512Q904 362 856 242T723 51T505 -20Q371 -20 273 51T122 247T69 528ZM357 549V528Q357 439 381 366T453 250T578 207Q657 207 707 240T782 333T811 469V600Q809 663 794 713T752 800T682 856T580 876Q505 876
456 833T382 715T357 549Z" />
<glyph unicode="h" horiz-adv-x="1147" d="M393 1536V0H105V1536H393ZM352 579H273Q274 730 325 848T468 1034T683 1102Q790 1102 870 1061T996 928T1041 684V0H751V686Q751 758 731 799T672 858T577 876Q515 876 472 853T402 790T364 695T352 579Z" />
<glyph unicode="i" horiz-adv-x="542" d="M416 1082V0H127V1082H416ZM109 1364Q109 1427 153 1468T271 1509Q344 1509 388 1468T433 1364Q433 1301 389 1260T271 1219Q197 1219 153 1260T109 1364Z" />
<glyph unicode="j" horiz-adv-x="533" d="M128 1082H417V-65Q417 -245 319 -341T45 -437Q8 -437 -27 -433T-101 -420L-100 -199Q-76 -203 -54 -205T-8 -208Q58 -208 93 -174T128 -65V1082ZM105 1364Q105 1427 149 1468T267 1509Q341 1509 385 1468T429 1364Q429
1301 385 1260T267 1219Q194 1219 150 1260T105 1364Z" />
<glyph unicode="k" horiz-adv-x="1094" d="M400 1537V0H112V1537H400ZM1082 1082L612 546L360 291L255 499L455 753L736 1082H1082ZM783 0L463 500L662 674L1115 0H783Z" />
<glyph unicode="l" horiz-adv-x="542" d="M416 1536V0H127V1536H416Z" />
<glyph unicode="m" horiz-adv-x="1774" d="M400 858V0H111V1082H382L400 858ZM359 579H280Q280 730 328 848T471 1034T704 1102Q849 1102 940 1014T1031 722V0H743V690Q743 764 723 804T667 860T579 876Q523 876 482 853T413 790T373 695T359 579ZM1004 612L901
599Q901 740 948 854T1087 1035T1317 1102Q1422 1102 1499 1062T1620 931T1663 691V0H1374V691Q1374 766 1355 805T1299 860T1212 876Q1160 876 1121 856T1056 799T1017 716T1004 612Z" />
<glyph unicode="n" horiz-adv-x="1148" d="M394 851V0H106V1082H376L394 851ZM352 579H274Q275 739 328 856T476 1038T699 1102Q801 1102 878 1063T998 933T1041 690V0H751V691Q751 763 731 803T673 859T578 876Q520 876 478 853T408 790T366 695T352 579Z" />
<glyph unicode="o" horiz-adv-x="1156" d="M66 530V551Q66 709 126 833T300 1030T577 1102Q741 1102 856 1030T1031 834T1091 551V530Q1091 372 1031 248T857 52T579 -20Q415 -20 301 51T126 247T66 530ZM354 551V530Q354 440 376 366T447 249T579 205Q660 205
709 248T780 366T802 530V551Q802 639 780 713T709 832T577 877Q496 877 447 832T376 713T354 551Z" />
<glyph unicode="p" horiz-adv-x="1152" d="M400 874V-416H112V1082H379L400 874ZM1085 553V532Q1085 374 1037 249T895 52T665 -20Q532 -20 447 50T313 239T245 507V562Q265 720 313 841T446 1032T663 1102Q801 1102 894 1034T1036 842T1085 553ZM797 532V553Q797
644 776 717T710 833T589 876Q530 876 489 857T421 802T382 716T366 603V464Q371 390 394 332T465 239T591 205Q666 205 711 249T777 368T797 532Z" />
<glyph unicode="q" horiz-adv-x="1155" d="M751 -416V861L788 1082H1041V-416H751ZM67 530V551Q67 716 116 840T259 1033T490 1102Q622 1102 706 1032T839 840T908 560V514Q888 364 840 243T707 51T488 -20Q353 -20 259 52T116 248T67 530ZM355 551V530Q355 441
375 367T440 249T561 205Q640 205 688 239T760 334T788 471V602Q785 665 772 715T732 802T664 857T563 877Q488 877 442 834T376 717T355 551Z" />
<glyph unicode="r" horiz-adv-x="750" d="M400 846V0H112V1082H383L400 846ZM726 1089L721 822Q700 825 671 827T617 830Q536 830 484 803T405 724T377 598L319 616Q319 756 356 866T463 1039T636 1102Q660 1102 685 1099T726 1089Z" />
<glyph unicode="s" horiz-adv-x="1052" d="M697 299Q697 330 679 355T613 401T473 441Q363 465 276 506T139 611T89 768Q89 858 140 934T289 1056T521 1102Q662 1102 763 1057T919 934T974 755H686Q686 818 646 860T520 903Q472 903 437 887T384 843T365 782Q365
749 384 725T448 682T568 648Q685 624 777 586T923 482T977 310Q977 215 921 140T763 23T522 -20Q371 -20 267 34T109 171T55 343H328Q330 284 358 248T431 196T528 180Q584 180 621 195T677 237T697 299Z" />
<glyph unicode="t" horiz-adv-x="693" d="M642 1082V878H12V1082H642ZM168 1349H456V326Q456 279 468 254T506 220T569 210Q596 210 617 212T654 218L655 6Q618 -6 575 -13T480 -20Q385 -20 315 11T206 113T168 297V1349Z" />
<glyph unicode="u" horiz-adv-x="1147" d="M752 259V1082H1040V0H769L752 259ZM784 481L869 483Q869 339 825 225T691 46T464 -20Q305 -20 205 74T104 383V1082H392V381Q392 318 412 279T467 224T549 207Q638 207 689 243T762 341T784 481Z" />
<glyph unicode="v" horiz-adv-x="1037" d="M480 210L720 1082H1021L656 0H474L480 210ZM315 1082L556 209L561 0H378L13 1082H315Z" />
<glyph unicode="w" horiz-adv-x="1504" d="M421 280L646 1082H829L770 767L545 0H392L421 280ZM307 1082L468 281L483 0H303L29 1082H307ZM1035 294L1192 1082H1471L1197 0H1018L1035 294ZM854 1082L1078 286L1109 0H955L730 766L673 1082H854Z" />
<glyph unicode="x" horiz-adv-x="1042" d="M344 1082L523 753L707 1082H1014L708 553L1028 0H720L525 348L330 0H22L342 553L36 1082H344Z" />
<glyph unicode="y" horiz-adv-x="1031" d="M433 122L720 1082H1029L594 -163Q580 -204 557 -251T494 -340T395 -410T249 -437Q208 -437 182 -432T120 -418V-207Q131 -207 143 -207T166 -208Q251 -208 291 -180T352 -87L433 122ZM313 1082L548 298L589 -7L393 -28L4
1082H313Z" />
<glyph unicode="z" horiz-adv-x="1042" d="M973 225V0H151V225H973ZM957 916L267 0H74V171L761 1082H957V916ZM855 1082V857H90V1082H855Z" />
<glyph unicode="{" horiz-adv-x="675" d="M585 1597L641 1441Q550 1408 517 1325T484 1132V928Q484 827 440 745T299 615T48 566V718Q143 718 184 775T226 928V1132Q226 1237 258 1328T369 1489T585 1597ZM641 -205L585 -362Q448 -323 370 -254T259 -93T226 104V308Q226
403 185 460T48 517V670Q203 670 299 622T439 491T484 308V104Q484 -5 517 -88T641 -205Z" />
<glyph unicode="|" horiz-adv-x="516" d="M346 1456V-270H174V1456H346Z" />
<glyph unicode="}" horiz-adv-x="675" d="M34 1441L90 1597Q228 1559 306 1490T416 1329T449 1132V928Q449 832 491 775T627 718V570Q472 570 376 617T235 745T190 928V1132Q190 1241 158 1324T34 1441ZM90 -362L34 -205Q125 -172 157 -89T190 104V308Q190 409
235 490T376 618T627 666V517Q533 517 491 460T449 308V104Q449 -1 417 -92T306 -253T90 -362Z" />
<glyph unicode="~" horiz-adv-x="1327" d="M1007 793L1219 792Q1219 668 1177 575T1060 431T888 379Q807 379 744 411T609 511Q567 553 530 575T451 597Q392 597 356 546T320 416L106 418Q106 544 147 635T264 776T436 825Q516 825 582 792T716 693Q760 651 796
630T873 608Q932 608 969 660T1007 793Z" />
<glyph unicode="&#xa0;" horiz-adv-x="516" />
<glyph unicode="&#xa1;" horiz-adv-x="579" d="M137 -368L171 643H410L444 -368H137ZM452 953Q452 890 408 848T290 805Q217 805 173 847T128 953Q128 1016 172 1059T290 1102Q364 1102 408 1059T452 953Z" />
<glyph unicode="&#xa2;" horiz-adv-x="1181" d="M698 1318V1027H502V1318H698ZM698 45V-245H502V45H698ZM594 205Q648 205 688 225T752 283T777 372H1048Q1048 258 988 170T826 31T600 -20Q433 -20 322 53T156 250T101 526V555Q101 708 156 832T321 1029T599 1102Q731
1102 831 1051T990 906T1048 682H777Q776 736 755 780T693 850T593 877Q510 877 466 831T405 712T389 555V526Q389 441 405 368T465 250T594 205Z" />
<glyph unicode="&#xa3;" horiz-adv-x="1217" d="M1161 0H102V234H1160L1161 0ZM868 581H99V808H868V581ZM547 1039L572 434Q573 335 531 265T387 149L198 234Q229 242 244 270T264 339T268 418L249 1039Q249 1177 305 1274T463 1423T700 1475Q919 1475 1036 1361T1154
1061H869Q869 1128 846 1167T785 1224T701 1242Q634 1242 591 1191T547 1039Z" />
<glyph unicode="&#xa4;" horiz-adv-x="1418" d="M297 608Q297 515 329 435T418 294T550 200T711 166Q797 166 872 200T1003 294T1092 434T1124 608Q1124 701 1092 781T1004 921T872 1014T711 1048Q625 1048 550 1015T418 921T329 781T297 608ZM116 608Q116 741
162 855T290 1054T480 1186T711 1234Q834 1234 942 1187T1132 1054T1260 855T1306 608Q1306 475 1260 361T1132 162T942 28T711 -20Q588 -20 480 28T291 161T163 361T116 608ZM1347 1123L1145 917L1007 1059L1208 1265L1347 1123ZM420 180L218 -26L81 115L283 320L420
180ZM1208 -27L1007 179L1145 320L1347 115L1208 -27ZM283 917L81 1123L218 1264L420 1058L283 917Z" />
<glyph unicode="&#xa5;" horiz-adv-x="1098" d="M984 740V571H88V740H984ZM984 450V282H88V450H984ZM481 709L775 1456H1086L681 561H516L481 709ZM323 1456L623 700L584 561H418L12 1456H323ZM695 759V0H396V759H695Z" />
<glyph unicode="&#xa6;" horiz-adv-x="514" d="M386 -270H128V524H386V-270ZM386 1456V698H128V1456H386Z" />
<glyph unicode="&#xa7;" horiz-adv-x="1287" d="M677 137V277Q781 277 838 326T895 451Q895 500 869 534T778 599T599 665Q450 707 343 758T179 889T121 1097Q121 1212 185 1297T366 1429T640 1476Q882 1476 1020 1366T1159 1049H871Q871 1106 845 1151T768 1224T640
1251Q519 1251 465 1207T410 1099Q410 1049 433 1017T518 958T698 899Q851 860 959 808T1123 678T1180 478Q1180 310 1043 224T677 137ZM581 877V734Q477 734 430 686T383 563Q383 510 406 475T492 412T674 348Q828 307 934 256T1097 125T1154 -83Q1154 -263 1013
-359T637 -456Q536 -456 439 -435T264 -367T140 -239T94 -38L382 -37Q382 -95 404 -133T463 -191T545 -221T637 -230Q748 -230 807 -191T866 -84Q866 -39 840 -7T751 53T574 114Q425 154 318 205T153 336T95 535Q95 698 227 787T581 877Z" />
<glyph unicode="&#xa8;" horiz-adv-x="963" d="M97 1367Q97 1419 136 1455T234 1492Q294 1492 333 1456T372 1367Q372 1315 333 1279T234 1243Q176 1243 137 1279T97 1367ZM588 1366Q588 1419 627 1455T725 1491Q784 1491 823 1455T863 1366Q863 1314 824 1279T725
1243Q666 1243 627 1278T588 1366Z" />
<glyph unicode="&#xa9;" horiz-adv-x="1609" d="M965 597H1118Q1118 440 1028 362T784 283Q624 283 530 390T436 670V787Q436 959 530 1066T784 1174Q938 1174 1028 1096T1119 861H966Q966 958 920 1000T784 1042Q719 1042 676 1010T610 920T587 788V670Q587 557
637 486T784 415Q874 415 919 457T965 597ZM208 729Q208 597 253 483T380 284T568 151T798 103Q920 103 1027 150T1214 283T1341 483T1387 729Q1387 862 1342 975T1215 1174T1027 1306T798 1353Q676 1353 569 1306T381 1174T254 976T208 729ZM88 729Q88 888 143
1024T296 1261T522 1419T798 1476Q945 1476 1073 1420T1299 1262T1452 1024T1508 729Q1508 570 1453 434T1300 196T1074 37T798 -20Q651 -20 523 37T296 196T143 434T88 729Z" />
<glyph unicode="&#xaa;" horiz-adv-x="909" d="M583 861V1201Q583 1264 554 1297T464 1331Q398 1331 361 1305T323 1230L154 1243Q154 1344 239 1410T464 1476Q594 1476 674 1407T754 1200V886Q754 837 760 793T780 705H607Q583 778 583 861ZM625 1150L626 1035H480Q391
1035 350 1002T309 923Q309 881 338 857T429 833Q471 833 513 852T583 898T612 950L630 834Q615 802 584 769T504 714T387 691Q267 691 203 753T138 919Q138 1029 222 1089T479 1150H625Z" />
<glyph unicode="&#xab;" horiz-adv-x="965" d="M489 98Q406 226 363 317T320 493Q320 576 362 666T489 884L354 1012Q217 857 152 734T86 493Q86 375 152 252T354 -27L489 98ZM876 98Q792 226 750 317T707 493Q707 576 749 666T876 884L741 1012Q604 858 536 734T467
493Q467 375 535 252T741 -27L876 98Z" />
<glyph unicode="&#xac;" horiz-adv-x="1128" d="M960 804V636H126V804H960ZM960 727V375H765V727H960Z" />
<glyph unicode="&#xad;" horiz-adv-x="807" d="M862 409V628H120V409H862Z" />
<glyph unicode="&#xae;" horiz-adv-x="1609" d="M822 654H607L605 786H789Q857 786 909 815T961 903Q961 977 922 1006T784 1035H652V316H505V1166H784Q933 1166 1020 1100T1108 905Q1108 823 1052 770T890 688Q887 688 884 682T877 675Q860 665 856 661T847 655T822
654ZM812 654L833 761Q989 761 1046 691T1104 515V459Q1104 422 1108 389T1121 332V316H970Q960 342 959 390T957 460V514Q957 586 924 620T812 654ZM207 729Q207 597 253 483T380 284T568 151T797 103Q920 103 1026 150T1214 283T1341 483T1387 729Q1387 862 1341
975T1214 1174T1027 1306T798 1353Q676 1353 569 1306T380 1174T253 976T207 729ZM88 729Q88 888 143 1024T296 1261T522 1419T798 1476Q945 1476 1073 1420T1299 1262T1452 1024T1507 729Q1507 570 1452 434T1300 196T1074 37T798 -20Q651 -20 523 37T296 196T143
434T88 729Z" />
<glyph unicode="&#xaf;" horiz-adv-x="1025" d="M855 1454V1291H169V1454H855Z" />
<glyph unicode="&#xb0;" horiz-adv-x="798" d="M128 1202Q128 1277 165 1339T264 1439T400 1476Q473 1476 534 1439T631 1340T667 1202Q667 1127 631 1066T534 968T399 932Q326 932 264 968T165 1065T128 1202ZM272 1202Q272 1149 310 1113T400 1076Q452 1076
487 1112T522 1202Q522 1257 487 1294T400 1331Q348 1331 310 1294T272 1202Z" />
<glyph unicode="&#xb1;" horiz-adv-x="1100" d="M1004 936V703H88V936H1004ZM676 1285V334H423V1285H676ZM977 229V1H112V229H977Z" />
<glyph unicode="&#xb2;" horiz-adv-x="763" d="M692 827V667H75V801L361 1060Q417 1110 442 1153T467 1220Q467 1259 443 1283T370 1307Q315 1307 288 1274T260 1194H57Q57 1269 94 1331T199 1430T361 1468Q508 1468 589 1404T670 1221Q670 1133 616 1069T452
920L341 827H692Z" />
<glyph unicode="&#xb3;" horiz-adv-x="763" d="M273 1136H362Q420 1136 448 1161T476 1227Q476 1257 452 1282T368 1307Q326 1307 296 1290T266 1243H63Q63 1316 105 1366T215 1442T362 1468Q503 1468 591 1410T679 1242Q679 1181 642 1138T540 1071T395 1048H273V1136ZM273
1003V1088H395Q483 1088 550 1069T655 1007T693 888Q693 778 599 717T362 656Q289 656 217 680T97 758T49 902H253Q253 869 286 843T375 817Q436 817 463 843T490 907Q490 959 456 981T362 1003H273Z" />
<glyph unicode="&#xb4;" horiz-adv-x="676" d="M101 1228L297 1536H610L335 1228H101Z" />
<glyph unicode="&#xb5;" horiz-adv-x="1265" d="M816 1082H1105V0H836L816 250V1082ZM852 503L969 505Q969 354 929 235T808 48T603 -21Q531 -21 473 2T371 74T299 201L273 461H428Q428 357 451 302T515 227T610 207Q703 207 756 245T830 351T852 503ZM140 1082H428V-416H140V1082Z"
/>
<glyph unicode="&#xb6;" horiz-adv-x="1001" d="M869 0H654V520H569Q410 520 301 580T134 747T77 988Q77 1122 134 1228T300 1395T569 1456H869V0Z" />
<glyph unicode="&#xb7;" horiz-adv-x="618" d="M141 699Q141 763 185 806T305 850Q379 850 423 807T468 699Q468 636 424 593T305 550Q230 550 186 593T141 699Z" />
<glyph unicode="&#xb8;" horiz-adv-x="550" d="M128 7H345L334 -52Q391 -62 438 -100T485 -225Q485 -331 396 -395T134 -460L127 -300Q159 -300 185 -291T226 -264T241 -215Q241 -174 207 -158T97 -136L128 7Z" />
<glyph unicode="&#xb9;" horiz-adv-x="763" d="M528 1454V667H325V1222L137 1179V1334L509 1454H528Z" />
<glyph unicode="&#xba;" horiz-adv-x="937" d="M120 1044V1122Q120 1277 213 1376T464 1476Q625 1476 717 1377T810 1122V1044Q810 889 718 790T466 690Q307 690 214 789T120 1044ZM291 1122V1044Q291 954 334 894T466 834Q553 834 596 894T639 1044V1122Q639
1210 596 1270T464 1331Q377 1331 334 1271T291 1122Z" />
<glyph unicode="&#xbb;" horiz-adv-x="965" d="M476 98L611 -27Q748 128 813 251T879 493Q879 610 814 733T611 1012L476 884Q561 757 603 667T645 493Q645 409 603 318T476 98ZM89 98L224 -27Q361 128 430 251T499 493Q499 610 430 734T224 1012L89 884Q174 757
216 667T258 493Q258 409 216 318T89 98Z" />
<glyph unicode="&#xbc;" horiz-adv-x="1467" d="M495 1451V664H292V1219L104 1176V1331L476 1451H495ZM1167 1256L456 118L317 192L1028 1330L1167 1256ZM1387 324V161H748L736 292L1094 789H1254L1079 521L930 324H1387ZM1298 789V0H1095V789H1298Z" />
<glyph unicode="&#xbd;" horiz-adv-x="1554" d="M1125 1256L414 118L275 192L986 1330L1125 1256ZM477 1456V669H274V1224L86 1181V1336L458 1456H477ZM1473 160V0H856V134L1142 393Q1198 443 1223 486T1248 553Q1248 592 1224 616T1151 640Q1096 640 1069 607T1041
527H838Q838 602 875 664T980 763T1142 801Q1289 801 1370 737T1451 554Q1451 466 1397 402T1233 253L1122 160H1473Z" />
<glyph unicode="&#xbe;" horiz-adv-x="1658" d="M1331 1256L620 118L481 192L1192 1330L1331 1256ZM1551 324V161H912L900 292L1258 789H1418L1243 521L1094 324H1551ZM1462 789V0H1259V789H1462ZM319 1136H408Q466 1136 494 1161T522 1227Q522 1257 498 1282T414
1307Q372 1307 342 1290T312 1243H109Q109 1316 151 1366T261 1442T408 1468Q549 1468 637 1410T725 1242Q725 1181 688 1138T586 1071T441 1048H319V1136ZM319 1003V1088H441Q529 1088 596 1069T701 1007T739 888Q739 778 645 717T408 656Q335 656 263 680T143
758T95 902H299Q299 869 332 843T421 817Q482 817 509 843T536 907Q536 959 502 981T408 1003H319Z" />
<glyph unicode="&#xbf;" horiz-adv-x="1020" d="M412 646H667Q667 556 654 492T610 376T522 271Q476 228 440 190T382 108T360 7Q360 -76 402 -116T515 -157Q584 -157 633 -115T685 19H974Q972 -118 912 -208T749 -341T520 -385Q309 -385 190 -284T71 6Q71 94
106 163T199 293T322 413Q360 448 379 481T405 555T412 646ZM705 954Q705 891 661 849T543 806Q469 806 425 848T381 954Q381 1017 425 1060T543 1103Q616 1103 660 1060T705 954Z" />
<glyph unicode="&#xc0;" horiz-adv-x="1376" d="M722 1207L326 0H7L548 1456H751L722 1207ZM1051 0L654 1207L622 1456H827L1371 0H1051ZM1033 542V307H264V542H1033ZM635 1846L832 1538H596L322 1846H635Z" />
<glyph unicode="&#xc1;" horiz-adv-x="1376" d="M722 1207L326 0H7L548 1456H751L722 1207ZM1051 0L654 1207L622 1456H827L1371 0H1051ZM1033 542V307H264V542H1033ZM553 1538L749 1846H1062L787 1538H553Z" />
<glyph unicode="&#xc2;" horiz-adv-x="1376" d="M722 1207L326 0H7L548 1456H751L722 1207ZM1051 0L654 1207L622 1456H827L1371 0H1051ZM1033 542V307H264V542H1033ZM774 1846L1076 1568V1556H847L690 1702L535 1556H310V1571L607 1846H774Z" />
<glyph unicode="&#xc3;" horiz-adv-x="1376" d="M722 1207L326 0H7L548 1456H751L722 1207ZM1051 0L654 1207L622 1456H827L1371 0H1051ZM1033 542V307H264V542H1033ZM900 1841L1066 1830Q1066 1757 1037 1698T957 1603T840 1567Q792 1567 758 1580T694 1610T635
1641T565 1654Q530 1654 506 1629T481 1557L314 1566Q314 1638 343 1698T423 1794T539 1831Q580 1831 614 1818T679 1787T744 1757T814 1744Q849 1744 874 1769T900 1841Z" />
<glyph unicode="&#xc4;" horiz-adv-x="1376" d="M722 1207L326 0H7L548 1456H751L722 1207ZM1051 0L654 1207L622 1456H827L1371 0H1051ZM1033 542V307H264V542H1033ZM307 1677Q307 1729 346 1765T444 1802Q504 1802 543 1766T582 1677Q582 1625 543 1589T444
1553Q386 1553 347 1589T307 1677ZM798 1676Q798 1729 837 1765T935 1801Q994 1801 1033 1765T1073 1676Q1073 1624 1034 1589T935 1553Q876 1553 837 1588T798 1676Z" />
<glyph unicode="&#xc5;" horiz-adv-x="1376" d="M722 1207L326 0H7L548 1456H751L722 1207ZM1051 0L654 1207L622 1456H827L1371 0H1051ZM1033 542V307H264V542H1033ZM471 1730Q471 1814 534 1874T692 1935Q787 1935 850 1875T914 1730Q914 1646 851 1588T692
1529Q597 1529 534 1587T471 1730ZM585 1730Q585 1687 614 1655T692 1623Q741 1623 770 1654T800 1730Q800 1775 771 1807T692 1840Q643 1840 614 1808T585 1730Z" />
<glyph unicode="&#xc6;" horiz-adv-x="1922" d="M995 1301L343 0H6L788 1456H971L995 1301ZM1096 576V337H347V576H1096ZM1861 228V0H1129V228H1861ZM1196 1456L1257 0H968L907 1456H1196ZM1719 862V635H1088V862H1719ZM1800 1456V1228H1068V1456H1800Z" />
<glyph unicode="&#xc7;" horiz-adv-x="1340" d="M974 483H1273Q1264 336 1193 222T994 44T687 -20Q501 -20 366 65T159 306T86 677V778Q86 992 160 1149T371 1391T689 1477Q871 1477 996 1411T1191 1229T1275 965H976Q966 1097 903 1168T689 1239Q590 1239 523
1189T423 1037T389 780V677Q389 527 419 425T515 270T687 217Q781 217 842 247T935 336T974 483ZM580 4H797L786 -55Q843 -65 890 -103T937 -228Q937 -334 848 -398T586 -463L579 -303Q611 -303 637 -294T678 -267T693 -218Q693 -177 659 -161T549 -139L580 4Z"
/>
<glyph unicode="&#xc8;" horiz-adv-x="1152" d="M1107 234V0H332V234H1107ZM430 1456V0H130V1456H430ZM1006 863V635H332V863H1006ZM1106 1456V1221H332V1456H1106ZM581 1850L778 1542H542L268 1850H581Z" />
<glyph unicode="&#xc9;" horiz-adv-x="1152" d="M1107 234V0H332V234H1107ZM430 1456V0H130V1456H430ZM1006 863V635H332V863H1006ZM1106 1456V1221H332V1456H1106ZM499 1542L695 1850H1008L733 1542H499Z" />
<glyph unicode="&#xca;" horiz-adv-x="1152" d="M1107 234V0H332V234H1107ZM430 1456V0H130V1456H430ZM1006 863V635H332V863H1006ZM1106 1456V1221H332V1456H1106ZM719 1850L1021 1572V1560H792L635 1706L480 1560H255V1575L552 1850H719Z" />
<glyph unicode="&#xcb;" horiz-adv-x="1152" d="M1107 234V0H332V234H1107ZM430 1456V0H130V1456H430ZM1006 863V635H332V863H1006ZM1106 1456V1221H332V1456H1106ZM252 1681Q252 1733 291 1769T389 1806Q449 1806 488 1770T527 1681Q527 1629 488 1593T389 1557Q331
1557 292 1593T252 1681ZM743 1680Q743 1733 782 1769T880 1805Q939 1805 978 1769T1018 1680Q1018 1628 979 1593T880 1557Q821 1557 782 1592T743 1680Z" />
<glyph unicode="&#xcc;" horiz-adv-x="599" d="M449 1456V0H150V1456H449ZM244 1850L441 1542H205L-69 1850H244Z" />
<glyph unicode="&#xcd;" horiz-adv-x="599" d="M449 1456V0H150V1456H449ZM162 1542L358 1850H671L396 1542H162Z" />
<glyph unicode="&#xce;" horiz-adv-x="599" d="M449 1456V0H150V1456H449ZM382 1850L684 1572V1560H455L298 1706L143 1560H-82V1575L215 1850H382Z" />
<glyph unicode="&#xcf;" horiz-adv-x="599" d="M449 1456V0H150V1456H449ZM-85 1681Q-85 1733 -46 1769T52 1806Q112 1806 151 1770T190 1681Q190 1629 151 1593T52 1557Q-6 1557 -45 1593T-85 1681ZM406 1680Q406 1733 445 1769T543 1805Q602 1805 641 1769T681
1680Q681 1628 642 1593T543 1557Q484 1557 445 1592T406 1680Z" />
<glyph unicode="&#xd0;" horiz-adv-x="1361" d="M607 0H290L292 234H607Q725 234 806 287T928 444T970 693V764Q970 913 928 1015T806 1169T610 1221H284V1456H610Q805 1456 955 1369T1189 1126T1274 762V693Q1274 485 1190 330T955 87T607 0ZM460 1456V0H160V1456H460ZM712
823V645H11V823H712Z" />
<glyph unicode="&#xd1;" horiz-adv-x="1445" d="M1315 1456V0H1015L430 976V0H130V1456H430L1016 479V1456H1315ZM936 1841L1102 1830Q1102 1757 1073 1698T993 1603T876 1567Q828 1567 794 1580T730 1610T671 1641T601 1654Q566 1654 542 1629T517 1557L350 1566Q350
1638 379 1698T459 1794T575 1831Q616 1831 650 1818T715 1787T780 1757T850 1744Q885 1744 910 1769T936 1841Z" />
<glyph unicode="&#xd2;" horiz-adv-x="1412" d="M1326 762V693Q1326 471 1248 312T1030 66T707 -20Q525 -20 385 66T166 311T86 693V762Q86 984 165 1144T383 1390T705 1476Q888 1476 1028 1390T1247 1144T1326 762ZM1023 693V764Q1023 918 986 1023T878 1182T705
1237Q604 1237 534 1183T426 1023T389 764V693Q389 540 426 434T535 273T707 218Q809 218 879 273T986 434T1023 693ZM650 1847L847 1539H611L337 1847H650Z" />
<glyph unicode="&#xd3;" horiz-adv-x="1412" d="M1326 762V693Q1326 471 1248 312T1030 66T707 -20Q525 -20 385 66T166 311T86 693V762Q86 984 165 1144T383 1390T705 1476Q888 1476 1028 1390T1247 1144T1326 762ZM1023 693V764Q1023 918 986 1023T878 1182T705
1237Q604 1237 534 1183T426 1023T389 764V693Q389 540 426 434T535 273T707 218Q809 218 879 273T986 434T1023 693ZM568 1539L764 1847H1077L802 1539H568Z" />
<glyph unicode="&#xd4;" horiz-adv-x="1412" d="M1326 762V693Q1326 471 1248 312T1030 66T707 -20Q525 -20 385 66T166 311T86 693V762Q86 984 165 1144T383 1390T705 1476Q888 1476 1028 1390T1247 1144T1326 762ZM1023 693V764Q1023 918 986 1023T878 1182T705
1237Q604 1237 534 1183T426 1023T389 764V693Q389 540 426 434T535 273T707 218Q809 218 879 273T986 434T1023 693ZM788 1847L1090 1569V1557H861L704 1703L549 1557H324V1572L621 1847H788Z" />
<glyph unicode="&#xd5;" horiz-adv-x="1412" d="M1326 762V693Q1326 471 1248 312T1030 66T707 -20Q525 -20 385 66T166 311T86 693V762Q86 984 165 1144T383 1390T705 1476Q888 1476 1028 1390T1247 1144T1326 762ZM1023 693V764Q1023 918 986 1023T878 1182T705
1237Q604 1237 534 1183T426 1023T389 764V693Q389 540 426 434T535 273T707 218Q809 218 879 273T986 434T1023 693ZM915 1842L1081 1831Q1081 1758 1052 1699T972 1604T855 1568Q807 1568 773 1581T709 1611T650 1642T580 1655Q545 1655 521 1630T496 1558L329
1567Q329 1639 358 1699T438 1795T554 1832Q595 1832 629 1819T694 1788T759 1758T829 1745Q864 1745 889 1770T915 1842Z" />
<glyph unicode="&#xd6;" horiz-adv-x="1412" d="M1326 762V693Q1326 471 1248 312T1030 66T707 -20Q525 -20 385 66T166 311T86 693V762Q86 984 165 1144T383 1390T705 1476Q888 1476 1028 1390T1247 1144T1326 762ZM1023 693V764Q1023 918 986 1023T878 1182T705
1237Q604 1237 534 1183T426 1023T389 764V693Q389 540 426 434T535 273T707 218Q809 218 879 273T986 434T1023 693ZM321 1678Q321 1730 360 1766T458 1803Q518 1803 557 1767T596 1678Q596 1626 557 1590T458 1554Q400 1554 361 1590T321 1678ZM812 1677Q812
1730 851 1766T949 1802Q1008 1802 1047 1766T1087 1677Q1087 1625 1048 1590T949 1554Q890 1554 851 1589T812 1677Z" />
<glyph unicode="&#xd7;" horiz-adv-x="1069" d="M380 515L113 243L266 85L534 358L802 85L956 243L689 515L954 786L801 944L534 673L267 944L115 786L380 515Z" />
<glyph unicode="&#xd8;" horiz-adv-x="1410" d="M1285 1517L334 -94H147L1099 1517H1285ZM1334 762V693Q1334 471 1256 312T1038 66T715 -20Q533 -20 393 66T173 311T93 693V762Q93 984 172 1144T391 1390T713 1476Q896 1476 1036 1390T1255 1144T1334 762ZM1031
693V764Q1031 918 994 1023T885 1182T713 1237Q611 1237 541 1183T434 1023T397 764V693Q397 540 434 434T542 273T715 218Q816 218 886 273T994 434T1031 693Z" />
<glyph unicode="&#xd9;" horiz-adv-x="1350" d="M934 1456H1233V494Q1233 326 1162 211T965 38T676 -20Q513 -20 387 38T189 211T117 494V1456H417V494Q417 396 448 334T537 243T676 214Q758 214 815 243T903 334T934 494V1456ZM617 1846L814 1538H578L304 1846H617Z" />
<glyph unicode="&#xda;" horiz-adv-x="1350" d="M934 1456H1233V494Q1233 326 1162 211T965 38T676 -20Q513 -20 387 38T189 211T117 494V1456H417V494Q417 396 448 334T537 243T676 214Q758 214 815 243T903 334T934 494V1456ZM535 1538L731 1846H1044L769 1538H535Z" />
<glyph unicode="&#xdb;" horiz-adv-x="1350" d="M934 1456H1233V494Q1233 326 1162 211T965 38T676 -20Q513 -20 387 38T189 211T117 494V1456H417V494Q417 396 448 334T537 243T676 214Q758 214 815 243T903 334T934 494V1456ZM755 1846L1057 1568V1556H828L671
1702L516 1556H291V1571L588 1846H755Z" />
<glyph unicode="&#xdc;" horiz-adv-x="1350" d="M934 1456H1233V494Q1233 326 1162 211T965 38T676 -20Q513 -20 387 38T189 211T117 494V1456H417V494Q417 396 448 334T537 243T676 214Q758 214 815 243T903 334T934 494V1456ZM288 1677Q288 1729 327 1765T425
1802Q485 1802 524 1766T563 1677Q563 1625 524 1589T425 1553Q367 1553 328 1589T288 1677ZM779 1676Q779 1729 818 1765T916 1801Q975 1801 1014 1765T1054 1676Q1054 1624 1015 1589T916 1553Q857 1553 818 1588T779 1676Z" />
<glyph unicode="&#xdd;" horiz-adv-x="1268" d="M330 1456L634 792L938 1456H1265L786 530V0H482V530L2 1456H330ZM499 1538L695 1846H1008L733 1538H499Z" />
<glyph unicode="&#xde;" horiz-adv-x="1248" d="M133 1456H422V0H133V1456ZM232 1187H646Q821 1187 940 1129T1121 970T1183 738Q1183 608 1121 507T940 348T646 290H381V514H646Q735 514 789 546T869 628T894 736Q894 794 869 845T790 929T646 962H421L232 1187Z" />
<glyph unicode="&#xdf;" horiz-adv-x="1294" d="M424 1099V0H137V1103Q137 1329 264 1444T611 1559Q727 1559 822 1518T975 1396T1032 1193Q1032 1118 1016 1074T980 996T943 926T927 830Q927 789 957 751T1031 674T1121 589T1196 485T1226 352Q1226 233 1174
150T1022 24T779 -20Q728 -20 674 -13T574 8T500 38L554 259Q586 241 643 223T773 205Q826 205 863 222T919 272T939 347Q939 397 909 435T834 510T744 588T669 685T638 819Q638 885 654 928T692 1006T730 1080T746 1178Q746 1226 726 1261T671 1315T589 1335Q514
1335 469 1282T424 1099Z" />
<glyph unicode="&#xe0;" horiz-adv-x="1096" d="M696 244V726Q696 803 658 849T535 895Q487 895 452 879T398 832T379 760H91Q91 853 147 930T307 1055T551 1102Q677 1102 775 1060T929 934T986 724V261Q986 172 997 116T1029 17V0H738Q717 44 707 110T696 244ZM734
659L736 496H575Q460 496 408 448T355 324Q355 268 393 232T496 195Q561 195 609 221T683 285T711 357L787 235Q771 194 744 150T674 68T573 5T433 -20Q330 -20 247 21T115 136T66 304Q66 473 192 566T567 659H734ZM495 1536L692 1228H456L182 1536H495Z" />
<glyph unicode="&#xe1;" horiz-adv-x="1096" d="M696 244V726Q696 803 658 849T535 895Q487 895 452 879T398 832T379 760H91Q91 853 147 930T307 1055T551 1102Q677 1102 775 1060T929 934T986 724V261Q986 172 997 116T1029 17V0H738Q717 44 707 110T696 244ZM734
659L736 496H575Q460 496 408 448T355 324Q355 268 393 232T496 195Q561 195 609 221T683 285T711 357L787 235Q771 194 744 150T674 68T573 5T433 -20Q330 -20 247 21T115 136T66 304Q66 473 192 566T567 659H734ZM413 1228L609 1536H922L647 1228H413Z" />
<glyph unicode="&#xe2;" horiz-adv-x="1096" d="M696 244V726Q696 803 658 849T535 895Q487 895 452 879T398 832T379 760H91Q91 853 147 930T307 1055T551 1102Q677 1102 775 1060T929 934T986 724V261Q986 172 997 116T1029 17V0H738Q717 44 707 110T696 244ZM734
659L736 496H575Q460 496 408 448T355 324Q355 268 393 232T496 195Q561 195 609 221T683 285T711 357L787 235Q771 194 744 150T674 68T573 5T433 -20Q330 -20 247 21T115 136T66 304Q66 473 192 566T567 659H734ZM634 1536L936 1258V1246H707L550 1392L395 1246H170V1261L467
1536H634Z" />
<glyph unicode="&#xe3;" horiz-adv-x="1096" d="M696 244V726Q696 803 658 849T535 895Q487 895 452 879T398 832T379 760H91Q91 853 147 930T307 1055T551 1102Q677 1102 775 1060T929 934T986 724V261Q986 172 997 116T1029 17V0H738Q717 44 707 110T696 244ZM734
659L736 496H575Q460 496 408 448T355 324Q355 268 393 232T496 195Q561 195 609 221T683 285T711 357L787 235Q771 194 744 150T674 68T573 5T433 -20Q330 -20 247 21T115 136T66 304Q66 473 192 566T567 659H734ZM760 1787L926 1776Q926 1703 897 1644T817 1549T700
1513Q652 1513 618 1526T554 1556T495 1587T425 1600Q390 1600 366 1575T341 1503L174 1512Q174 1584 203 1644T283 1740T399 1777Q440 1777 474 1764T539 1733T604 1703T674 1690Q709 1690 734 1715T760 1787Z" />
<glyph unicode="&#xe4;" horiz-adv-x="1096" d="M696 244V726Q696 803 658 849T535 895Q487 895 452 879T398 832T379 760H91Q91 853 147 930T307 1055T551 1102Q677 1102 775 1060T929 934T986 724V261Q986 172 997 116T1029 17V0H738Q717 44 707 110T696 244ZM734
659L736 496H575Q460 496 408 448T355 324Q355 268 393 232T496 195Q561 195 609 221T683 285T711 357L787 235Q771 194 744 150T674 68T573 5T433 -20Q330 -20 247 21T115 136T66 304Q66 473 192 566T567 659H734ZM167 1367Q167 1419 206 1455T304 1492Q364 1492
403 1456T442 1367Q442 1315 403 1279T304 1243Q246 1243 207 1279T167 1367ZM658 1366Q658 1419 697 1455T795 1491Q854 1491 893 1455T933 1366Q933 1314 894 1279T795 1243Q736 1243 697 1278T658 1366Z" />
<glyph unicode="&#xe5;" horiz-adv-x="1096" d="M696 244V726Q696 803 658 849T535 895Q487 895 452 879T398 832T379 760H91Q91 853 147 930T307 1055T551 1102Q677 1102 775 1060T929 934T986 724V261Q986 172 997 116T1029 17V0H738Q717 44 707 110T696 244ZM734
659L736 496H575Q460 496 408 448T355 324Q355 268 393 232T496 195Q561 195 609 221T683 285T711 357L787 235Q771 194 744 150T674 68T573 5T433 -20Q330 -20 247 21T115 136T66 304Q66 473 192 566T567 659H734ZM331 1419Q331 1503 394 1563T552 1624Q647 1624
710 1564T774 1419Q774 1335 711 1277T552 1218Q457 1218 394 1276T331 1419ZM445 1419Q445 1376 474 1344T552 1312Q601 1312 630 1343T660 1419Q660 1464 631 1496T552 1529Q503 1529 474 1497T445 1419Z" />
<glyph unicode="&#xe6;" horiz-adv-x="1730" d="M727 183V707Q727 786 687 831T568 877Q483 877 437 839T390 746L102 765Q102 863 160 939T324 1058T572 1102Q769 1102 888 1003T1007 705V218L727 183ZM770 649L772 466H566Q497 466 450 445T379 388T355 314Q355
257 396 222T524 186Q566 186 610 201T691 240T750 293T774 346L908 194Q883 145 827 96T681 13T469 -20Q274 -20 171 71T67 318Q67 476 193 562T564 649H770ZM1246 -20Q1080 -20 965 46T790 229T730 496V564Q730 722 787 844T955 1034T1224 1102Q1437 1102 1557
971T1678 613V455H849V644H1394V672Q1394 733 1376 779T1321 851T1224 877Q1146 877 1099 836T1030 724T1008 564V496Q1008 414 1035 348T1122 244T1278 205Q1382 205 1448 230T1572 285L1648 101Q1614 75 1555 47T1417 -1T1246 -20Z" />
<glyph unicode="&#xe7;" horiz-adv-x="1067" d="M559 205Q612 205 653 225T717 283T742 372H1013Q1012 258 952 170T791 31T565 -20Q397 -20 287 53T121 250T66 526V555Q66 708 121 832T286 1029T563 1102Q696 1102 796 1051T954 906T1013 682H742Q741 736 720
780T658 850T558 877Q474 877 430 831T370 712T354 555V526Q354 441 370 368T430 250T559 205ZM451 4H668L657 -55Q714 -65 761 -103T808 -228Q808 -334 719 -398T457 -463L450 -303Q482 -303 508 -294T549 -267T564 -218Q564 -177 530 -161T420 -139L451 4Z" />
<glyph unicode="&#xe8;" horiz-adv-x="1106" d="M610 -20Q442 -20 321 50T136 240T71 504V544Q71 708 132 833T307 1030T578 1102Q732 1102 838 1036T999 850T1054 572V452H194V644H771V666Q771 726 750 773T685 849T575 877Q499 877 451 834T382 716T360 544V504Q360
417 392 350T484 244T628 205Q706 205 773 235T890 328L1030 176Q979 102 873 41T610 -20ZM489 1537L686 1229H450L176 1537H489Z" />
<glyph unicode="&#xe9;" horiz-adv-x="1106" d="M610 -20Q442 -20 321 50T136 240T71 504V544Q71 708 132 833T307 1030T578 1102Q732 1102 838 1036T999 850T1054 572V452H194V644H771V666Q771 726 750 773T685 849T575 877Q499 877 451 834T382 716T360 544V504Q360
417 392 350T484 244T628 205Q706 205 773 235T890 328L1030 176Q979 102 873 41T610 -20ZM407 1229L603 1537H916L641 1229H407Z" />
<glyph unicode="&#xea;" horiz-adv-x="1106" d="M610 -20Q442 -20 321 50T136 240T71 504V544Q71 708 132 833T307 1030T578 1102Q732 1102 838 1036T999 850T1054 572V452H194V644H771V666Q771 726 750 773T685 849T575 877Q499 877 451 834T382 716T360 544V504Q360
417 392 350T484 244T628 205Q706 205 773 235T890 328L1030 176Q979 102 873 41T610 -20ZM628 1537L930 1259V1247H701L544 1393L389 1247H164V1262L461 1537H628Z" />
<glyph unicode="&#xeb;" horiz-adv-x="1106" d="M610 -20Q442 -20 321 50T136 240T71 504V544Q71 708 132 833T307 1030T578 1102Q732 1102 838 1036T999 850T1054 572V452H194V644H771V666Q771 726 750 773T685 849T575 877Q499 877 451 834T382 716T360 544V504Q360
417 392 350T484 244T628 205Q706 205 773 235T890 328L1030 176Q979 102 873 41T610 -20ZM160 1368Q160 1420 199 1456T297 1493Q357 1493 396 1457T435 1368Q435 1316 396 1280T297 1244Q239 1244 200 1280T160 1368ZM651 1367Q651 1420 690 1456T788 1492Q847
1492 886 1456T926 1367Q926 1315 887 1280T788 1244Q729 1244 690 1279T651 1367Z" />
<glyph unicode="&#xec;" horiz-adv-x="559" d="M423 1082V0H134V1082H423ZM225 1521L422 1213H186L-88 1521H225Z" />
<glyph unicode="&#xed;" horiz-adv-x="559" d="M423 1082V0H134V1082H423ZM143 1469L339 1777H652L377 1469H143Z" />
<glyph unicode="&#xee;" horiz-adv-x="559" d="M423 1082V0H134V1082H423ZM363 1521L665 1243V1231H436L279 1377L124 1231H-101V1246L196 1521H363Z" />
<glyph unicode="&#xef;" horiz-adv-x="559" d="M423 1082V0H134V1082H423ZM-104 1352Q-104 1404 -65 1440T33 1477Q93 1477 132 1441T171 1352Q171 1300 132 1264T33 1228Q-25 1228 -64 1264T-104 1352ZM387 1351Q387 1404 426 1440T524 1476Q583 1476 622 1440T662
1351Q662 1299 623 1264T524 1228Q465 1228 426 1263T387 1351Z" />
<glyph unicode="&#xf0;" horiz-adv-x="1177" d="M236 1363L327 1580Q557 1532 732 1406T1007 1088T1107 649V574Q1107 398 1039 264T854 55T588 -20Q438 -20 325 45T148 221T85 468Q85 618 138 730T292 904T536 966Q649 966 740 917T887 782T950 589L847 591Q847
617 832 645T787 699T710 739T600 754Q525 754 474 720T398 621T373 468Q373 397 399 337T474 241T592 205Q666 205 716 250T791 372T817 547V651Q817 810 769 930T639 1136T453 1277T236 1363ZM989 1396L425 1037L349 1149L913 1508L989 1396Z" />
<glyph unicode="&#xf1;" horiz-adv-x="1148" d="M394 851V0H106V1082H376L394 851ZM352 579H274Q275 739 328 856T476 1038T699 1102Q801 1102 878 1063T998 933T1041 690V0H751V691Q751 763 731 803T673 859T578 876Q520 876 478 853T408 790T366 695T352 579ZM786
1787L952 1776Q952 1703 923 1644T843 1549T726 1513Q678 1513 644 1526T580 1556T521 1587T451 1600Q416 1600 392 1575T367 1503L200 1512Q200 1584 229 1644T309 1740T425 1777Q466 1777 500 1764T565 1733T630 1703T700 1690Q735 1690 760 1715T786 1787Z"
/>
<glyph unicode="&#xf2;" horiz-adv-x="1156" d="M66 530V551Q66 709 126 833T300 1030T577 1102Q741 1102 856 1030T1031 834T1091 551V530Q1091 372 1031 248T857 52T579 -20Q415 -20 301 51T126 247T66 530ZM354 551V530Q354 440 376 366T447 249T579 205Q660
205 709 248T780 366T802 530V551Q802 639 780 713T709 832T577 877Q496 877 447 832T376 713T354 551ZM521 1536L718 1228H482L208 1536H521Z" />
<glyph unicode="&#xf3;" horiz-adv-x="1156" d="M66 530V551Q66 709 126 833T300 1030T577 1102Q741 1102 856 1030T1031 834T1091 551V530Q1091 372 1031 248T857 52T579 -20Q415 -20 301 51T126 247T66 530ZM354 551V530Q354 440 376 366T447 249T579 205Q660
205 709 248T780 366T802 530V551Q802 639 780 713T709 832T577 877Q496 877 447 832T376 713T354 551ZM439 1228L635 1536H948L673 1228H439Z" />
<glyph unicode="&#xf4;" horiz-adv-x="1156" d="M66 530V551Q66 709 126 833T300 1030T577 1102Q741 1102 856 1030T1031 834T1091 551V530Q1091 372 1031 248T857 52T579 -20Q415 -20 301 51T126 247T66 530ZM354 551V530Q354 440 376 366T447 249T579 205Q660
205 709 248T780 366T802 530V551Q802 639 780 713T709 832T577 877Q496 877 447 832T376 713T354 551ZM659 1536L961 1258V1246H732L575 1392L420 1246H195V1261L492 1536H659Z" />
<glyph unicode="&#xf5;" horiz-adv-x="1156" d="M66 530V551Q66 709 126 833T300 1030T577 1102Q741 1102 856 1030T1031 834T1091 551V530Q1091 372 1031 248T857 52T579 -20Q415 -20 301 51T126 247T66 530ZM354 551V530Q354 440 376 366T447 249T579 205Q660
205 709 248T780 366T802 530V551Q802 639 780 713T709 832T577 877Q496 877 447 832T376 713T354 551ZM785 1787L951 1776Q951 1703 922 1644T842 1549T725 1513Q677 1513 643 1526T579 1556T520 1587T450 1600Q415 1600 391 1575T366 1503L199 1512Q199 1584
228 1644T308 1740T424 1777Q465 1777 499 1764T564 1733T629 1703T699 1690Q734 1690 759 1715T785 1787Z" />
<glyph unicode="&#xf6;" horiz-adv-x="1156" d="M66 530V551Q66 709 126 833T300 1030T577 1102Q741 1102 856 1030T1031 834T1091 551V530Q1091 372 1031 248T857 52T579 -20Q415 -20 301 51T126 247T66 530ZM354 551V530Q354 440 376 366T447 249T579 205Q660
205 709 248T780 366T802 530V551Q802 639 780 713T709 832T577 877Q496 877 447 832T376 713T354 551ZM192 1367Q192 1419 231 1455T329 1492Q389 1492 428 1456T467 1367Q467 1315 428 1279T329 1243Q271 1243 232 1279T192 1367ZM683 1366Q683 1419 722 1455T820
1491Q879 1491 918 1455T958 1366Q958 1314 919 1279T820 1243Q761 1243 722 1278T683 1366Z" />
<glyph unicode="&#xf7;" horiz-adv-x="1191" d="M450 155Q450 92 494 49T600 6Q661 6 705 50T749 155Q749 217 705 261T599 306Q538 306 494 261T450 155ZM450 885Q450 822 494 779T600 735Q661 735 705 779T749 885Q749 946 705 990T599 1035Q538 1035 494 991T450
885ZM120 413H1071V632H120V413Z" />
<glyph unicode="&#xf8;" horiz-adv-x="1155" d="M992 1216L329 -142H170L833 1216H992ZM66 530V551Q66 709 126 833T300 1030T577 1102Q741 1102 856 1030T1030 834T1090 551V530Q1090 372 1031 248T857 52T579 -20Q415 -20 301 51T126 247T66 530ZM354 551V530Q354
440 376 366T447 249T579 205Q660 205 709 248T780 366T802 530V551Q802 639 780 713T709 832T577 877Q496 877 447 832T376 713T354 551Z" />
<glyph unicode="&#xf9;" horiz-adv-x="1147" d="M752 259V1082H1040V0H769L752 259ZM784 481L869 483Q869 339 825 225T691 46T464 -20Q305 -20 205 74T104 383V1082H392V381Q392 318 412 279T467 224T549 207Q638 207 689 243T762 341T784 481ZM518 1536L715
1228H479L205 1536H518Z" />
<glyph unicode="&#xfa;" horiz-adv-x="1147" d="M752 259V1082H1040V0H769L752 259ZM784 481L869 483Q869 339 825 225T691 46T464 -20Q305 -20 205 74T104 383V1082H392V381Q392 318 412 279T467 224T549 207Q638 207 689 243T762 341T784 481ZM436 1228L632
1536H945L670 1228H436Z" />
<glyph unicode="&#xfb;" horiz-adv-x="1147" d="M752 259V1082H1040V0H769L752 259ZM784 481L869 483Q869 339 825 225T691 46T464 -20Q305 -20 205 74T104 383V1082H392V381Q392 318 412 279T467 224T549 207Q638 207 689 243T762 341T784 481ZM657 1536L959
1258V1246H730L573 1392L418 1246H193V1261L490 1536H657Z" />
<glyph unicode="&#xfc;" horiz-adv-x="1147" d="M752 259V1082H1040V0H769L752 259ZM784 481L869 483Q869 339 825 225T691 46T464 -20Q305 -20 205 74T104 383V1082H392V381Q392 318 412 279T467 224T549 207Q638 207 689 243T762 341T784 481ZM190 1367Q190
1419 229 1455T327 1492Q387 1492 426 1456T465 1367Q465 1315 426 1279T327 1243Q269 1243 230 1279T190 1367ZM681 1366Q681 1419 720 1455T818 1491Q877 1491 916 1455T956 1366Q956 1314 917 1279T818 1243Q759 1243 720 1278T681 1366Z" />
<glyph unicode="&#xfd;" horiz-adv-x="1031" d="M433 122L720 1082H1029L594 -163Q580 -204 557 -251T494 -340T395 -410T249 -437Q208 -437 182 -432T120 -418V-207Q131 -207 143 -207T166 -208Q251 -208 291 -180T352 -87L433 122ZM313 1082L548 298L589 -7L393
-28L4 1082H313ZM385 1228L581 1536H894L619 1228H385Z" />
<glyph unicode="&#xfe;" d="M402 1536V-416H112V1536H402ZM1086 553V532Q1086 374 1038 249T896 52T666 -20Q534 -20 449 50T315 239T247 507V562Q267 720 314 841T447 1032T664 1102Q802 1102 896 1034T1038 842T1086 553ZM798 532V553Q798 644 778 717T712 833T590
876Q531 876 490 857T423 802T383 716T367 603V464Q372 390 395 332T466 239T592 205Q668 205 713 249T778 368T798 532Z" />
<glyph unicode="&#xff;" horiz-adv-x="1031" d="M433 122L720 1082H1029L594 -163Q580 -204 557 -251T494 -340T395 -410T249 -437Q208 -437 182 -432T120 -418V-207Q131 -207 143 -207T166 -208Q251 -208 291 -180T352 -87L433 122ZM313 1082L548 298L589 -7L393
-28L4 1082H313ZM138 1367Q138 1419 177 1455T275 1492Q335 1492 374 1456T413 1367Q413 1315 374 1279T275 1243Q217 1243 178 1279T138 1367ZM629 1366Q629 1419 668 1455T766 1491Q825 1491 864 1455T904 1366Q904 1314 865 1279T766 1243Q707 1243 668 1278T629
1366Z" />
<glyph unicode="&#x2013;" horiz-adv-x="1345" d="M1222 413V624H123V413H1222Z" />
<glyph unicode="&#x2014;" horiz-adv-x="1600" d="M1477 413V624H123V413H1477Z" />
<glyph unicode="&#x2018;" horiz-adv-x="478" d="M104 1052V1201Q104 1266 129 1335T195 1465T285 1570L419 1492Q383 1432 357 1363T331 1201V1052H104Z" />
<glyph unicode="&#x2019;" horiz-adv-x="470" d="M375 1536V1384Q375 1319 351 1250T285 1120T195 1015L60 1093Q97 1152 123 1221T149 1383V1536H375Z" />
<glyph unicode="&#x201a;" horiz-adv-x="508" d="M384 227L382 67Q382 3 358 -66T293 -196T202 -301L68 -224Q105 -164 127 -95T149 67V227H384Z" />
<glyph unicode="&#x201c;" horiz-adv-x="826" d="M111 1052V1201Q111 1266 136 1335T202 1465T292 1570L426 1492Q390 1432 364 1363T338 1201V1052H111ZM451 1052V1201Q451 1266 476 1335T542 1465T632 1570L766 1492Q730 1432 704 1363T678 1201V1052H451Z" />
<glyph unicode="&#x201d;" horiz-adv-x="833" d="M388 1536V1384Q388 1319 364 1250T298 1120T208 1015L73 1093Q110 1152 136 1221T162 1383V1536H388ZM733 1536V1384Q733 1319 709 1250T643 1120T553 1015L418 1093Q455 1152 481 1221T507 1383V1536H733Z" />
<glyph unicode="&#x201e;" horiz-adv-x="821" d="M384 262L382 67Q382 -1 360 -73T298 -211T210 -321L68 -243Q105 -179 127 -105T149 67V262H384ZM724 262L723 67Q723 -1 699 -73T633 -211T543 -321L401 -243Q438 -179 463 -105T489 67V262H724Z" />
<glyph unicode="&#x2022;" horiz-adv-x="736" d="M136 728V766Q136 866 200 929T372 993Q484 993 547 930T611 766V728Q611 629 548 566T374 503Q265 503 201 566T136 728Z" />
<glyph unicode="&#x2039;" horiz-adv-x="639" d="M573 926L330 523L108 524V537L388 926H573ZM330 532L573 128H388L108 518V531L330 532Z" />
<glyph unicode="&#x203a;" horiz-adv-x="619" d="M81 127L324 531L547 530V517L267 127H81ZM81 925H267L547 536V523L324 522L81 925Z" />
</font>
</defs>
</svg>
