<?xml version="1.0" standalone="no"?>
<!DOCTYPE svg PUBLIC "-//W3C//DTD SVG 1.1//EN" "http://www.w3.org/Graphics/SVG/1.1/DTD/svg11.dtd">
<svg xmlns="http://www.w3.org/2000/svg">
<defs >
<font id="Vazirmatn" horiz-adv-x="1159" ><font-face
    font-family="Vazirmatn SemiBold"
    units-per-em="2048"
    panose-1="0 0 0 0 0 0 0 0 0 0"
    ascent="2100"
    descent="-1100"
    alphabetic="0" />
<glyph unicode=" " horiz-adv-x="524" />
<glyph unicode="!" horiz-adv-x="588" d="M129 161Q129 92 177 47T294 1Q362 1 410 47T459 161Q459 229 411 275T294 321Q226 321 178 275T129 161ZM166 1397L188 470H405L427 1397H166Z" />
<glyph unicode="&quot;" horiz-adv-x="653" d="M267 1537V1399L230 1004H79V1387V1537H267ZM579 1537V1399L542 1004H392V1395V1537H579Z" />
<glyph unicode="#" horiz-adv-x="1224" d="M230 0L490 1456H663L402 0H230ZM612 0L873 1456H1046L785 0H612ZM1189 878H148V1040H1189V878ZM1113 410H73V572H1113V410Z" />
<glyph unicode="$" horiz-adv-x="1170" d="M695 1688V1391H540V1688H695ZM676 55V-213H522V55H676ZM806 381Q806 438 785 480T714 555T581 618Q452 665 355 721T205 862T151 1074Q151 1197 208 1287T369 1427T608 1477Q749 1477 852 1422T1012 1262T1069 1007H805Q805
1131 752 1198T606 1266Q540 1266 498 1241T436 1173T416 1074Q416 1020 436 980T506 906T643 839Q773 791 869 734T1018 593T1071 383Q1071 253 1012 163T845 26T596 -21Q505 -21 416 3T255 81T139 226T96 449H361Q361 373 381 323T435 244T511 202T596 190Q666
190 712 214T782 281T806 381Z" />
<glyph unicode="%" horiz-adv-x="1511" d="M98 1099V1176Q98 1259 134 1327T239 1436T409 1477Q511 1477 580 1436T685 1327T721 1176V1099Q721 1018 686 950T581 841T411 800Q310 800 240 841T134 950T98 1099ZM277 1176V1099Q277 1061 291 1028T336 973T411
952Q456 952 484 973T527 1027T542 1099V1176Q542 1215 528 1249T484 1304T409 1325Q365 1325 336 1304T292 1249T277 1176ZM797 279V357Q797 439 833 507T940 616T1110 657Q1212 657 1281 616T1385 507T1421 357V279Q1421 197 1386 130T1282 21T1112 -20Q1011
-20 941 21T834 130T797 279ZM977 357V280Q977 241 993 208T1039 153T1111 132Q1161 132 1190 153T1231 207T1243 280V357Q1243 415 1210 460T1109 505Q1042 505 1010 460T977 357ZM1175 1248L464 110L333 183L1044 1321L1175 1248Z" />
<glyph unicode="&amp;" horiz-adv-x="1330" d="M357 786L622 960Q685 1002 709 1041T733 1135Q733 1184 696 1226T590 1269Q517 1269 480 1221T443 1108Q443 1040 494 968T621 806L1308 0H1006L444 654Q337 786 270 888T202 1103Q202 1217 250 1301T385 1431T591
1477Q703 1477 784 1432T911 1311T956 1147Q956 1079 931 1022T862 917T760 827L448 603Q403 565 381 529T351 461T343 403Q343 342 369 294T445 217T563 188Q646 188 723 225T861 330T959 492T996 701H1222Q1222 538 1173 401T1010 166Q1003 160 994 150T977 134Q886
56 781 18T551 -21Q405 -21 299 32T136 178T78 391Q78 480 113 546T212 670T357 786Z" />
<glyph unicode="&apos;" horiz-adv-x="336" d="M270 1536V1399L242 1007H73V1384V1536H270Z" />
<glyph unicode="(" horiz-adv-x="716" d="M357 592Q357 771 393 944T500 1258T678 1479L626 1624Q513 1569 422 1466T265 1223T166 922T131 588Q131 417 165 256T265 -43T421 -283T626 -441L678 -296Q571 -215 500 -76T393 238T357 592Z" />
<glyph unicode=")" horiz-adv-x="716" d="M358 592Q358 412 323 238T216 -75T38 -296L90 -441Q203 -386 294 -283T450 -42T549 258T584 592Q584 763 550 924T451 1224T295 1466T90 1624L38 1479Q145 1399 216 1259T322 945T358 592Z" />
<glyph unicode="*" horiz-adv-x="919" d="M127 695L341 969L27 1059L84 1230L394 1108L377 1456H561L543 1102L848 1222L903 1049L584 958L793 690L644 584L459 876L276 593L127 695Z" />
<glyph unicode="+" horiz-adv-x="1119" d="M662 418H995V622H662V966H457V622H124V418H457V46H662V418Z" />
<glyph unicode="," horiz-adv-x="481" d="M368 238L366 55Q366 -52 313 -162T176 -344L36 -267Q63 -222 86 -176T124 -77T139 43V238H368Z" />
<glyph unicode="-" horiz-adv-x="976" d="M852 417V620H124V417H852Z" />
<glyph unicode="." horiz-adv-x="598" d="M135 160Q135 91 182 46T299 0Q367 0 415 46T464 160Q464 228 416 274T299 320Q231 320 183 274T135 160Z" />
<glyph unicode="/" horiz-adv-x="779" d="M194 -125L744 1456H543L-7 -125H194Z" />
<glyph unicode="0" horiz-adv-x="1170" d="M1069 853V608Q1069 385 1009 246T841 44T586 -20Q441 -20 332 43T161 246T100 608V853Q100 1076 160 1213T330 1413T584 1476Q730 1476 839 1414T1008 1214T1069 853ZM805 572V890Q805 1029 780 1112T705 1231T584 1268Q514
1268 465 1232T391 1112T365 890V572Q365 433 391 349T466 226T586 188Q657 188 705 226T779 348T805 572Z" />
<glyph unicode="1" horiz-adv-x="1170" d="M785 1460V0H520V1151L169 1035V1249L755 1460H785Z" />
<glyph unicode="2" horiz-adv-x="1170" d="M1091 208V0H105V178L578 689Q652 773 695 835T756 947T775 1044Q775 1144 722 1206T570 1268Q497 1268 446 1235T368 1142T341 1007H76Q76 1136 136 1242T308 1413T574 1477Q799 1477 919 1368T1040 1070Q1040 976 1001
887T891 709T727 524L443 208H1091Z" />
<glyph unicode="3" horiz-adv-x="1170" d="M394 845H543Q622 845 673 872T750 948T776 1061Q776 1124 753 1170T684 1242T565 1268Q507 1268 459 1245T382 1180T353 1078H88Q88 1196 150 1285T320 1426T559 1477Q703 1477 811 1430T980 1290T1041 1062Q1041 997
1011 933T922 817T779 734T585 702H394V845ZM394 641V782H585Q708 782 798 754T948 674T1035 554T1064 408Q1064 272 998 177T818 31T560 -20Q467 -20 380 5T222 82T111 212T70 395H335Q335 335 364 288T446 215T565 188Q675 188 737 247T799 409Q799 491 768 542T680
617T543 641H394Z" />
<glyph unicode="4" horiz-adv-x="1170" d="M1116 531V323H67L56 483L673 1456H884L656 1069L325 531H1116ZM943 1456V0H678V1456H943Z" />
<glyph unicode="5" horiz-adv-x="1170" d="M367 670L156 721L237 1456H1038V1237H456L418 897Q449 916 508 935T643 955Q782 955 881 897T1032 729T1085 467Q1085 335 1033 224T873 47T601 -20Q508 -20 423 7T269 88T161 220T116 399H377Q388 299 446 244T600
188Q677 188 725 225T797 328T820 478Q820 559 793 621T711 718T573 754Q490 754 446 729T367 670Z" />
<glyph unicode="6" horiz-adv-x="1170" d="M840 1468H876V1255H859Q738 1255 647 1218T495 1115T403 958T372 760V524Q372 414 402 339T486 227T606 189Q675 189 725 226T802 327T829 474Q829 555 803 620T726 723T602 761Q532 761 477 729T390 644T355 534L266
578Q274 691 326 779T469 918T678 969Q817 969 909 901T1047 722T1093 479Q1093 339 1035 226T868 46T611 -20Q494 -20 402 24T243 146T142 328T107 553V659Q107 830 154 977T293 1234T523 1406T840 1468Z" />
<glyph unicode="7" horiz-adv-x="1170" d="M1083 1456V1312L511 0H232L804 1248H64V1456H1083Z" />
<glyph unicode="8" horiz-adv-x="1170" d="M1071 398Q1071 262 1008 169T835 28T586 -20Q448 -20 338 27T163 168T98 398Q98 519 161 609T334 750T584 801Q724 801 834 751T1008 610T1071 398ZM805 414Q805 484 778 535T700 615T584 643Q517 643 468 615T391 536T363
414Q363 343 390 293T468 215T586 188Q654 188 703 215T778 292T805 414ZM1039 1072Q1039 962 981 877T821 743T586 695Q454 695 351 743T189 876T130 1072Q130 1202 189 1292T350 1430T584 1477Q717 1477 820 1430T981 1293T1039 1072ZM775 1061Q775 1123 752
1169T687 1242T584 1268Q526 1268 484 1243T419 1172T396 1061Q396 998 419 951T484 878T586 851Q645 851 687 877T752 951T775 1061Z" />
<glyph unicode="9" horiz-adv-x="1170" d="M304 205H323Q452 205 541 238T686 331T767 476T793 664V928Q793 1041 764 1116T683 1229T569 1268Q500 1268 452 1227T379 1117T353 969Q353 892 377 825T451 717T575 676Q628 676 671 696T747 751T796 828T816 915L909
875Q909 802 879 731T794 603T667 511T512 476Q375 476 281 542T138 719T90 965Q90 1105 148 1221T314 1407T570 1477Q685 1477 775 1432T928 1308T1024 1120T1058 884V791Q1058 656 1031 535T948 314T806 141T600 29T327 -11H304V205Z" />
<glyph unicode=":" horiz-adv-x="598" d="M135 750Q135 681 182 636T299 590Q367 590 415 636T464 750Q464 818 416 864T299 910Q231 910 183 864T135 750ZM135 161Q135 92 182 47T299 1Q367 1 415 47T464 161Q464 229 416 275T299 321Q231 321 183 275T135 161Z" />
<glyph unicode=";" horiz-adv-x="515" d="M114 999Q114 930 161 885T278 839Q346 839 394 885T443 999Q443 1067 395 1113T278 1159Q210 1159 162 1113T114 999ZM387 238L385 55Q385 -52 332 -162T195 -344L55 -267Q82 -222 105 -176T143 -77T158 43V238H387Z" />
<glyph unicode="&lt;" horiz-adv-x="1043" d="M263 651L911 409V155L58 524V698L263 651ZM911 848L263 602L58 558V733L911 1101V848Z" />
<glyph unicode="=" horiz-adv-x="1145" d="M1016 217V415H141V217H1016ZM1016 615V813H141V615H1016Z" />
<glyph unicode="&gt;" horiz-adv-x="1061" d="M780 611L122 850V1102L990 733V557L780 611ZM122 406L781 652L990 699V524L122 155V406Z" />
<glyph unicode="?" horiz-adv-x="1008" d="M589 437H350Q351 528 365 593T414 710T506 818Q552 861 588 899T646 980T667 1077Q667 1167 624 1215T497 1263Q428 1263 374 1220T317 1083H52Q55 1214 114 1301T273 1432T497 1476Q703 1476 817 1375T932 1088Q932
1000 898 931T808 801T687 680Q630 629 610 571T589 437ZM325 126Q325 186 365 226T475 266Q544 266 584 226T625 126Q625 68 585 28T475 -12Q406 -12 366 28T325 126Z" />
<glyph unicode="@" horiz-adv-x="1836" d="M1746 528Q1742 428 1717 331T1640 154T1508 27T1315 -21Q1183 -21 1110 69T1048 311L1099 882H1287L1237 311Q1231 254 1239 218T1264 163T1303 135T1348 127Q1417 127 1467 180T1546 322T1579 522Q1590 750 1527 917T1324
1176T962 1268Q757 1268 606 1165T370 881T275 468Q266 284 303 143T421 -96T621 -244T896 -294Q983 -294 1073 -274T1226 -223L1264 -364Q1194 -409 1090 -431T892 -453Q630 -453 447 -345T171 -32T91 468Q100 673 165 847T344 1149T615 1349T966 1420Q1227 1420
1404 1309T1669 998T1746 528ZM733 427Q725 338 738 276T785 181T871 149Q902 149 938 170T1009 242T1067 385L1147 291Q1101 138 1012 60T809 -19Q711 -19 644 36T545 192T526 427Q544 600 609 726T773 921T985 990Q1099 990 1164 958T1287 882L1189 753Q1160
780 1114 804T1003 829Q927 829 871 783T780 648T733 427Z" />
<glyph unicode="A" horiz-adv-x="1367" d="M718 1235L303 0H12L556 1456H742L718 1235ZM1065 0L648 1235L623 1456H810L1357 0H1065ZM1046 541V324H265V541H1046Z" />
<glyph unicode="B" horiz-adv-x="1300" d="M697 649H325L323 843H642Q765 843 828 894T891 1040Q891 1145 830 1192T640 1239H414V0H139V1456H640Q887 1456 1026 1360T1166 1061Q1166 971 1125 896T998 773T781 719L697 649ZM685 0H244L359 216H685Q807 216 867
275T927 427Q927 495 904 545T830 622T697 649H411L413 843H777L840 768Q966 767 1045 718T1163 592T1201 426Q1201 217 1066 109T685 0Z" />
<glyph unicode="C" horiz-adv-x="1339" d="M991 479H1266Q1255 333 1185 221T990 44T687 -20Q504 -20 371 65T166 305T94 672V783Q94 995 167 1150T376 1391T693 1477Q871 1477 994 1412T1185 1232T1267 970H992Q980 1107 914 1182T693 1257Q586 1257 515 1204T408
1045T372 785V672Q372 523 404 417T506 255T687 199Q788 199 851 231T948 325T991 479Z" />
<glyph unicode="D" horiz-adv-x="1334" d="M574 0H260L262 216H574Q701 216 787 272T917 435T961 691V766Q961 919 917 1024T788 1184T580 1239H254V1456H580Q775 1456 923 1370T1155 1129T1239 764V691Q1239 482 1156 327T922 86T574 0ZM414 1456V0H139V1456H414Z" />
<glyph unicode="E" horiz-adv-x="1155" d="M1104 216V0H330V216H1104ZM414 1456V0H139V1456H414ZM1003 855V644H330V855H1003ZM1101 1456V1239H330V1456H1101Z" />
<glyph unicode="F" horiz-adv-x="1126" d="M414 1456V0H139V1456H414ZM1001 827V610H342V827H1001ZM1078 1456V1239H342V1456H1078Z" />
<glyph unicode="G" horiz-adv-x="1396" d="M1275 753V186Q1243 145 1175 97T996 15T726 -20Q541 -20 400 62T180 301T101 680V776Q101 998 175 1154T386 1394T706 1477Q891 1477 1010 1416T1194 1249T1274 1004H1006Q995 1080 962 1137T869 1227T712 1260Q604
1260 530 1204T418 1041T380 778V680Q380 524 422 416T544 252T740 196Q818 196 869 209T952 242T1000 279V552H711V753H1275Z" />
<glyph unicode="H" horiz-adv-x="1450" d="M1105 855V639H339V855H1105ZM414 1456V0H139V1456H414ZM1309 1456V0H1034V1456H1309Z" />
<glyph unicode="I" horiz-adv-x="589" d="M432 1456V0H157V1456H432Z" />
<glyph unicode="J" horiz-adv-x="1141" d="M733 442V1456H1008V442Q1008 297 945 194T773 35T527 -20Q386 -20 277 27T107 173T45 422H321Q321 298 376 247T527 196Q588 196 634 224T707 308T733 442Z" />
<glyph unicode="K" horiz-adv-x="1298" d="M414 1456V0H139V1456H414ZM1288 1456L704 746L370 389L321 656L553 957L951 1456H1288ZM982 0L529 682L726 860L1309 0H982Z" />
<glyph unicode="L" horiz-adv-x="1107" d="M1063 216V0H331V216H1063ZM414 1456V0H139V1456H414Z" />
<glyph unicode="M" horiz-adv-x="1792" d="M259 1456H497L895 360L1292 1456H1531L990 0H799L259 1456ZM139 1456H372L414 449V0H139V1456ZM1417 1456H1651V0H1376V449L1417 1456Z" />
<glyph unicode="N" horiz-adv-x="1449" d="M1309 1456V0H1033L414 1010V0H139V1456H414L1035 445V1456H1309Z" />
<glyph unicode="O" horiz-adv-x="1412" d="M1318 765V690Q1318 470 1241 311T1027 66T707 -20Q527 -20 389 66T172 311T93 690V765Q93 986 171 1145T387 1390T705 1476Q887 1476 1025 1390T1240 1145T1318 765ZM1040 690V767Q1040 925 1001 1033T887 1198T705
1254Q600 1254 525 1198T411 1034T371 767V690Q371 533 411 424T526 258T707 201Q814 201 888 257T1001 423T1040 690Z" />
<glyph unicode="P" horiz-adv-x="1314" d="M699 531H324V747H699Q791 747 848 777T933 861T960 984Q960 1051 933 1109T849 1203T699 1239H414V0H139V1456H699Q869 1456 989 1396T1173 1229T1237 986Q1237 845 1174 743T990 586T699 531Z" />
<glyph unicode="Q" horiz-adv-x="1412" d="M920 205L1308 -103L1132 -256L750 50L920 205ZM1315 765V690Q1315 470 1238 311T1024 66T704 -20Q524 -20 386 66T169 311T90 690V765Q90 986 168 1145T384 1390T702 1476Q884 1476 1022 1390T1237 1145T1315 765ZM1037
690V767Q1037 925 998 1033T884 1198T702 1254Q596 1254 522 1198T408 1034T368 767V690Q368 533 408 424T523 258T704 201Q811 201 885 257T998 423T1037 690Z" />
<glyph unicode="R" horiz-adv-x="1301" d="M139 1456H668Q834 1456 953 1406T1136 1258T1200 1017Q1200 904 1160 821T1048 682T877 594L791 550H324L322 767H671Q756 767 812 797T896 880T925 1001Q925 1110 862 1174T668 1239H414V0H139V1456ZM961 0L624 652L915
653L1256 14V0H961Z" />
<glyph unicode="S" horiz-adv-x="1250" d="M901 378Q901 434 878 475T789 551T602 624Q466 666 356 724T182 866T117 1073Q117 1192 184 1283T371 1425T646 1476Q808 1476 926 1417T1110 1257T1175 1030H901Q901 1098 873 1150T787 1232T642 1262Q558 1262 503
1237T420 1169T392 1073Q392 1021 425 981T526 908T694 845Q854 797 961 734T1123 585T1177 380Q1177 255 1112 165T930 28T653 -20Q547 -20 444 8T256 94T122 240T72 448H348Q348 379 370 331T434 252T532 207T653 193Q737 193 791 216T873 282T901 378Z" />
<glyph unicode="T" horiz-adv-x="1259" d="M764 1456V0H490V1456H764ZM1216 1456V1239H43V1456H1216Z" />
<glyph unicode="U" horiz-adv-x="1345" d="M949 1456H1224V489Q1224 322 1152 209T956 38T674 -20Q514 -20 389 37T193 208T122 489V1456H397V489Q397 387 431 323T527 227T674 196Q760 196 821 227T916 322T949 489V1456Z" />
<glyph unicode="V" horiz-adv-x="1330" d="M651 285L1014 1456H1319L805 0H602L651 285ZM316 1456L677 285L729 0H524L12 1456H316Z" />
<glyph unicode="W" horiz-adv-x="1798" d="M497 279L787 1456H944L954 1208L644 0H478L497 279ZM314 1456L552 283V0H371L41 1456H314ZM1255 288L1489 1456H1763L1433 0H1252L1255 288ZM1019 1456L1309 275L1326 0H1160L851 1209L863 1456H1019Z" />
<glyph unicode="X" horiz-adv-x="1297" d="M358 1456L649 937L941 1456H1257L825 734L1268 0H949L649 529L350 0H30L473 734L41 1456H358Z" />
<glyph unicode="Y" horiz-adv-x="1259" d="M309 1456L629 777L951 1456H1253L769 533V0H490V533L5 1456H309Z" />
<glyph unicode="Z" horiz-adv-x="1239" d="M1175 216V0H153V216H1175ZM1156 1295L266 0H77V165L971 1456H1156V1295ZM1058 1456V1239H80V1456H1058Z" />
<glyph unicode="[" horiz-adv-x="561" d="M544 1485V1686H147V-331H544V-131H392V1485H544Z" />
<glyph unicode="\" horiz-adv-x="858" d="M616 -125L9 1456H277L885 -125H616Z" />
<glyph unicode="]" horiz-adv-x="561" d="M12 1686V1485H166V-131H12V-331H410V1686H12Z" />
<glyph unicode="^" horiz-adv-x="888" d="M454 1221L264 729H49L348 1456H500L454 1221ZM624 729L435 1221L388 1456H540L839 729H624Z" />
<glyph unicode="_" horiz-adv-x="914" d="M912 0V-204H1V0H912Z" />
<glyph unicode="`" horiz-adv-x="666" d="M349 1536L545 1232H326L56 1536H349Z" />
<glyph unicode="a" horiz-adv-x="1100" d="M715 230V729Q715 811 673 859T539 908Q486 908 447 890T386 840T365 765H100Q100 855 156 931T314 1055T554 1102Q677 1102 773 1061T925 936T981 727V255Q981 174 991 117T1023 17V0H754Q735 41 725 104T715 230ZM752
659L754 502H587Q462 502 402 454T341 324Q341 264 382 224T497 183Q567 183 619 211T700 281T731 359L807 245Q793 204 765 158T693 72T587 6T443 -20Q338 -20 255 22T124 137T76 303Q76 473 203 566T574 659H752Z" />
<glyph unicode="b" horiz-adv-x="1152" d="M118 1536H383V239L357 0H118V1536ZM1079 552V531Q1079 370 1032 246T892 51T658 -20Q525 -20 439 48T304 237T236 512V569Q255 725 303 845T438 1033T656 1102Q797 1102 891 1032T1032 838T1079 552ZM814 531V552Q814
644 795 721T727 845T591 892Q529 892 486 871T414 813T370 726T349 618V462Q356 385 382 324T459 226T593 190Q679 190 727 235T794 357T814 531Z" />
<glyph unicode="c" horiz-adv-x="1068" d="M563 188Q619 188 663 210T733 272T762 365H1011Q1009 255 949 168T790 31T567 -20Q401 -20 291 53T127 250T72 525V557Q72 708 126 831T291 1028T566 1102Q697 1102 796 1051T952 907T1011 688H762Q760 746 736 792T668
866T561 894Q471 894 422 845T355 719T337 557V525Q337 438 355 361T422 236T563 188Z" />
<glyph unicode="d" horiz-adv-x="1153" d="M768 230V1536H1034V0H794L768 230ZM73 528V549Q73 714 123 838T269 1032T497 1102Q627 1102 713 1034T850 844T918 565V508Q900 356 850 237T713 49T495 -20Q363 -20 269 51T124 247T73 528ZM338 549V528Q338 435 360
358T431 236T562 191Q640 191 690 225T769 320T805 457V614Q801 674 785 725T739 813T666 871T564 892Q483 892 434 846T361 723T338 549Z" />
<glyph unicode="e" horiz-adv-x="1102" d="M605 -20Q441 -20 323 49T140 238T76 504V544Q76 711 138 836T314 1032T575 1102Q729 1102 833 1035T991 849T1044 572V461H196V643H784V663Q782 726 760 778T692 862T573 894Q495 894 444 850T367 727T342 544V504Q342
414 375 343T471 230T621 188Q704 188 771 220T889 317L1022 179Q971 104 868 42T605 -20Z" />
<glyph unicode="f" horiz-adv-x="728" d="M465 0H199V1182Q199 1364 303 1460T585 1557Q624 1557 659 1552T730 1538L725 1337Q706 1342 684 1344T634 1346Q553 1346 509 1304T465 1182V0ZM684 1082V892H36V1082H684Z" />
<glyph unicode="g" horiz-adv-x="1165" d="M807 1082H1047V33Q1047 -114 984 -216T806 -372T541 -426Q476 -426 401 -408T256 -352T140 -252L259 -96Q313 -159 381 -191T528 -224Q648 -224 715 -159T782 30V835L807 1082ZM76 528V549Q76 714 128 838T278 1032T511
1102Q618 1102 691 1063T813 952T889 782T932 565V508Q913 356 865 237T730 49T509 -20Q376 -20 279 51T129 247T76 528ZM340 549V528Q340 435 365 358T442 236T575 191Q657 191 709 225T789 320T825 457V614Q820 674 804 725T758 813T684 871T577 892Q496 892
444 846T366 723T340 549Z" />
<glyph unicode="h" horiz-adv-x="1143" d="M378 1536V0H113V1536H378ZM336 580H258Q259 731 310 848T456 1034T674 1102Q781 1102 861 1062T985 931T1030 690V0H764V692Q764 767 742 810T680 873T580 892Q516 892 470 868T395 800T351 701T336 580Z" />
<glyph unicode="i" horiz-adv-x="532" d="M399 1082V0H134V1082H399ZM116 1365Q116 1424 156 1463T266 1502Q335 1502 375 1463T416 1365Q416 1307 376 1268T266 1229Q197 1229 157 1268T116 1365Z" />
<glyph unicode="j" horiz-adv-x="523" d="M132 1082H398V-80Q398 -253 307 -345T46 -437Q11 -437 -24 -433T-93 -420L-92 -216Q-70 -220 -47 -222T-1 -225Q63 -225 97 -191T132 -80V1082ZM110 1365Q110 1424 150 1463T260 1502Q329 1502 369 1463T410 1365Q410
1307 370 1268T260 1229Q191 1229 151 1268T110 1365Z" />
<glyph unicode="k" horiz-adv-x="1081" d="M383 1537V0H119V1537H383ZM1061 1082L590 553L335 294L251 499L448 747L742 1082H1061ZM791 0L456 504L632 675L1097 0H791Z" />
<glyph unicode="l" horiz-adv-x="532" d="M399 1536V0H134V1536H399Z" />
<glyph unicode="m" horiz-adv-x="1779" d="M382 860V0H118V1082H367L382 860ZM343 580H262Q262 731 311 848T454 1034T689 1102Q836 1102 928 1014T1021 722V0H757V695Q757 771 736 814T674 874T578 892Q516 892 472 868T399 800T357 701T343 580ZM1001 629L892
609Q893 746 940 857T1081 1035T1312 1102Q1419 1102 1497 1062T1619 932T1662 695V0H1396V696Q1396 775 1375 817T1313 875T1219 892Q1164 892 1124 872T1056 815T1015 732T1001 629Z" />
<glyph unicode="n" horiz-adv-x="1144" d="M378 851V0H114V1082H362L378 851ZM336 580H258Q259 738 312 855T462 1037T686 1102Q790 1102 867 1063T987 934T1030 694V0H764V696Q764 770 743 813T681 874T581 892Q520 892 475 868T399 800T352 701T336 580Z" />
<glyph unicode="o" d="M72 530V551Q72 709 132 833T305 1030T578 1102Q740 1102 853 1030T1027 834T1087 551V530Q1087 372 1027 248T854 52T580 -20Q419 -20 306 51T132 247T72 530ZM336 551V530Q336 436 361 359T439 235T580 188Q666 188 719 234T798 358T823
530V551Q823 643 798 721T719 846T578 894Q492 894 439 847T361 721T336 551Z" />
<glyph unicode="p" horiz-adv-x="1152" d="M383 874V-416H118V1082H363L383 874ZM1078 552V531Q1078 374 1030 249T888 52T658 -20Q524 -20 437 48T300 233T232 500V567Q251 726 300 846T437 1034T656 1102Q794 1102 887 1034T1029 841T1078 552ZM813 531V552Q813
648 790 724T718 846T586 892Q525 892 481 872T409 815T366 728T345 616V450Q354 376 380 317T456 223T588 188Q670 188 719 235T790 360T813 531Z" />
<glyph unicode="q" horiz-adv-x="1157" d="M767 -416V864L799 1082H1033V-416H767ZM73 530V551Q73 716 122 840T267 1033T498 1102Q631 1102 717 1034T853 846T922 566V509Q903 357 854 238T718 49T496 -20Q362 -20 267 52T123 248T73 530ZM338 551V530Q338 437
360 359T432 235T563 188Q645 188 696 224T774 321T809 459V615Q804 676 788 727T744 815T671 873T565 894Q484 894 434 848T361 725T338 551Z" />
<glyph unicode="r" horiz-adv-x="737" d="M383 861V0H119V1082H369L383 861ZM712 1089L708 843Q686 847 659 849T607 851Q525 851 471 822T390 740T359 611L302 618Q302 756 338 865T446 1038T624 1102Q646 1102 671 1099T712 1089Z" />
<glyph unicode="s" horiz-adv-x="1053" d="M714 296Q714 330 696 357T629 406T484 449Q372 473 285 513T149 617T99 772Q99 862 150 936T296 1056T524 1102Q662 1102 761 1057T914 934T967 757H703Q703 821 659 867T523 913Q468 913 431 895T374 848T355 784Q355
749 374 724T440 680T568 642Q689 618 779 579T921 474T972 308Q972 213 917 139T762 22T525 -20Q376 -20 273 33T117 169T64 341H317Q320 278 351 240T429 186T530 169Q590 169 631 185T693 230T714 296Z" />
<glyph unicode="t" horiz-adv-x="688" d="M631 1082V892H11V1082H631ZM177 1348H442V312Q442 264 455 238T494 203T556 194Q582 194 604 197T641 203L642 5Q609 -6 568 -13T474 -20Q385 -20 318 10T214 109T177 291V1348Z" />
<glyph unicode="u" horiz-adv-x="1143" d="M763 257V1082H1029V0H779L763 257ZM797 481L879 483Q879 338 836 225T702 46T471 -20Q311 -20 212 74T112 383V1082H376V381Q376 310 398 268T458 209T542 191Q638 191 693 229T773 333T797 481Z" />
<glyph unicode="v" horiz-adv-x="1026" d="M478 200L730 1082H1006L635 0H467L478 200ZM294 1082L549 198L558 0H389L17 1082H294Z" />
<glyph unicode="w" horiz-adv-x="1512" d="M420 260L657 1082H825L775 798L536 0H391L420 260ZM289 1082L467 258L483 0H316L32 1082H289ZM1045 270L1219 1082H1475L1193 0H1026L1045 270ZM851 1082L1086 268L1117 0H972L731 798L682 1082H851Z" />
<glyph unicode="x" horiz-adv-x="1036" d="M326 1082L519 738L715 1082H1002L684 552L1015 0H728L521 361L313 0H26L356 552L40 1082H326Z" />
<glyph unicode="y" horiz-adv-x="1017" d="M436 120L726 1082H1009L575 -164Q560 -204 537 -251T474 -340T377 -410T235 -437Q199 -437 171 -432T112 -419V-221Q122 -222 135 -222T159 -223Q246 -223 289 -192T356 -90L436 120ZM293 1082L538 285L581 6L399 -27L8
1082H293Z" />
<glyph unicode="z" horiz-adv-x="1036" d="M967 208V0H153V208H967ZM948 924L252 0H78V163L770 1082H948V924ZM851 1082V873H92V1082H851Z" />
<glyph unicode="{" horiz-adv-x="679" d="M595 1597L647 1451Q550 1417 515 1331T479 1132V927Q479 827 436 745T298 615T52 566V711Q151 711 194 769T237 927V1132Q237 1237 269 1328T380 1489T595 1597ZM647 -215L595 -363Q459 -324 381 -255T270 -94T237 103V307Q237
406 194 464T52 523V669Q204 669 298 621T435 491T479 307V103Q479 -9 515 -95T647 -215Z" />
<glyph unicode="|" horiz-adv-x="513" d="M341 1456V-270H174V1456H341Z" />
<glyph unicode="}" horiz-adv-x="679" d="M31 1451L83 1597Q221 1559 299 1490T409 1329T441 1132V927Q441 828 485 770T627 711V571Q476 571 381 617T243 745T199 927V1132Q199 1244 164 1330T31 1451ZM83 -363L31 -215Q129 -181 164 -95T199 103V307Q199 409
242 489T381 616T627 663V523Q529 523 485 465T441 307V103Q441 -2 409 -93T299 -254T83 -363Z" />
<glyph unicode="~" horiz-adv-x="1342" d="M1031 789H1229Q1229 670 1187 579T1071 436T899 384Q817 384 754 417T616 518Q572 561 534 584T451 607Q388 607 351 555T313 421L112 422Q112 543 153 632T269 771T440 820Q522 820 589 786T724 686Q770 642 808 620T888
598Q951 598 991 652T1031 789Z" />
<glyph unicode="&#xa0;" horiz-adv-x="524" />
<glyph unicode="&#xa1;" horiz-adv-x="561" d="M142 -367L171 652H394L423 -367H142ZM431 963Q431 904 391 864T281 824Q212 824 172 864T131 963Q131 1022 171 1062T281 1102Q350 1102 390 1062T431 963Z" />
<glyph unicode="&#xa2;" horiz-adv-x="1167" d="M691 1318V1028H498V1318H691ZM691 44V-245H498V44H691ZM593 188Q649 188 693 210T763 272T792 365H1042Q1040 255 980 168T820 31T597 -20Q431 -20 321 53T157 250T102 525V557Q102 708 156 831T321 1028T596 1102Q727
1102 826 1051T983 907T1042 688H792Q790 746 766 792T698 866T592 894Q501 894 453 845T386 719T367 557V525Q367 438 385 361T452 236T593 188Z" />
<glyph unicode="&#xa3;" horiz-adv-x="1211" d="M1153 0H101V216H1153V0ZM844 591H97V802H844V591ZM522 1039L546 427Q546 329 508 256T378 139L192 216Q224 225 240 256T262 331T268 414L248 1039Q248 1177 305 1274T463 1423T697 1475Q911 1475 1026 1363T1142
1067H878Q878 1138 853 1180T785 1240T694 1259Q620 1259 571 1203T522 1039Z" />
<glyph unicode="&#xa4;" horiz-adv-x="1428" d="M301 608Q301 515 333 434T422 292T554 197T717 163Q803 163 878 197T1010 292T1099 434T1132 608Q1132 701 1100 781T1011 923T879 1018T717 1052Q630 1052 555 1018T422 923T333 782T301 608ZM121 608Q121 741
167 855T296 1054T486 1186T717 1234Q840 1234 947 1187T1137 1054T1265 855T1311 608Q1311 475 1265 361T1137 162T948 28T717 -20Q594 -20 486 28T296 161T168 361T121 608ZM1352 1124L1150 918L1013 1059L1215 1265L1352 1124ZM424 180L222 -26L86 114L288 319L424
180ZM1215 -27L1013 179L1150 319L1352 114L1215 -27ZM288 918L86 1124L222 1264L424 1058L288 918Z" />
<glyph unicode="&#xa5;" horiz-adv-x="1093" d="M977 740V581H95V740H977ZM977 449V291H95V449H977ZM481 699L792 1456H1080L669 571H513L481 699ZM303 1456L618 691L581 571H425L12 1456H303ZM680 763V0H406V763H680Z" />
<glyph unicode="&#xa6;" horiz-adv-x="509" d="M374 -270H133V524H374V-270ZM374 1456V698H133V1456H374Z" />
<glyph unicode="&#xa7;" horiz-adv-x="1280" d="M682 130V265Q791 265 850 316T910 446Q910 498 882 534T787 603T600 671Q452 712 346 763T183 893T126 1100Q126 1214 189 1298T367 1429T638 1476Q877 1476 1013 1366T1150 1049H886Q886 1110 858 1159T775 1238T638
1268Q508 1268 450 1220T391 1102Q391 1048 415 1014T505 951T693 889Q845 850 952 798T1116 668T1172 467Q1172 303 1039 217T682 130ZM568 876V738Q460 738 410 688T360 561Q360 504 384 468T475 401T665 335Q818 293 924 243T1085 113T1141 -93Q1141 -272 1002
-368T632 -465Q532 -465 436 -444T262 -375T139 -245T93 -44L358 -43Q358 -105 381 -147T445 -212T534 -246T632 -256Q750 -256 813 -212T877 -95Q877 -46 850 -12T757 53T572 117Q423 157 317 208T153 339T95 539Q95 698 224 787T568 876Z" />
<glyph unicode="&#xa8;" horiz-adv-x="939" d="M98 1368Q98 1419 135 1453T229 1488Q287 1488 323 1454T360 1368Q360 1318 324 1284T229 1249Q172 1249 135 1283T98 1368ZM575 1367Q575 1418 611 1452T706 1487Q763 1487 800 1453T837 1367Q837 1317 800 1283T706
1248Q648 1248 612 1282T575 1367Z" />
<glyph unicode="&#xa9;" horiz-adv-x="1609" d="M967 597H1118Q1118 440 1029 362T785 283Q625 283 531 390T437 670V787Q437 959 531 1066T785 1174Q939 1174 1029 1096T1119 861H968Q968 958 922 1000T785 1042Q720 1042 676 1010T610 921T587 788V670Q587 557
637 486T785 415Q875 415 921 457T967 597ZM208 729Q208 597 253 483T380 283T569 150T799 102Q921 102 1028 149T1216 282T1343 482T1389 729Q1389 862 1343 975T1216 1174T1028 1306T799 1354Q677 1354 570 1307T381 1174T254 976T208 729ZM89 729Q89 888 144
1024T297 1261T523 1419T799 1476Q946 1476 1074 1420T1300 1262T1453 1024T1508 729Q1508 570 1453 434T1301 196T1075 37T799 -20Q652 -20 524 36T297 195T144 434T89 729Z" />
<glyph unicode="&#xaa;" horiz-adv-x="910" d="M586 861V1201Q586 1265 556 1298T466 1332Q399 1332 361 1306T323 1230L156 1243Q156 1344 240 1410T466 1476Q596 1476 675 1407T755 1200V886Q755 837 761 793T781 705H610Q586 778 586 861ZM627 1150L628 1035H481Q392
1035 351 1002T309 922Q309 881 338 857T430 832Q472 832 514 851T586 897T615 950L633 835Q618 803 587 770T506 714T389 691Q269 691 205 753T140 919Q140 1029 224 1089T480 1150H627Z" />
<glyph unicode="&#xab;" horiz-adv-x="955" d="M479 90Q393 218 349 309T305 483Q305 566 348 656T479 874L354 994Q219 841 155 720T90 483Q90 369 155 247T354 -28L479 90ZM859 90Q772 218 728 309T684 483Q684 566 727 656T859 874L733 994Q598 842 531 720T464
483Q464 369 531 247T733 -28L859 90Z" />
<glyph unicode="&#xac;" horiz-adv-x="1129" d="M960 803V636H126V803H960ZM960 727V375H767V727H960Z" />
<glyph unicode="&#xad;" horiz-adv-x="751" d="M852 417V620H124V417H852Z" />
<glyph unicode="&#xae;" horiz-adv-x="1609" d="M823 654H607L605 785H794Q861 786 912 815T963 903Q963 977 924 1006T785 1035H652V316H506V1166H785Q934 1166 1021 1100T1108 906Q1108 824 1052 771T891 688Q888 688 885 682T878 675Q861 665 857 661T848 655T823
654ZM813 654L834 757Q990 757 1047 688T1104 515V459Q1104 422 1108 389T1121 332V316H971Q961 342 960 390T958 460V514Q958 586 925 620T813 654ZM207 729Q207 597 252 483T379 283T568 150T798 102Q921 102 1028 149T1216 282T1342 482T1388 729Q1388 862 1343
975T1216 1174T1028 1306T798 1354Q676 1354 569 1307T381 1174T253 976T207 729ZM88 729Q88 888 143 1024T296 1261T522 1419T798 1476Q945 1476 1073 1420T1299 1262T1452 1024T1508 729Q1508 570 1453 434T1300 196T1074 37T798 -20Q651 -20 523 36T296 195T143
434T88 729Z" />
<glyph unicode="&#xaf;" horiz-adv-x="1005" d="M846 1452V1294H163V1452H846Z" />
<glyph unicode="&#xb0;" horiz-adv-x="791" d="M128 1206Q128 1280 165 1341T263 1439T396 1476Q469 1476 529 1440T625 1342T661 1206Q661 1131 625 1071T529 974T396 938Q324 938 263 974T165 1071T128 1206ZM268 1206Q268 1152 306 1116T396 1079Q449 1079
484 1115T520 1206Q520 1261 485 1298T396 1335Q344 1335 306 1298T268 1206Z" />
<glyph unicode="&#xb1;" horiz-adv-x="1099" d="M1006 917V703H90V917H1006ZM670 1281V323H437V1281H670ZM976 211V1H118V211H976Z" />
<glyph unicode="&#xb2;" horiz-adv-x="760" d="M690 820V667H77V795L364 1057Q422 1110 447 1153T473 1222Q473 1263 447 1288T370 1314Q310 1314 281 1280T252 1197H59Q59 1271 95 1332T200 1431T362 1468Q506 1468 586 1404T666 1223Q666 1137 613 1073T454
925L328 820H690Z" />
<glyph unicode="&#xb3;" horiz-adv-x="760" d="M272 1134H359Q420 1134 450 1160T481 1229Q481 1262 455 1288T367 1314Q322 1314 290 1296T258 1243H66Q66 1316 106 1366T215 1442T362 1468Q500 1468 586 1410T673 1242Q673 1183 637 1140T537 1072T391 1048H272V1134ZM272
1005V1088H391Q482 1088 548 1068T650 1004T687 888Q687 778 594 717T362 656Q288 656 217 680T99 758T52 899H245Q245 863 280 836T373 809Q436 809 465 837T494 904Q494 959 458 982T359 1005H272Z" />
<glyph unicode="&#xb4;" horiz-adv-x="668" d="M106 1232L302 1536H594L321 1232H106Z" />
<glyph unicode="&#xb5;" horiz-adv-x="1241" d="M817 1082H1082V0H836L817 250V1082ZM852 503L959 505Q959 354 920 235T800 48T595 -21Q522 -21 463 1T361 71T290 195L262 461H407Q407 349 431 291T499 211T599 190Q698 190 753 230T830 342T852 503ZM144 1082H407V-416H144V1082Z"
/>
<glyph unicode="&#xb6;" horiz-adv-x="1001" d="M861 0H652V520H567Q408 520 299 580T132 747T75 988Q75 1122 132 1228T298 1395T567 1456H861V0Z" />
<glyph unicode="&#xb7;" horiz-adv-x="599" d="M143 706Q143 766 184 807T295 848Q365 848 406 807T447 706Q447 646 406 606T295 566Q225 566 184 606T143 706Z" />
<glyph unicode="&#xb8;" horiz-adv-x="540" d="M134 5H331L320 -52Q377 -62 424 -100T471 -225Q471 -328 385 -391T131 -454L124 -306Q160 -306 188 -297T233 -269T250 -219Q250 -175 215 -158T103 -136L134 5Z" />
<glyph unicode="&#xb9;" horiz-adv-x="760" d="M520 1454V667H329V1232L133 1186V1335L502 1454H520Z" />
<glyph unicode="&#xba;" horiz-adv-x="936" d="M120 1044V1122Q120 1277 213 1376T464 1476Q625 1476 717 1377T809 1122V1044Q809 889 718 790T466 690Q307 690 214 789T120 1044ZM290 1122V1044Q290 954 333 894T466 833Q554 833 597 893T640 1044V1122Q640
1211 597 1271T464 1332Q376 1332 333 1272T290 1122Z" />
<glyph unicode="&#xbb;" horiz-adv-x="955" d="M475 90L601 -28Q735 125 800 247T865 483Q865 598 800 719T601 994L475 874Q562 747 605 657T648 483Q648 400 605 309T475 90ZM96 90L222 -28Q356 125 423 247T490 483Q490 598 423 720T222 994L96 874Q183 747
226 657T269 483Q269 400 226 309T96 90Z" />
<glyph unicode="&#xbc;" horiz-adv-x="1475" d="M486 1451V664H295V1229L99 1183V1332L468 1451H486ZM1164 1256L453 118L321 191L1032 1329L1164 1256ZM1396 318V163H757L746 288L1108 789H1260L1094 530L932 318H1396ZM1302 789V0H1110V789H1302Z" />
<glyph unicode="&#xbd;" horiz-adv-x="1562" d="M1122 1256L411 118L279 191L990 1329L1122 1256ZM471 1455V668H280V1233L84 1187V1336L453 1455H471ZM1475 153V0H862V128L1149 390Q1207 443 1232 486T1258 555Q1258 596 1232 621T1155 647Q1095 647 1066 613T1037
530H844Q844 604 880 665T985 764T1147 801Q1291 801 1371 737T1451 556Q1451 470 1398 406T1239 258L1113 153H1475Z" />
<glyph unicode="&#xbe;" horiz-adv-x="1643" d="M1320 1256L609 118L477 191L1188 1329L1320 1256ZM1543 318V163H904L893 288L1255 789H1407L1241 530L1079 318H1543ZM1449 789V0H1257V789H1449ZM318 1134H405Q466 1134 496 1160T527 1229Q527 1262 501 1288T413
1314Q368 1314 336 1296T304 1243H112Q112 1316 152 1366T261 1442T408 1468Q546 1468 632 1410T719 1242Q719 1183 683 1140T583 1072T437 1048H318V1134ZM318 1005V1088H437Q528 1088 594 1068T696 1004T733 888Q733 778 640 717T408 656Q334 656 263 680T145
758T98 899H291Q291 863 326 836T419 809Q482 809 511 837T540 904Q540 959 504 982T405 1005H318Z" />
<glyph unicode="&#xbf;" horiz-adv-x="1009" d="M410 654H649Q649 563 635 500T589 385T498 277Q454 234 417 195T358 110T336 6Q336 -83 381 -127T506 -172Q580 -172 633 -128T689 10H954Q953 -122 894 -210T735 -341T510 -385Q303 -385 187 -285T71 3Q71 92
106 163T199 296T320 417Q357 452 376 487T403 562T410 654ZM680 964Q680 905 640 865T530 825Q461 825 421 865T380 964Q380 1023 420 1063T530 1103Q599 1103 639 1063T680 964Z" />
<glyph unicode="&#xc0;" horiz-adv-x="1367" d="M718 1235L303 0H12L556 1456H742L718 1235ZM1065 0L648 1235L623 1456H810L1357 0H1065ZM1046 541V324H265V541H1046ZM624 1846L820 1542H601L331 1846H624Z" />
<glyph unicode="&#xc1;" horiz-adv-x="1367" d="M718 1235L303 0H12L556 1456H742L718 1235ZM1065 0L648 1235L623 1456H810L1357 0H1065ZM1046 541V324H265V541H1046ZM557 1542L753 1846H1045L772 1542H557Z" />
<glyph unicode="&#xc2;" horiz-adv-x="1367" d="M718 1235L303 0H12L556 1456H742L718 1235ZM1065 0L648 1235L623 1456H810L1357 0H1065ZM1046 541V324H265V541H1046ZM764 1846L1054 1569V1557H842L687 1709L533 1557H324V1571L610 1846H764Z" />
<glyph unicode="&#xc3;" horiz-adv-x="1367" d="M718 1235L303 0H12L556 1456H742L718 1235ZM1065 0L648 1235L623 1456H810L1357 0H1065ZM1046 541V324H265V541H1046ZM901 1838L1058 1827Q1058 1754 1029 1696T949 1603T834 1569Q786 1569 752 1582T689 1613T630
1644T560 1658Q524 1658 499 1631T473 1558L315 1566Q315 1638 344 1697T423 1791T539 1826Q580 1826 613 1813T678 1783T741 1752T812 1738Q849 1738 875 1765T901 1838Z" />
<glyph unicode="&#xc4;" horiz-adv-x="1367" d="M718 1235L303 0H12L556 1456H742L718 1235ZM1065 0L648 1235L623 1456H810L1357 0H1065ZM1046 541V324H265V541H1046ZM317 1678Q317 1729 354 1763T448 1798Q506 1798 542 1764T579 1678Q579 1628 543 1594T448
1559Q391 1559 354 1593T317 1678ZM794 1677Q794 1728 830 1762T925 1797Q982 1797 1019 1763T1056 1677Q1056 1627 1019 1593T925 1558Q867 1558 831 1592T794 1677Z" />
<glyph unicode="&#xc5;" horiz-adv-x="1367" d="M718 1235L303 0H12L556 1456H742L718 1235ZM1065 0L648 1235L623 1456H810L1357 0H1065ZM1046 541V324H265V541H1046ZM467 1730Q467 1814 530 1874T687 1935Q781 1935 844 1875T907 1730Q907 1645 844 1587T687
1529Q593 1529 530 1587T467 1730ZM577 1730Q577 1686 607 1654T687 1621Q737 1621 766 1653T796 1730Q796 1775 767 1808T687 1842Q637 1842 607 1809T577 1730Z" />
<glyph unicode="&#xc6;" horiz-adv-x="1920" d="M989 1302L313 0H1L806 1456H974L989 1302ZM1100 565V340H353V565H1100ZM1865 211V0H1133V211H1865ZM1178 1456L1239 0H975L914 1456H1178ZM1723 856V645H1092V856H1723ZM1804 1456V1245H1072V1456H1804Z" />
<glyph unicode="&#xc7;" horiz-adv-x="1339" d="M991 479H1266Q1255 333 1185 221T990 44T687 -20Q504 -20 371 65T166 305T94 672V783Q94 995 167 1150T376 1391T693 1477Q871 1477 994 1412T1185 1232T1267 970H992Q980 1107 914 1182T693 1257Q586 1257 515
1204T408 1045T372 785V672Q372 523 404 417T506 255T687 199Q788 199 851 231T948 325T991 479ZM590 0H787L776 -57Q833 -67 880 -105T927 -230Q927 -333 841 -396T587 -459L580 -311Q616 -311 644 -302T689 -274T706 -224Q706 -180 671 -163T559 -141L590 0Z"
/>
<glyph unicode="&#xc8;" horiz-adv-x="1155" d="M1104 216V0H330V216H1104ZM414 1456V0H139V1456H414ZM1003 855V644H330V855H1003ZM1101 1456V1239H330V1456H1101ZM570 1852L766 1548H547L277 1852H570Z" />
<glyph unicode="&#xc9;" horiz-adv-x="1155" d="M1104 216V0H330V216H1104ZM414 1456V0H139V1456H414ZM1003 855V644H330V855H1003ZM1101 1456V1239H330V1456H1101ZM503 1548L699 1852H991L718 1548H503Z" />
<glyph unicode="&#xca;" horiz-adv-x="1155" d="M1104 216V0H330V216H1104ZM414 1456V0H139V1456H414ZM1003 855V644H330V855H1003ZM1101 1456V1239H330V1456H1101ZM710 1852L1000 1575V1563H788L633 1715L479 1563H270V1577L556 1852H710Z" />
<glyph unicode="&#xcb;" horiz-adv-x="1155" d="M1104 216V0H330V216H1104ZM414 1456V0H139V1456H414ZM1003 855V644H330V855H1003ZM1101 1456V1239H330V1456H1101ZM263 1684Q263 1735 300 1769T394 1804Q452 1804 488 1770T525 1684Q525 1634 489 1600T394 1565Q337
1565 300 1599T263 1684ZM740 1683Q740 1734 776 1768T871 1803Q928 1803 965 1769T1002 1683Q1002 1633 965 1599T871 1564Q813 1564 777 1598T740 1683Z" />
<glyph unicode="&#xcc;" horiz-adv-x="589" d="M432 1456V0H157V1456H432ZM232 1852L428 1548H209L-61 1852H232Z" />
<glyph unicode="&#xcd;" horiz-adv-x="589" d="M432 1456V0H157V1456H432ZM165 1548L361 1852H653L380 1548H165Z" />
<glyph unicode="&#xce;" horiz-adv-x="589" d="M432 1456V0H157V1456H432ZM372 1852L662 1575V1563H450L295 1715L141 1563H-68V1577L218 1852H372Z" />
<glyph unicode="&#xcf;" horiz-adv-x="589" d="M432 1456V0H157V1456H432ZM-75 1684Q-75 1735 -38 1769T56 1804Q114 1804 150 1770T187 1684Q187 1634 151 1600T56 1565Q-1 1565 -38 1599T-75 1684ZM402 1683Q402 1734 438 1768T533 1803Q590 1803 627 1769T664
1683Q664 1633 627 1599T533 1564Q475 1564 439 1598T402 1683Z" />
<glyph unicode="&#xd0;" horiz-adv-x="1364" d="M604 0H290L292 216H604Q731 216 817 272T947 435T991 691V766Q991 919 947 1024T818 1184T610 1239H284V1456H610Q805 1456 953 1370T1185 1129T1269 764V691Q1269 482 1186 327T952 86T604 0ZM444 1456V0H169V1456H444ZM703
822V649H17V822H703Z" />
<glyph unicode="&#xd1;" horiz-adv-x="1449" d="M1309 1456V0H1033L414 1010V0H139V1456H414L1035 445V1456H1309ZM940 1838L1097 1827Q1097 1754 1068 1696T988 1603T873 1569Q825 1569 791 1582T728 1613T669 1644T599 1658Q563 1658 538 1631T512 1558L354
1566Q354 1638 383 1697T462 1791T578 1826Q619 1826 652 1813T717 1783T780 1752T851 1738Q888 1738 914 1765T940 1838Z" />
<glyph unicode="&#xd2;" horiz-adv-x="1412" d="M1318 765V690Q1318 470 1241 311T1027 66T707 -20Q527 -20 389 66T172 311T93 690V765Q93 986 171 1145T387 1390T705 1476Q887 1476 1025 1390T1240 1145T1318 765ZM1040 690V767Q1040 925 1001 1033T887 1198T705
1254Q600 1254 525 1198T411 1034T371 767V690Q371 533 411 424T526 258T707 201Q814 201 888 257T1001 423T1040 690ZM643 1847L839 1543H620L350 1847H643Z" />
<glyph unicode="&#xd3;" horiz-adv-x="1412" d="M1318 765V690Q1318 470 1241 311T1027 66T707 -20Q527 -20 389 66T172 311T93 690V765Q93 986 171 1145T387 1390T705 1476Q887 1476 1025 1390T1240 1145T1318 765ZM1040 690V767Q1040 925 1001 1033T887 1198T705
1254Q600 1254 525 1198T411 1034T371 767V690Q371 533 411 424T526 258T707 201Q814 201 888 257T1001 423T1040 690ZM577 1543L773 1847H1065L792 1543H577Z" />
<glyph unicode="&#xd4;" horiz-adv-x="1412" d="M1318 765V690Q1318 470 1241 311T1027 66T707 -20Q527 -20 389 66T172 311T93 690V765Q93 986 171 1145T387 1390T705 1476Q887 1476 1025 1390T1240 1145T1318 765ZM1040 690V767Q1040 925 1001 1033T887 1198T705
1254Q600 1254 525 1198T411 1034T371 767V690Q371 533 411 424T526 258T707 201Q814 201 888 257T1001 423T1040 690ZM783 1847L1073 1570V1558H861L706 1710L552 1558H343V1572L629 1847H783Z" />
<glyph unicode="&#xd5;" horiz-adv-x="1412" d="M1318 765V690Q1318 470 1241 311T1027 66T707 -20Q527 -20 389 66T172 311T93 690V765Q93 986 171 1145T387 1390T705 1476Q887 1476 1025 1390T1240 1145T1318 765ZM1040 690V767Q1040 925 1001 1033T887 1198T705
1254Q600 1254 525 1198T411 1034T371 767V690Q371 533 411 424T526 258T707 201Q814 201 888 257T1001 423T1040 690ZM920 1839L1077 1828Q1077 1755 1048 1697T968 1604T853 1570Q805 1570 771 1583T708 1614T649 1645T579 1659Q543 1659 518 1632T492 1559L334
1567Q334 1639 363 1698T442 1792T558 1827Q599 1827 632 1814T697 1784T760 1753T831 1739Q868 1739 894 1766T920 1839Z" />
<glyph unicode="&#xd6;" horiz-adv-x="1412" d="M1318 765V690Q1318 470 1241 311T1027 66T707 -20Q527 -20 389 66T172 311T93 690V765Q93 986 171 1145T387 1390T705 1476Q887 1476 1025 1390T1240 1145T1318 765ZM1040 690V767Q1040 925 1001 1033T887 1198T705
1254Q600 1254 525 1198T411 1034T371 767V690Q371 533 411 424T526 258T707 201Q814 201 888 257T1001 423T1040 690ZM336 1679Q336 1730 373 1764T467 1799Q525 1799 561 1765T598 1679Q598 1629 562 1595T467 1560Q410 1560 373 1594T336 1679ZM813 1678Q813
1729 849 1763T944 1798Q1001 1798 1038 1764T1075 1678Q1075 1628 1038 1594T944 1559Q886 1559 850 1593T813 1678Z" />
<glyph unicode="&#xd7;" horiz-adv-x="1059" d="M386 515L119 243L262 96L530 369L798 96L940 243L673 515L938 786L797 933L530 662L263 933L121 786L386 515Z" />
<glyph unicode="&#xd8;" horiz-adv-x="1410" d="M1290 1517L328 -94H151L1115 1517H1290ZM1324 765V690Q1324 470 1247 311T1032 66T713 -20Q533 -20 395 66T178 311T99 690V765Q99 986 177 1145T393 1390T711 1476Q892 1476 1030 1390T1246 1145T1324 765ZM1046
690V767Q1046 925 1007 1033T893 1198T711 1254Q605 1254 531 1198T417 1034T377 767V690Q377 533 417 424T532 258T713 201Q820 201 894 257T1007 423T1046 690Z" />
<glyph unicode="&#xd9;" horiz-adv-x="1345" d="M949 1456H1224V489Q1224 322 1152 209T956 38T674 -20Q514 -20 389 37T193 208T122 489V1456H397V489Q397 387 431 323T527 227T674 196Q760 196 821 227T916 322T949 489V1456ZM608 1846L804 1542H585L315 1846H608Z" />
<glyph unicode="&#xda;" horiz-adv-x="1345" d="M949 1456H1224V489Q1224 322 1152 209T956 38T674 -20Q514 -20 389 37T193 208T122 489V1456H397V489Q397 387 431 323T527 227T674 196Q760 196 821 227T916 322T949 489V1456ZM542 1542L738 1846H1030L757 1542H542Z" />
<glyph unicode="&#xdb;" horiz-adv-x="1345" d="M949 1456H1224V489Q1224 322 1152 209T956 38T674 -20Q514 -20 389 37T193 208T122 489V1456H397V489Q397 387 431 323T527 227T674 196Q760 196 821 227T916 322T949 489V1456ZM748 1846L1038 1569V1557H826L671
1709L517 1557H308V1571L594 1846H748Z" />
<glyph unicode="&#xdc;" horiz-adv-x="1345" d="M949 1456H1224V489Q1224 322 1152 209T956 38T674 -20Q514 -20 389 37T193 208T122 489V1456H397V489Q397 387 431 323T527 227T674 196Q760 196 821 227T916 322T949 489V1456ZM301 1678Q301 1729 338 1763T432
1798Q490 1798 526 1764T563 1678Q563 1628 527 1594T432 1559Q375 1559 338 1593T301 1678ZM778 1677Q778 1728 814 1762T909 1797Q966 1797 1003 1763T1040 1677Q1040 1627 1003 1593T909 1558Q851 1558 815 1592T778 1677Z" />
<glyph unicode="&#xdd;" horiz-adv-x="1259" d="M309 1456L629 777L951 1456H1253L769 533V0H490V533L5 1456H309ZM503 1542L699 1846H991L718 1542H503Z" />
<glyph unicode="&#xde;" horiz-adv-x="1239" d="M141 1456H406V0H141V1456ZM239 1181H643Q813 1181 930 1124T1107 967T1168 738Q1168 610 1108 510T930 352T643 295H365V503H643Q736 503 793 536T876 623T903 736Q903 797 877 851T793 939T643 973H405L239 1181Z" />
<glyph unicode="&#xdf;" horiz-adv-x="1277" d="M401 1102V0H137V1105Q137 1329 260 1443T593 1558Q708 1558 801 1518T949 1399T1004 1198Q1004 1122 987 1076T949 994T910 922T893 828Q893 783 924 744T1002 666T1095 581T1173 478T1204 344Q1204 227 1153 146T1004
22T771 -20Q719 -20 664 -12T562 10T488 41L539 247Q572 228 631 208T763 188Q821 188 860 207T920 259T940 338Q940 390 909 429T832 506T738 585T660 684T628 819Q628 885 645 928T686 1008T726 1085T743 1183Q743 1236 722 1273T664 1330T579 1350Q497 1350
449 1294T401 1102Z" />
<glyph unicode="&#xe0;" horiz-adv-x="1100" d="M715 230V729Q715 811 673 859T539 908Q486 908 447 890T386 840T365 765H100Q100 855 156 931T314 1055T554 1102Q677 1102 773 1061T925 936T981 727V255Q981 174 991 117T1023 17V0H754Q735 41 725 104T715 230ZM752
659L754 502H587Q462 502 402 454T341 324Q341 264 382 224T497 183Q567 183 619 211T700 281T731 359L807 245Q793 204 765 158T693 72T587 6T443 -20Q338 -20 255 22T124 137T76 303Q76 473 203 566T574 659H752ZM495 1536L691 1232H472L202 1536H495Z" />
<glyph unicode="&#xe1;" horiz-adv-x="1100" d="M715 230V729Q715 811 673 859T539 908Q486 908 447 890T386 840T365 765H100Q100 855 156 931T314 1055T554 1102Q677 1102 773 1061T925 936T981 727V255Q981 174 991 117T1023 17V0H754Q735 41 725 104T715 230ZM752
659L754 502H587Q462 502 402 454T341 324Q341 264 382 224T497 183Q567 183 619 211T700 281T731 359L807 245Q793 204 765 158T693 72T587 6T443 -20Q338 -20 255 22T124 137T76 303Q76 473 203 566T574 659H752ZM429 1232L625 1536H917L644 1232H429Z" />
<glyph unicode="&#xe2;" horiz-adv-x="1100" d="M715 230V729Q715 811 673 859T539 908Q486 908 447 890T386 840T365 765H100Q100 855 156 931T314 1055T554 1102Q677 1102 773 1061T925 936T981 727V255Q981 174 991 117T1023 17V0H754Q735 41 725 104T715 230ZM752
659L754 502H587Q462 502 402 454T341 324Q341 264 382 224T497 183Q567 183 619 211T700 281T731 359L807 245Q793 204 765 158T693 72T587 6T443 -20Q338 -20 255 22T124 137T76 303Q76 473 203 566T574 659H752ZM635 1536L925 1259V1247H713L558 1399L404 1247H195V1261L481
1536H635Z" />
<glyph unicode="&#xe3;" horiz-adv-x="1100" d="M715 230V729Q715 811 673 859T539 908Q486 908 447 890T386 840T365 765H100Q100 855 156 931T314 1055T554 1102Q677 1102 773 1061T925 936T981 727V255Q981 174 991 117T1023 17V0H754Q735 41 725 104T715 230ZM752
659L754 502H587Q462 502 402 454T341 324Q341 264 382 224T497 183Q567 183 619 211T700 281T731 359L807 245Q793 204 765 158T693 72T587 6T443 -20Q338 -20 255 22T124 137T76 303Q76 473 203 566T574 659H752ZM772 1783L929 1772Q929 1699 900 1641T820 1548T705
1514Q657 1514 623 1527T560 1558T501 1589T431 1603Q395 1603 370 1576T344 1503L186 1511Q186 1583 215 1642T294 1736T410 1771Q451 1771 484 1758T549 1728T612 1697T683 1683Q720 1683 746 1710T772 1783Z" />
<glyph unicode="&#xe4;" horiz-adv-x="1100" d="M715 230V729Q715 811 673 859T539 908Q486 908 447 890T386 840T365 765H100Q100 855 156 931T314 1055T554 1102Q677 1102 773 1061T925 936T981 727V255Q981 174 991 117T1023 17V0H754Q735 41 725 104T715 230ZM752
659L754 502H587Q462 502 402 454T341 324Q341 264 382 224T497 183Q567 183 619 211T700 281T731 359L807 245Q793 204 765 158T693 72T587 6T443 -20Q338 -20 255 22T124 137T76 303Q76 473 203 566T574 659H752ZM188 1368Q188 1419 225 1453T319 1488Q377 1488
413 1454T450 1368Q450 1318 414 1284T319 1249Q262 1249 225 1283T188 1368ZM665 1367Q665 1418 701 1452T796 1487Q853 1487 890 1453T927 1367Q927 1317 890 1283T796 1248Q738 1248 702 1282T665 1367Z" />
<glyph unicode="&#xe5;" horiz-adv-x="1100" d="M715 230V729Q715 811 673 859T539 908Q486 908 447 890T386 840T365 765H100Q100 855 156 931T314 1055T554 1102Q677 1102 773 1061T925 936T981 727V255Q981 174 991 117T1023 17V0H754Q735 41 725 104T715 230ZM752
659L754 502H587Q462 502 402 454T341 324Q341 264 382 224T497 183Q567 183 619 211T700 281T731 359L807 245Q793 204 765 158T693 72T587 6T443 -20Q338 -20 255 22T124 137T76 303Q76 473 203 566T574 659H752ZM339 1420Q339 1504 402 1564T559 1625Q653 1625
716 1565T779 1420Q779 1335 716 1277T559 1219Q465 1219 402 1277T339 1420ZM449 1420Q449 1376 479 1344T559 1311Q609 1311 638 1343T668 1420Q668 1465 639 1498T559 1532Q509 1532 479 1499T449 1420Z" />
<glyph unicode="&#xe6;" horiz-adv-x="1730" d="M732 183V710Q732 796 688 845T561 894Q469 894 418 852T367 750L103 768Q103 865 160 940T321 1058T563 1102Q756 1102 872 1003T989 708V218L732 183ZM775 646L776 472H557Q484 472 435 450T360 390T335 310Q335
250 378 212T511 173Q556 173 603 189T689 232T753 288T778 344L904 194Q878 145 821 96T675 13T461 -20Q271 -20 171 71T70 314Q70 472 193 559T555 646H775ZM1250 -20Q1084 -20 970 47T796 232T736 502V564Q736 722 794 844T962 1034T1223 1102Q1437 1102 1555
971T1674 614V465H851V643H1413V672Q1413 736 1393 786T1332 865T1223 894Q1142 894 1091 850T1015 732T991 564V502Q991 414 1020 343T1111 230T1274 188Q1382 188 1449 215T1573 274L1647 101Q1615 77 1559 49T1424 0T1250 -20Z" />
<glyph unicode="&#xe7;" horiz-adv-x="1068" d="M563 188Q619 188 663 210T733 272T762 365H1011Q1009 255 949 168T790 31T567 -20Q401 -20 291 53T127 250T72 525V557Q72 708 126 831T291 1028T566 1102Q697 1102 796 1051T952 907T1011 688H762Q760 746 736
792T668 866T561 894Q471 894 422 845T355 719T337 557V525Q337 438 355 361T422 236T563 188ZM456 0H653L642 -57Q699 -67 746 -105T793 -230Q793 -333 707 -396T453 -459L446 -311Q482 -311 510 -302T555 -274T572 -224Q572 -180 537 -163T425 -141L456 0Z" />
<glyph unicode="&#xe8;" horiz-adv-x="1102" d="M605 -20Q441 -20 323 49T140 238T76 504V544Q76 711 138 836T314 1032T575 1102Q729 1102 833 1035T991 849T1044 572V461H196V643H784V663Q782 726 760 778T692 862T573 894Q495 894 444 850T367 727T342 544V504Q342
414 375 343T471 230T621 188Q704 188 771 220T889 317L1022 179Q971 104 868 42T605 -20ZM486 1537L682 1233H463L193 1537H486Z" />
<glyph unicode="&#xe9;" horiz-adv-x="1102" d="M605 -20Q441 -20 323 49T140 238T76 504V544Q76 711 138 836T314 1032T575 1102Q729 1102 833 1035T991 849T1044 572V461H196V643H784V663Q782 726 760 778T692 862T573 894Q495 894 444 850T367 727T342 544V504Q342
414 375 343T471 230T621 188Q704 188 771 220T889 317L1022 179Q971 104 868 42T605 -20ZM420 1233L616 1537H908L635 1233H420Z" />
<glyph unicode="&#xea;" horiz-adv-x="1102" d="M605 -20Q441 -20 323 49T140 238T76 504V544Q76 711 138 836T314 1032T575 1102Q729 1102 833 1035T991 849T1044 572V461H196V643H784V663Q782 726 760 778T692 862T573 894Q495 894 444 850T367 727T342 544V504Q342
414 375 343T471 230T621 188Q704 188 771 220T889 317L1022 179Q971 104 868 42T605 -20ZM626 1537L916 1260V1248H704L549 1400L395 1248H186V1262L472 1537H626Z" />
<glyph unicode="&#xeb;" horiz-adv-x="1102" d="M605 -20Q441 -20 323 49T140 238T76 504V544Q76 711 138 836T314 1032T575 1102Q729 1102 833 1035T991 849T1044 572V461H196V643H784V663Q782 726 760 778T692 862T573 894Q495 894 444 850T367 727T342 544V504Q342
414 375 343T471 230T621 188Q704 188 771 220T889 317L1022 179Q971 104 868 42T605 -20ZM179 1369Q179 1420 216 1454T310 1489Q368 1489 404 1455T441 1369Q441 1319 405 1285T310 1250Q253 1250 216 1284T179 1369ZM656 1368Q656 1419 692 1453T787 1488Q844
1488 881 1454T918 1368Q918 1318 881 1284T787 1249Q729 1249 693 1283T656 1368Z" />
<glyph unicode="&#xec;" horiz-adv-x="547" d="M404 1082V0H139V1082H404ZM211 1524L407 1220H188L-82 1524H211Z" />
<glyph unicode="&#xed;" horiz-adv-x="547" d="M404 1082V0H139V1082H404ZM144 1476L340 1780H632L359 1476H144Z" />
<glyph unicode="&#xee;" horiz-adv-x="547" d="M404 1082V0H139V1082H404ZM351 1524L641 1247V1235H429L274 1387L120 1235H-89V1249L197 1524H351Z" />
<glyph unicode="&#xef;" horiz-adv-x="547" d="M404 1082V0H139V1082H404ZM-96 1356Q-96 1407 -59 1441T35 1476Q93 1476 129 1442T166 1356Q166 1306 130 1272T35 1237Q-22 1237 -59 1271T-96 1356ZM381 1355Q381 1406 417 1440T512 1475Q569 1475 606 1441T643
1355Q643 1305 606 1271T512 1236Q454 1236 418 1270T381 1355Z" />
<glyph unicode="&#xf0;" horiz-adv-x="1183" d="M240 1376L323 1580Q553 1532 727 1406T999 1086T1098 645V565Q1098 392 1032 260T852 54T591 -20Q443 -20 331 45T157 221T94 468Q94 619 148 731T304 906T545 969Q658 969 748 919T894 783T956 595L861 596Q861
624 845 654T798 711T718 754T604 771Q524 771 469 734T387 629T359 468Q359 394 386 331T467 228T595 188Q672 188 725 235T805 362T832 544V647Q832 810 784 933T653 1144T463 1289T240 1376ZM989 1401L431 1040L356 1149L913 1510L989 1401Z" />
<glyph unicode="&#xf1;" horiz-adv-x="1144" d="M378 851V0H114V1082H362L378 851ZM336 580H258Q259 738 312 855T462 1037T686 1102Q790 1102 867 1063T987 934T1030 694V0H764V696Q764 770 743 813T681 874T581 892Q520 892 475 868T399 800T352 701T336 580ZM790
1783L947 1772Q947 1699 918 1641T838 1548T723 1514Q675 1514 641 1527T578 1558T519 1589T449 1603Q413 1603 388 1576T362 1503L204 1511Q204 1583 233 1642T312 1736T428 1771Q469 1771 502 1758T567 1728T630 1697T701 1683Q738 1683 764 1710T790 1783Z"
/>
<glyph unicode="&#xf2;" d="M72 530V551Q72 709 132 833T305 1030T578 1102Q740 1102 853 1030T1027 834T1087 551V530Q1087 372 1027 248T854 52T580 -20Q419 -20 306 51T132 247T72 530ZM336 551V530Q336 436 361 359T439 235T580 188Q666 188 719 234T798 358T823
530V551Q823 643 798 721T719 846T578 894Q492 894 439 847T361 721T336 551ZM513 1536L709 1232H490L220 1536H513Z" />
<glyph unicode="&#xf3;" d="M72 530V551Q72 709 132 833T305 1030T578 1102Q740 1102 853 1030T1027 834T1087 551V530Q1087 372 1027 248T854 52T580 -20Q419 -20 306 51T132 247T72 530ZM336 551V530Q336 436 361 359T439 235T580 188Q666 188 719 234T798 358T823
530V551Q823 643 798 721T719 846T578 894Q492 894 439 847T361 721T336 551ZM447 1232L643 1536H935L662 1232H447Z" />
<glyph unicode="&#xf4;" d="M72 530V551Q72 709 132 833T305 1030T578 1102Q740 1102 853 1030T1027 834T1087 551V530Q1087 372 1027 248T854 52T580 -20Q419 -20 306 51T132 247T72 530ZM336 551V530Q336 436 361 359T439 235T580 188Q666 188 719 234T798 358T823
530V551Q823 643 798 721T719 846T578 894Q492 894 439 847T361 721T336 551ZM653 1536L943 1259V1247H731L576 1399L422 1247H213V1261L499 1536H653Z" />
<glyph unicode="&#xf5;" d="M72 530V551Q72 709 132 833T305 1030T578 1102Q740 1102 853 1030T1027 834T1087 551V530Q1087 372 1027 248T854 52T580 -20Q419 -20 306 51T132 247T72 530ZM336 551V530Q336 436 361 359T439 235T580 188Q666 188 719 234T798 358T823
530V551Q823 643 798 721T719 846T578 894Q492 894 439 847T361 721T336 551ZM790 1783L947 1772Q947 1699 918 1641T838 1548T723 1514Q675 1514 641 1527T578 1558T519 1589T449 1603Q413 1603 388 1576T362 1503L204 1511Q204 1583 233 1642T312 1736T428 1771Q469
1771 502 1758T567 1728T630 1697T701 1683Q738 1683 764 1710T790 1783Z" />
<glyph unicode="&#xf6;" d="M72 530V551Q72 709 132 833T305 1030T578 1102Q740 1102 853 1030T1027 834T1087 551V530Q1087 372 1027 248T854 52T580 -20Q419 -20 306 51T132 247T72 530ZM336 551V530Q336 436 361 359T439 235T580 188Q666 188 719 234T798 358T823
530V551Q823 643 798 721T719 846T578 894Q492 894 439 847T361 721T336 551ZM206 1368Q206 1419 243 1453T337 1488Q395 1488 431 1454T468 1368Q468 1318 432 1284T337 1249Q280 1249 243 1283T206 1368ZM683 1367Q683 1418 719 1452T814 1487Q871 1487 908 1453T945
1367Q945 1317 908 1283T814 1248Q756 1248 720 1282T683 1367Z" />
<glyph unicode="&#xf7;" horiz-adv-x="1185" d="M454 163Q454 103 496 62T597 21Q655 21 697 63T739 163Q739 221 697 263T596 306Q538 306 496 264T454 163ZM454 877Q454 817 496 776T597 735Q655 735 697 777T739 877Q739 936 697 978T596 1020Q538 1020 496
978T454 877ZM124 421H1061V624H124V421Z" />
<glyph unicode="&#xf8;" horiz-adv-x="1156" d="M990 1214L327 -140H176L839 1214H990ZM72 530V551Q72 709 132 833T305 1030T578 1102Q740 1102 853 1030T1027 834T1087 551V530Q1087 372 1027 248T854 52T580 -20Q419 -20 306 51T132 247T72 530ZM336 551V530Q336
436 361 359T439 235T580 188Q666 188 719 234T798 358T823 530V551Q823 643 798 721T719 846T578 894Q492 894 439 847T361 721T336 551Z" />
<glyph unicode="&#xf9;" horiz-adv-x="1143" d="M763 257V1082H1029V0H779L763 257ZM797 481L879 483Q879 338 836 225T702 46T471 -20Q311 -20 212 74T112 383V1082H376V381Q376 310 398 268T458 209T542 191Q638 191 693 229T773 333T797 481ZM509 1536L705
1232H486L216 1536H509Z" />
<glyph unicode="&#xfa;" horiz-adv-x="1143" d="M763 257V1082H1029V0H779L763 257ZM797 481L879 483Q879 338 836 225T702 46T471 -20Q311 -20 212 74T112 383V1082H376V381Q376 310 398 268T458 209T542 191Q638 191 693 229T773 333T797 481ZM443 1232L639
1536H931L658 1232H443Z" />
<glyph unicode="&#xfb;" horiz-adv-x="1143" d="M763 257V1082H1029V0H779L763 257ZM797 481L879 483Q879 338 836 225T702 46T471 -20Q311 -20 212 74T112 383V1082H376V381Q376 310 398 268T458 209T542 191Q638 191 693 229T773 333T797 481ZM649 1536L939
1259V1247H727L572 1399L418 1247H209V1261L495 1536H649Z" />
<glyph unicode="&#xfc;" horiz-adv-x="1143" d="M763 257V1082H1029V0H779L763 257ZM797 481L879 483Q879 338 836 225T702 46T471 -20Q311 -20 212 74T112 383V1082H376V381Q376 310 398 268T458 209T542 191Q638 191 693 229T773 333T797 481ZM202 1368Q202
1419 239 1453T333 1488Q391 1488 427 1454T464 1368Q464 1318 428 1284T333 1249Q276 1249 239 1283T202 1368ZM679 1367Q679 1418 715 1452T810 1487Q867 1487 904 1453T941 1367Q941 1317 904 1283T810 1248Q752 1248 716 1282T679 1367Z" />
<glyph unicode="&#xfd;" horiz-adv-x="1017" d="M436 120L726 1082H1009L575 -164Q560 -204 537 -251T474 -340T377 -410T235 -437Q199 -437 171 -432T112 -419V-221Q122 -222 135 -222T159 -223Q246 -223 289 -192T356 -90L436 120ZM293 1082L538 285L581 6L399
-27L8 1082H293ZM390 1232L586 1536H878L605 1232H390Z" />
<glyph unicode="&#xfe;" horiz-adv-x="1164" d="M387 1536V-416H121V1536H387ZM1081 552V531Q1081 374 1033 249T891 52T661 -20Q527 -20 440 48T303 233T235 500V567Q254 726 303 846T439 1034T659 1102Q796 1102 890 1034T1032 841T1081 552ZM816 531V552Q816
648 794 724T721 846T590 892Q528 892 485 872T413 815T369 728T348 616V450Q357 376 383 317T459 223T592 188Q673 188 722 235T794 360T816 531Z" />
<glyph unicode="&#xff;" horiz-adv-x="1017" d="M436 120L726 1082H1009L575 -164Q560 -204 537 -251T474 -340T377 -410T235 -437Q199 -437 171 -432T112 -419V-221Q122 -222 135 -222T159 -223Q246 -223 289 -192T356 -90L436 120ZM293 1082L538 285L581 6L399
-27L8 1082H293ZM149 1368Q149 1419 186 1453T280 1488Q338 1488 374 1454T411 1368Q411 1318 375 1284T280 1249Q223 1249 186 1283T149 1368ZM626 1367Q626 1418 662 1452T757 1487Q814 1487 851 1453T888 1367Q888 1317 851 1283T757 1248Q699 1248 663 1282T626
1367Z" />
<glyph unicode="&#x2013;" horiz-adv-x="1345" d="M1218 419V618H127V419H1218Z" />
<glyph unicode="&#x2014;" horiz-adv-x="1600" d="M1473 419V618H127V419H1473Z" />
<glyph unicode="&#x2018;" horiz-adv-x="463" d="M103 1057V1199Q103 1263 126 1331T191 1461T282 1566L409 1490Q371 1428 345 1359T319 1200V1057H103Z" />
<glyph unicode="&#x2019;" horiz-adv-x="456" d="M364 1536V1389Q364 1326 341 1258T277 1128T185 1022L57 1099Q97 1160 122 1229T148 1388V1536H364Z" />
<glyph unicode="&#x201a;" horiz-adv-x="485" d="M368 217L367 70Q367 6 344 -62T280 -191T188 -297L61 -221Q100 -160 122 -90T145 69V217H368Z" />
<glyph unicode="&#x201c;" horiz-adv-x="803" d="M110 1057V1199Q110 1263 133 1331T198 1461T289 1566L416 1490Q378 1428 352 1359T326 1200V1057H110ZM444 1057V1199Q444 1263 467 1331T532 1461T623 1566L750 1490Q712 1428 686 1359T660 1200V1057H444Z" />
<glyph unicode="&#x201d;" horiz-adv-x="810" d="M377 1536V1389Q377 1326 354 1258T290 1128T198 1022L70 1099Q110 1160 135 1229T161 1388V1536H377ZM713 1536V1389Q713 1326 690 1258T626 1128T534 1022L406 1099Q446 1160 471 1229T497 1388V1536H713Z" />
<glyph unicode="&#x201e;" horiz-adv-x="795" d="M368 258L367 70Q367 3 345 -69T284 -206T195 -317L61 -240Q100 -174 122 -100T145 69V258H368ZM698 258V70Q698 3 674 -69T610 -206T519 -317L385 -240Q424 -174 449 -100T475 69V258H698Z" />
<glyph unicode="&#x2022;" horiz-adv-x="726" d="M137 729V768Q137 864 199 926T366 988Q473 988 535 926T597 768V729Q597 633 536 572T367 511Q262 511 200 572T137 729Z" />
<glyph unicode="&#x2039;" horiz-adv-x="634" d="M567 931L320 528L108 529V542L392 931H567ZM320 537L567 134H392L108 523V536L320 537Z" />
<glyph unicode="&#x203a;" horiz-adv-x="618" d="M83 133L330 536L542 535V522L259 133H83ZM83 931H259L542 541V528L330 527L83 931Z" />
</font>
</defs>
</svg>
